<?xml version="1.0" encoding="UTF-8" standalone="no"?>
<!DOCTYPE svg PUBLIC "-//W3C//DTD SVG 1.1//EN" "http://www.w3.org/Graphics/SVG/1.1/DTD/svg11.dtd">
<svg width="100%" height="100%" viewBox="0 0 584 584" version="1.1" xmlns="http://www.w3.org/2000/svg" xmlns:xlink="http://www.w3.org/1999/xlink" xml:space="preserve" xmlns:serif="http://www.serif.com/" style="fill-rule:evenodd;clip-rule:evenodd;stroke-linejoin:round;stroke-miterlimit:2;">
    <g transform="matrix(1,0,0,1,-14062.5,0)">
        <g transform="matrix(4.16667,0,0,4.16667,14062.5,0)">
            <rect id="Page-3" serif:id="Page 3" x="0" y="0" width="140" height="140" style="fill:none;"/>
            <g id="Page-31" serif:id="Page 3">
                <g id="Layer-1" serif:id="Layer 1">
                    <g transform="matrix(1,0,0,1,82.7798,99.4847)">
                        <path d="M0,-4.155C-2.962,-0.051 -8.117,4.019 -16.809,3.4C-21.622,3.066 -26.633,2.26 -30.735,1.462C-19.332,0.668 -7.389,-0.628 0,-4.155M5.635,-8.529L5.635,-8.53C5.836,-9.212 5.542,-9.927 4.92,-10.269C4.297,-10.615 3.534,-10.479 3.067,-9.943C-2.906,-3.112 -23.303,-1.932 -41.307,-0.89C-42.042,-0.848 -42.633,-0.285 -42.711,0.449C-42.789,1.182 -42.329,1.857 -41.619,2.052C-41.492,2.087 -28.802,5.574 -17.017,6.394C-16.365,6.439 -15.731,6.46 -15.114,6.46C1,6.46 5.59,-8.38 5.635,-8.529" style="fill:rgb(35,31,32);fill-rule:nonzero;"/>
                    </g>
                    <g transform="matrix(1,0,0,1,60.977,78.4789)">
                        <path d="M0,-27.324C1.105,-29.816 2.325,-32.271 3.646,-34.664C3.539,-33.805 3.43,-32.9 3.322,-31.963C2.489,-30.44 1.393,-28.908 0,-27.324M-7.007,-16.961C-7.774,-14.386 -8.438,-11.762 -8.987,-9.139C-16.964,-6.305 -22.754,-3.128 -26.676,-0.528C-22.827,-5.092 -17.36,-9.174 -12.047,-13.14C-10.249,-14.482 -8.597,-15.721 -7.007,-16.961M2.203,-18.318C1.187,-1.523 0.012,2.726 -7.936,11.061C-8.047,7.394 -7.907,0.975 -6.359,-7.061C-3.135,-8.879 -0.262,-12.658 2.203,-18.318M1.237,-24.226C-0.104,-20.218 -2.314,-14.882 -5.354,-11.665C-4.625,-14.627 -3.742,-17.582 -2.724,-20.471C-1.214,-21.784 0.097,-23.026 1.237,-24.226M-10.704,14.7L-10.704,14.702C-10.628,15.273 -10.244,15.742 -9.701,15.927C-9.545,15.981 -9.382,16.008 -9.216,16.008C-8.815,16.008 -8.438,15.853 -8.156,15.571C3.254,4.193 4.179,0.322 5.384,-21.392C5.874,-30.211 7.588,-41.339 7.605,-41.449C7.713,-42.141 7.315,-42.827 6.66,-43.079C6.005,-43.332 5.251,-43.086 4.869,-42.501C0.715,-36.161 -2.694,-29.344 -5.266,-22.234C-7.974,-19.927 -10.956,-17.699 -13.842,-15.544C-22.08,-9.393 -30.598,-3.033 -33.716,5.369C-33.965,6.04 -33.701,6.797 -33.091,7.17C-32.5,7.532 -31.669,7.413 -31.206,6.905C-31.141,6.835 -24.599,-0.057 -9.642,-5.694C-11.72,6.442 -10.715,14.617 -10.704,14.7" style="fill:rgb(35,31,32);fill-rule:nonzero;"/>
                    </g>
                    <g transform="matrix(1,0,0,1,54.6108,111.823)">
                        <path d="M0,-85.049C-13.28,-84.82 -22.335,-83.445 -28.091,-80.785C-25.719,-84.478 -21.655,-88.263 -14.968,-88.263C-13.467,-88.263 -11.875,-88.066 -10.235,-87.678C-7.966,-87.14 -5.869,-86.585 -3.819,-86.043C-2.516,-85.698 -1.246,-85.362 0,-85.049M53.808,-95.33C55.973,-93.969 57.179,-91.557 56.882,-89.186C56.613,-87.045 55.174,-85.403 52.933,-84.682C49.884,-83.7 41.982,-83.884 34.017,-84.18C36.01,-90.209 38.401,-92.9 38.983,-93.491C45.04,-96.878 50.303,-97.53 53.808,-95.33M28.011,-55.26C27.685,-41.169 26.772,-30.691 18.773,-25.192C18.278,-30.194 17.303,-43.96 19.685,-58.197C21.492,-57.82 24.59,-56.99 28.011,-55.26M21.57,-84.68C23.604,-85.301 25.715,-86.132 27.934,-87.185C27.269,-86.317 26.632,-85.42 26.03,-84.501C24.559,-84.562 23.072,-84.622 21.57,-84.68M27.554,-81.821L27.536,-81.831L27.559,-81.937L27.554,-81.821ZM28.249,-66.79C28.201,-65.016 28.166,-63.29 28.134,-61.597L20.283,-61.597C21.876,-69.408 24.345,-76.129 27.624,-81.589L30.066,-81.488C29.009,-77.111 28.397,-72.169 28.249,-66.79M29.549,-84.357C30.315,-85.427 31.12,-86.442 31.956,-87.395C31.569,-86.411 31.209,-85.379 30.878,-84.303L29.549,-84.357ZM46.137,-35.105C44.233,-47.085 36.94,-53.643 31.048,-57.059L31.077,-58.597L46.374,-58.604C50.591,-57.888 53.439,-53.954 55.088,-50.779C59.582,-42.118 60.364,-29.186 56.83,-21.951C52.174,-12.418 45.229,-4.355 34.559,3.819C41.829,-5.399 48.719,-18.858 46.137,-35.105M57.749,-52.161C54.912,-57.63 51.113,-60.887 46.77,-61.579C46.692,-61.585 46.616,-61.591 46.54,-61.597L31.135,-61.597C31.166,-63.264 31.2,-64.962 31.249,-66.708C31.396,-72.111 32.035,-77.039 33.146,-81.366C43.791,-80.956 50.599,-80.934 53.853,-81.982C57.199,-83.059 59.445,-85.671 59.858,-88.967C60.301,-92.491 58.552,-96.047 55.402,-98.026C50.909,-100.848 44.51,-100.198 37.443,-96.214C37.414,-96.205 37.354,-96.186 37.24,-96.106C36.591,-95.736 35.937,-95.348 35.277,-94.922C17.745,-83.596 9.472,-85.783 -3.074,-89.105C-5.121,-89.646 -7.237,-90.205 -9.544,-90.751C-27.673,-95.059 -33.158,-77.308 -33.212,-77.129C-33.409,-76.467 -33.132,-75.76 -32.535,-75.407C-31.956,-75.068 -31.173,-75.173 -30.705,-75.649C-22.955,-83.528 6.266,-82.46 24.271,-81.727C20.93,-75.76 18.468,-68.576 16.956,-60.382C16.938,-60.333 16.917,-60.23 16.914,-60.171C16.432,-57.528 16.045,-54.82 15.768,-52.119C14.173,-36.647 15.982,-23.221 16.061,-22.653C16.13,-22.172 16.429,-21.752 16.861,-21.53C17.285,-21.313 17.814,-21.314 18.24,-21.534C29.223,-27.275 30.568,-38.977 30.971,-53.714C37.757,-49.314 41.861,-42.899 43.174,-34.634C47.639,-6.528 21.398,12.891 21.133,13.085C20.472,13.565 20.314,14.471 20.776,15.145C21.056,15.555 21.52,15.799 22.015,15.799C22.302,15.799 22.582,15.716 22.825,15.56C36.854,6.543 51.244,-3.68 59.525,-20.635C63.491,-28.754 62.711,-42.602 57.749,-52.161" style="fill:rgb(35,31,32);fill-rule:nonzero;"/>
                    </g>
                </g>
                <g id="Layer-2" serif:id="Layer 2">
                </g>
                <g id="Layer-3" serif:id="Layer 3">
                </g>
                <g id="Layer-4" serif:id="Layer 4">
                </g>
                <g id="Layer-5" serif:id="Layer 5">
                </g>
                <g id="Layer-6" serif:id="Layer 6">
                </g>
            </g>
        </g>
    </g>
</svg>
