<svg xmlns="http://www.w3.org/2000/svg" width="367.68" height="218.162" viewBox="0 0 367.68 218.162">
  <g id="Group_1816" data-name="Group 1816" transform="translate(-246.51 319.938)">
    <path id="Path_14905" data-name="Path 14905" d="M281.164-183.878l-18.07-9.856s13.2-28.308,35.031-11.155c18.255,14.346-8.278,48-37.8,30.129-24.265-14.686-12.221-55.284,21.532-56.157s71.325,3.928,78.89-29.824c0,0-18.746,127.06-52.7,150.867-32.3,22.644-48.466-14.866-28.224-29.679,14.328-10.486,22.113,7.275,22.113,7.275l-12.8,11.638" fill="none" stroke="#092f19" stroke-linecap="round" stroke-linejoin="round" stroke-width="2"/>
    <path id="Path_14906" data-name="Path 14906" d="M321.738-125.877c25.687-49.281,44.9-70.579,47.807-87.041l4.7,75.81s11.188-101.374,39.7-130.471" fill="none" stroke="#092f19" stroke-linecap="round" stroke-linejoin="round" stroke-width="2"/>
    <path id="Path_14907" data-name="Path 14907" d="M384.564-151.191s11.351-7.822,20-33.531c7.846-23.31,2.606-9.975.752,7.775-.874,8.371-3.88,28.246,15.033,7.425,17.769-19.561,30.66-56.631,35.581-81.766,8.938-45.652-21.921-2.218-24.649,39.967-.994,15.389-.457,36.852,6.236,43.835" fill="none" stroke="#092f19" stroke-linecap="round" stroke-linejoin="round" stroke-width="2"/>
    <path id="Path_14908" data-name="Path 14908" d="M442.467-170.977s22.4-17.419,43.063-102.13c0,0-30.26,110.277,1.746,78.27" fill="none" stroke="#092f19" stroke-linecap="round" stroke-linejoin="round" stroke-width="2"/>
    <line id="Line_587" data-name="Line 587" y1="24.732" x2="72.451" transform="translate(463.126 -273.107)" fill="none" stroke="#092f19" stroke-linecap="round" stroke-linejoin="round" stroke-width="2"/>
    <circle id="Ellipse_47" data-name="Ellipse 47" cx="3.104" cy="3.104" r="3.104" transform="translate(410.848 -223.47)" fill="#092f19"/>
    <path id="Path_14909" data-name="Path 14909" d="M516.436-232.6c-.7-13.975-19.826-14.026-22.967-.874-4.683,19.608,22.1,17.933,20.955,10.363-1.46-9.654-23.74-2.109-22.157,13.538,1.49,14.731,18.388,20.092,38.1-8.2" fill="none" stroke="#092f19" stroke-linecap="round" stroke-linejoin="round" stroke-width="2"/>
    <path id="Path_14910" data-name="Path 14910" d="M562.107-249.769s-18.073-17.81-26.41,10.538c-6.054,20.586,11.876,27.977,22.06,19.393s12.823-30.141,24.462-99.1c0,0-10.686,62.1-4.332,94.833" fill="none" stroke="#092f19" stroke-linecap="round" stroke-linejoin="round" stroke-width="2"/>
    <line id="Line_588" data-name="Line 588" x2="14.08" y2="16.262" transform="translate(450.483 -161.617)" fill="none" stroke="#092f19" stroke-linecap="round" stroke-linejoin="round" stroke-width="2"/>
    <line id="Line_589" data-name="Line 589" y1="29.197" x2="17.487" transform="translate(457.645 -162.173)" fill="none" stroke="#092f19" stroke-linecap="round" stroke-linejoin="round" stroke-width="2"/>
    <path id="Path_14911" data-name="Path 14911" d="M476.008-132.976l16.178-29.2,15.652,29.185" fill="none" stroke="#092f19" stroke-linecap="round" stroke-linejoin="round" stroke-width="2"/>
    <line id="Line_590" data-name="Line 590" x2="19.87" transform="translate(482.251 -143.262)" fill="none" stroke="#092f19" stroke-linecap="round" stroke-linejoin="round" stroke-width="2"/>
    <path id="Path_14912" data-name="Path 14912" d="M517.35-132.976v-28.867s17.458-2.88,17.461,6.821c0,12.058-14.842,9.381-14.842,9.381L534.6-132.976" fill="none" stroke="#092f19" stroke-linecap="round" stroke-linejoin="round" stroke-width="2"/>
    <path id="Path_14913" data-name="Path 14913" d="M546.747-133.265v-28.743s25.3-3.441,25.314,14.43C572.072-130.4,546.747-133.265,546.747-133.265Z" fill="none" stroke="#092f19" stroke-linecap="round" stroke-linejoin="round" stroke-width="2"/>
    <path id="Path_14914" data-name="Path 14914" d="M576.236-132.976s30.117,2.043,21.97-7.772-22.488-16.528-7.357-19.2,22.34-1.331,22.34-1.331" fill="none" stroke="#092f19" stroke-linecap="round" stroke-linejoin="round" stroke-width="2"/>
  </g>
</svg>
