<svg xmlns="http://www.w3.org/2000/svg" viewBox="0 0 122.159 110.814">
  <g id="Group_1883" data-name="Group 1883" transform="translate(-2105.91 -826.704)">
    <g id="Group_1817" data-name="Group 1817" transform="translate(2105.91 826.704)">
      <path id="Path_14915" data-name="Path 14915" d="M2136.079,923.575c3.424,4.893,12.353,9.477,14.9,3.158s2.513-8.434,10.111-13.42a77.2,77.2,0,0,0,3.711,9.142c3.475,7.6,7.526,9.732,12.9,7.6,10.758-4.268,15.941,7.794,23.829,6.448s6.712-9.66,7.008-17.737-2.78-11.088-1.578-10.188,6.681.067,7.264-1.971.523-6.542,2.208-6.214,4.686-1.15,6.7-2.782,4.917-5.548,3.764-9.346c-3.831-12.623-19.3-13.886-21.979-16s2.819-11.862,3.621-17.7,6.228-12.451-8.317-12.451-15.467,4.226-17.55,3.79-1.611-.466-5.2-7.893-8.234-12.13-12.672-10.421-7.635,2.373-5.807,9.947c0,0-8.7-5.789-18.608-4.77s-7.77,13.35-5.1,12.979c0,0-5.927.473-9.789,4.578s1.627,5.239,3.084,7.459c0,0-14.275,3.118-15.149,9.588s3.931,7.129,3.931,7.129-14.272,6.376-10.195,12.18,10.093,3.205,11.6,2.611c0,0-9.274,16.258-6.793,23.877,4.521,13.885,21.1-4.586,21.1-4.586S2132.655,918.68,2136.079,923.575Z" transform="translate(-2105.72 -826.514)" fill="#283a97"/>
      <path id="Path_14916" data-name="Path 14916" d="M2200.465,937.517c-3.076,0-5.721-1.748-8.5-3.586-3.95-2.61-8.036-5.309-13.8-3.02-5.881,2.333-10.272-.2-13.822-7.968-1.99-4.352-3-7.03-3.446-8.319-5.706,3.868-6.506,5.949-8.169,10.292-.268.7-.556,1.45-.888,2.273a5.231,5.231,0,0,1-4.406,3.492c-4.135.469-9.307-3.012-11.751-6.505h0c-2.655-3.794-3.095-10.394-3.144-13.6-2.944,2.963-10.364,9.7-15.9,8.531-2.387-.506-4.12-2.366-5.15-5.532-2.1-6.454,3.655-18.423,5.96-22.81-4.541,1.307-8.124.14-10.671-3.487a4.375,4.375,0,0,1-.691-3.839c1.055-3.83,6.866-7.231,9.672-8.677-1.528-.866-3.444-2.853-2.844-7.3.783-5.793,10.93-8.959,14.5-9.9-.309-.257-.662-.514-1.026-.777-1.222-.883-2.607-1.885-2.752-3.416a4.412,4.412,0,0,1,1.536-3.353,16.538,16.538,0,0,1,8.436-4.509,9.683,9.683,0,0,1-.287-8.359c.865-1.993,2.813-4.463,7.188-4.912,7.786-.8,14.741,2.426,17.648,4.034-1.044-6.289,2-7.438,5.782-8.864l.8-.3c4.484-1.726,9.432,2.2,13.578,10.777.738,1.528,1.306,2.743,1.759,3.714,1.639,3.516,1.639,3.516,2.944,3.79.354.072.718-.122,1.509-.576,1.962-1.128,5.615-3.228,15.894-3.228,5.309,0,8.434.863,9.832,2.714,1.484,1.967.727,4.62,0,7.188a25.492,25.492,0,0,0-.8,3.366,44.272,44.272,0,0,1-2.252,7.791c-1.292,3.677-2.9,8.252-1.635,9.251a16.489,16.489,0,0,0,3.765,1.486c5.785,1.877,15.467,5.022,18.456,14.869,1.227,4.048-1.718,8.266-4,10.114-2.15,1.741-5.346,3.306-7.289,2.929-.518.333-.794,2.25-.958,3.4a19.157,19.157,0,0,1-.423,2.312c-.35,1.218-1.743,1.918-2.848,2.29a10.484,10.484,0,0,1-4.147.515,22.783,22.783,0,0,1,1.336,9.181c-.041,1.115-.053,2.234-.066,3.34-.078,6.795-.156,13.821-7.541,15.08A8.067,8.067,0,0,1,2200.465,937.517Zm-18.036-8.911c4.082,0,7.35,2.16,10.328,4.127,2.943,1.945,5.724,3.78,8.849,3.25,6.2-1.057,6.268-6.906,6.345-13.679.012-1.117.026-2.248.067-3.376a20.415,20.415,0,0,0-1.62-9.523c-.21-.481-.427-.977.044-1.35a.9.9,0,0,1,1.148.137c.416.313,2.414.339,4.216-.269,1.071-.36,1.79-.855,1.924-1.324a17.79,17.79,0,0,0,.383-2.122c.272-1.888.529-3.671,1.489-4.354a1.485,1.485,0,0,1,1.167-.249c1.264.247,4.012-.935,6.11-2.634,1.979-1.6,4.551-5.21,3.529-8.578-2.771-9.13-12.006-12.129-17.524-13.92a15.756,15.756,0,0,1-4.212-1.724c-2.074-1.635-.571-5.909,1.169-10.858a43.574,43.574,0,0,0,2.186-7.51,26.2,26.2,0,0,1,.839-3.564c.665-2.331,1.291-4.532.239-5.928-1.088-1.441-3.929-2.142-8.684-2.142-9.9,0-13.331,1.975-15.177,3.036a3.488,3.488,0,0,1-2.52.737c-2.009-.42-2.193-.816-3.953-4.588-.45-.966-1.014-2.176-1.749-3.7-3.726-7.7-8.13-11.464-11.766-10.061l-.809.306c-3.95,1.49-6.125,2.311-4.56,8.8a.718.718,0,0,1-1.1.767c-.084-.056-8.614-5.63-18.136-4.653-3.684.379-5.3,2.414-6.015,4.055-1.207,2.782-.606,5.989.269,7.142.165.217.338.353.453.357l.064-.007a.719.719,0,0,1,.156,1.428c-.034.005-.068.01-.106.012-.643.068-5.85.726-9.258,4.347a3.2,3.2,0,0,0-1.151,2.233c.084.882,1.141,1.647,2.164,2.387a8.431,8.431,0,0,1,2.149,1.953.72.72,0,0,1-.448,1.1c-.139.03-13.794,3.084-14.59,8.982-.762,5.645,3.153,6.3,3.319,6.322a.719.719,0,0,1,.192,1.368c-.091.041-9.187,4.154-10.379,8.482a2.966,2.966,0,0,0,.481,2.629c3.64,5.182,8.888,3.1,10.613,2.41l.136-.054a.718.718,0,0,1,.887,1.025c-.09.16-9.088,16.069-6.734,23.3.859,2.641,2.232,4.178,4.081,4.57,6.11,1.285,15.7-9.307,15.8-9.413a.718.718,0,0,1,1.253.51c-.005.1-.374,9.92,2.87,14.556,2.172,3.1,6.973,6.295,10.41,5.9a3.815,3.815,0,0,0,3.235-2.6c.33-.816.616-1.56.881-2.251,1.8-4.684,2.7-7.036,9.5-11.5a.719.719,0,0,1,1.085.4,78.351,78.351,0,0,0,3.674,9.043c3.251,7.11,6.836,9.274,11.986,7.23A12.9,12.9,0,0,1,2182.429,928.606Z" transform="translate(-2105.91 -826.703)"/>
    </g>
    <g id="Group_1818" data-name="Group 1818" transform="translate(2113.356 837.227)">
      <path id="Path_14917" data-name="Path 14917" d="M2140.4,917.332s7.294,4.314,9.53-1.227,7.371-26.054,14.037-30.427c0,0,11.482,7.863,7.824,21.1s-1.093,15.177,3.949,14.592,8.059-7.14,9.106-13.955,4.015-.19,3.872,6.59-.31,15.782,6.607,14.6,5.888-8.474,6.148-15.558-1.337-11.986-.284-11.2,4.76,2.32,5.271.533-.787-10.919.692-10.633,5.354,4.174,7.121,2.742,5.345-5.38,3.3-8.2-25.5-13.043-21.961-15.092,6.187-7.857,3.807-13.65c-2.925-7.123-17.158-6.379-18.985-6.762s-3.062-2.063-6.213-8.578-4.692-8.234-8.583-6.735-6.2,3.415-4.6,10.057c0,0-10.654-8.815-19.345-7.92s-2.519,12.661-.175,12.335c0,0-5.19-.5-8.577,3.1s-2.876,4.56-1.6,6.507c0,0-12.52,2.735-13.287,8.41s3.447,6.254,3.447,6.254-12.517,5.592-8.94,10.682,8.85,2.811,10.174,2.29c0,0-9.153,14.681-5.959,20.941s9.823.347,10.405-.72,3.776-8.747,3.776-8.747-1.15,6.474,3.321,5.99a31.977,31.977,0,0,0,6.615-1.249S2137.194,913.628,2140.4,917.332Z" transform="translate(-2111.198 -834.256)" fill="#40c4e0"/>
      <path id="Path_14918" data-name="Path 14918" d="M2194.344,929.617a4.959,4.959,0,0,1-3.346-1.174c-3.054-2.633-2.918-9.084-2.81-14.265.1-4.51-1.155-8.066-1.81-8.661a5.565,5.565,0,0,0-.632,2.2c-1.017,6.61-4.106,13.905-9.734,14.56-1.744.2-3.92.235-5.261-1.329-1.766-2.061-1.6-6.431.537-14.166,3.1-11.211-5.2-18.5-7.142-20.02-4.789,3.685-8.922,16.429-11.417,24.128-.768,2.368-1.431,4.413-1.941,5.677a4.885,4.885,0,0,1-3,2.988c-3.257,1.1-7.392-1.306-7.566-1.41a.714.714,0,0,1-.178-.148c-2.754-3.183-.968-10.372-.065-13.337a42.142,42.142,0,0,1-5.434.907,3.424,3.424,0,0,1-3.038-.988,4.546,4.546,0,0,1-1.044-2.229c-.954,2.258-2.119,4.976-2.46,5.6-.544.995-3.9,3.991-7.086,3.928-1.354-.019-3.248-.594-4.591-3.224-2.712-5.315,2.674-15.863,5-19.973-3.882,1.026-6.961-.034-9.166-3.172a3.932,3.932,0,0,1-.62-3.442c.918-3.326,5.867-6.278,8.388-7.591-1.338-.813-2.914-2.592-2.4-6.413.7-5.184,9.817-7.982,12.872-8.778-1.026-1.869-.848-3.292,2.2-6.534a11.1,11.1,0,0,1,6.8-3.253c-.113-.132-.22-.266-.321-.4-1.82-2.4-3.13-6.378-1.975-9.043.514-1.185,1.746-2.661,4.7-2.965,7-.722,15.039,4.487,18.346,6.905-.787-5.394,1.51-7.495,5.414-9,4.63-1.781,6.444.8,9.49,7.094,2.953,6.106,4.18,7.866,5.713,8.188.256.053.964.087,1.783.126,4.523.22,15.117.734,17.718,7.065,2.49,6.061-.187,12.26-4.1,14.537.432,1.416,7.946,5.525,12.468,8,5.456,2.984,8.842,4.873,9.7,6.057,2.312,3.186-1.232,7.4-3.428,9.178-1.576,1.276-3.924-.269-5.809-1.51a15.329,15.329,0,0,0-1.626-.987,29.085,29.085,0,0,0-.067,5.4,20.636,20.636,0,0,1-.075,4.627,1.754,1.754,0,0,1-1.18,1.218c-1.266.426-3.2-.26-4.389-.875.035.382.09.847.144,1.3a55.478,55.478,0,0,1,.465,8.846c-.036.977-.046,1.959-.057,2.928-.068,6-.139,12.2-6.688,13.313A7.73,7.73,0,0,1,2194.344,929.617Zm-8.011-25.6c.038,0,.078,0,.117.005,2.1.182,3.263,6.054,3.177,10.183-.1,4.623-.232,10.956,2.309,13.147a3.989,3.989,0,0,0,3.458.733c5.368-.916,5.425-6.012,5.491-11.912.012-.981.023-1.975.06-2.964a54.323,54.323,0,0,0-.457-8.626c-.253-2.149-.337-2.874.29-3.235a.9.9,0,0,1,1.031.117c.76.568,2.977,1.471,3.893,1.161a.333.333,0,0,0,.256-.251,23.245,23.245,0,0,0,.019-4.173c-.168-4.163-.16-6.058.624-6.734a1.031,1.031,0,0,1,.878-.234,8.245,8.245,0,0,1,2.42,1.294c1.335.879,3.35,2.212,4.112,1.594,1.374-1.113,4.9-4.828,3.171-7.216-.712-.983-5.236-3.457-9.228-5.64-8.977-4.91-13.209-7.428-13.232-9.314a1.318,1.318,0,0,1,.719-1.182c3.4-1.967,5.7-7.4,3.5-12.754-2.254-5.486-12.208-5.969-16.458-6.175a16.76,16.76,0,0,1-2.009-.156c-2.126-.446-3.443-2.206-6.713-8.97-3.2-6.62-4.421-7.632-7.679-6.378-3.42,1.317-5.72,2.75-4.159,9.219a.719.719,0,0,1-1.157.722c-.1-.086-10.526-8.612-18.812-7.759-2.748.283-4.037,1.755-3.83,4.375.258,3.261,2.547,6.223,3.357,6.509.163.008.265.016.292.019a.719.719,0,0,1,.03,1.427,1.462,1.462,0,0,1-.474-.011c-1.116-.031-5.035.083-7.678,2.891-3.069,3.262-2.648,3.905-1.521,5.622a.719.719,0,0,1-.447,1.1c-3.347.733-12.156,3.561-12.728,7.8-.663,4.907,2.69,5.425,2.833,5.445a.718.718,0,0,1,.2,1.367c-2.228,1-8.2,4.265-9.056,7.382a2.515,2.515,0,0,0,.411,2.232c3.152,4.486,7.7,2.678,9.2,2.082l.12-.048a.72.72,0,0,1,.874,1.049c-.09.143-8.9,14.407-5.929,20.234.828,1.623,1.918,2.421,3.332,2.44,2.627.068,5.516-2.652,5.8-3.179.462-.847,2.858-6.552,3.743-8.677a.718.718,0,0,1,1.37.4c-.157.9-.341,3.495.706,4.612a2.051,2.051,0,0,0,1.832.54,32.088,32.088,0,0,0,6.45-1.212.718.718,0,0,1,.916.922c-.976,2.7-2.982,10.271-.7,13.118.617.34,3.892,2.039,6.274,1.227a3.463,3.463,0,0,0,2.121-2.163c.492-1.219,1.148-3.242,1.908-5.584,2.795-8.619,7.018-21.643,12.4-25.175a.719.719,0,0,1,.8.008c.118.082,11.861,8.309,8.111,21.884-1.942,7.031-2.216,11.234-.832,12.848.7.82,1.936,1.079,4.006.839,4.823-.563,7.541-7.265,8.476-13.352C2184.472,906.532,2184.858,904.018,2186.333,904.018Z" transform="translate(-2111.388 -834.445)"/>
    </g>
    <g id="Group_1819" data-name="Group 1819" transform="translate(2128.583 847.905)">
      <path id="Path_14919" data-name="Path 14919" d="M2140.407,904.777c3.172,3.113,8.564,2.769,12.331-.36,4.972-4.131,1.667-12.842,7.128-16.425,0,0,1.7.681-.177,11.778-1.022,6.053.028,8.531,3.854,10.164,2.121.905,4.925,1.923,8.589-2.379,1.706-2,1.828,10.207,7.5,9.24s6.771-12.208,6.982-18.013,2.39-6.917,4.11-7.634c1.691-.7,6.969-1.112,7.962-3.786.823-2.214.23-7.911-12.073-19.5-1.785-1.681,4.316-2.459,4.5-6.694.39-9.174-15.919-7.874-20.027-8.978-1.478-.4-2.224-6.28-5.646-8.172-2.99-1.653-11.867-2.327-10.554,3.117,0,0-3.833-3.292-10.955-2.559s-5.982,8.986-4.062,8.718c0,0-3.844-.563-5.149.695-1.488,1.434-1.008,4.267.038,5.864,0,0-7.384.224-8.013,4.874s2.114,6.344,2.114,6.344-7.232,3.159-5.452,10.733c1.412,6.007,6.009,3.871,6.009,3.871s-1.821,11.1,2.15,13.55c4.458,2.75,7.646-2,7.646-2S2137.233,901.665,2140.407,904.777Z" transform="translate(-2122.401 -842.11)" fill="#ebb6d4"/>
      <path id="Path_14920" data-name="Path 14920" d="M2179.181,917.761c-3.545,0-4.987-4.559-5.872-7.356-.213-.676-.466-1.475-.672-1.923-3.708,4.158-6.682,3.374-9.186,2.3-4.22-1.8-5.341-4.666-4.282-10.945,1.173-6.95.911-9.622.658-10.589-2,1.726-2.417,4.458-2.852,7.337-.477,3.144-.969,6.394-3.588,8.57-4.2,3.493-9.919,3.632-13.294.321a6.877,6.877,0,0,1-2-5.732,5.731,5.731,0,0,1-6.724.277c-3.615-2.228-3.023-10.106-2.642-13.162a4.731,4.731,0,0,1-2.906-.347c-1.431-.7-2.418-2.163-2.935-4.36-1.486-6.318,2.909-9.807,4.919-11.04a7.5,7.5,0,0,1-1.593-6.3c.548-4.059,5.353-5.126,7.585-5.4-.816-1.921-.833-4.374.6-5.758a5.63,5.63,0,0,1,3.816-1.024,6.749,6.749,0,0,1,.223-4.808,6.462,6.462,0,0,1,5.6-3.779,17,17,0,0,1,10.194,1.857,3.369,3.369,0,0,1,1.355-2.414c2.494-1.9,7.931-1.268,10.381.087,2.214,1.223,3.344,3.8,4.252,5.86a7.3,7.3,0,0,0,1.238,2.247,29.382,29.382,0,0,0,4.131.5c6.266.521,16.755,1.389,16.423,9.2-.112,2.653-2.225,4.123-3.623,5.094a6.032,6.032,0,0,0-1.182.954.751.751,0,0,0,.086.091c12.751,12.016,13.151,17.861,12.254,20.276-.87,2.339-4.162,3.126-6.565,3.7a14.345,14.345,0,0,0-1.8.5c-1.463.609-3.465,1.442-3.669,7-.292,7.988-1.844,17.717-7.579,18.7A4.529,4.529,0,0,1,2179.181,917.761Zm-6.493-10.956a.909.909,0,0,1,.2.02c.854.173,1.188,1.229,1.794,3.145,1.134,3.582,2.372,6.756,5.02,6.307,5.222-.892,6.2-12.418,6.386-17.332.217-5.974,2.464-7.4,4.552-8.271a15.05,15.05,0,0,1,2.013-.568c1.971-.47,4.949-1.183,5.551-2.8.487-1.307,1.064-6.523-11.892-18.729a1.51,1.51,0,0,1-.549-1.226c.063-.828.835-1.365,1.812-2.046,1.3-.907,2.925-2.035,3.008-3.976.273-6.433-8.982-7.2-15.105-7.708a29.1,29.1,0,0,1-4.392-.546c-.945-.254-1.461-1.429-2.176-3.054-.82-1.868-1.84-4.192-3.631-5.182-2.031-1.123-6.888-1.669-8.813-.2a2.221,2.221,0,0,0-.695,2.52.718.718,0,0,1-1.166.714c-.036-.03-3.718-3.079-10.414-2.39-3.961.408-4.7,3.269-4.835,4.48a3.688,3.688,0,0,0,.571,2.781l.232.031a.719.719,0,0,1-.005,1.423,1.372,1.372,0,0,1-.606-.052c-1.386-.145-3.45-.114-4.143.552-1.225,1.181-.693,3.677.143,4.952a.719.719,0,0,1-.579,1.112c-.068,0-6.786.264-7.324,4.253-.552,4.087,1.69,5.578,1.785,5.64a.721.721,0,0,1-.094,1.266c-.273.121-6.66,3.026-5.041,9.91.413,1.756,1.14,2.9,2.164,3.4a3.727,3.727,0,0,0,2.842-.011.719.719,0,0,1,1.013.768c-.485,2.956-1.1,11.022,1.817,12.822,3.823,2.357,6.558-1.624,6.671-1.794a.719.719,0,0,1,1.255.692c-.071.163-1.724,4.038,1.047,6.754h0c2.8,2.746,7.794,2.572,11.37-.4,2.2-1.827,2.629-4.67,3.084-7.681.5-3.327,1.023-6.769,4.108-8.792a.72.72,0,0,1,.662-.067c1.44.579,1.533,5.04.263,12.565-1.053,6.244.328,8.06,3.428,9.384,1.826.779,4.325,1.849,7.759-2.184A1.189,1.189,0,0,1,2172.688,906.806Zm14.5-39.4Z" transform="translate(-2122.591 -842.301)"/>
    </g>
    <g id="Group_1820" data-name="Group 1820" transform="translate(2133.049 851.603)">
      <path id="Path_14921" data-name="Path 14921" d="M2142.835,901.095c2.187,1.9,5.034,2.977,6.576-.848s5.731-16.024,10.33-19.042c0,0,5.438,5.322,2.916,14.457s-.437,9.8,3.043,9.392,6.785-4.689,7.509-9.392,2.119-.171,2.02,4.507-1.211,9.512,3.564,8.7,3.114-4.562,3.294-9.451-.729-9.378,0-8.832,3.644-.473,4-1.706-1.192-6.03-.171-5.833,5.285,3.606,6.505,2.618.554-4.432-.856-6.376-5.55-8.864-9.088-9.473c0,0-.886-3.246-2.508-4.525s-7.047-1.872-7.047-1.872,11.271.481,11.8-2.3c.662-3.507.5-4.189-6.6-5.949-8.546-2.12-9.333,2.651-10.594,2.385s.915-3.019-1.818-7.2c-2.107-3.22-3.14-5.281-5.959-4.71-2.112.428-3.217,2.5-2.112,7.083,0,0-6.929-5.218-12.927-4.6s-.647,8.014.971,7.789c0,0-4.653-.847-6.991,1.638s-.882,4.048,0,5.392c0,0-7.067.329-7.6,4.245s1.759,4.645,1.759,4.645-8.459,3.589-5.99,7.1,6.49,1.411,7.4,1.051c0,0-5.95,13.671-1.278,14.974,4.573,1.276,8.383-8.578,8.383-8.578S2140.647,899.2,2142.835,901.095Z" transform="translate(-2125.686 -844.831)" fill="#efea43"/>
      <path id="Path_14922" data-name="Path 14922" d="M2178,909.867a3.216,3.216,0,0,1-2.233-.756c-1.444-1.287-1.3-3.9-1.154-6.659.037-.692.076-1.4.09-2.107a19.681,19.681,0,0,0-.487-4.968c-.034.164-.069.359-.1.584-.794,5.168-4.369,9.56-8.138,10-1.567.183-3.148.194-4.117-.937-1.212-1.415-1.123-4.215.3-9.361,2-7.229-1.15-11.884-2.322-13.3-3.646,2.97-7.133,12.044-8.849,16.507-.278.724-.519,1.35-.716,1.839a4.347,4.347,0,0,1-2.857,2.929c-1.42.343-3.1-.283-4.857-1.806-1.689-1.467-1.9-7.669-1.836-11.816-1.628,2.952-4.435,6.755-7.738,5.835a2.856,2.856,0,0,1-1.839-1.585c-1.461-3.073.81-9.734,2.018-12.826-2.935.9-5.184.264-6.7-1.893a2.963,2.963,0,0,1-.462-2.589c.652-2.281,3.855-4.168,5.629-5.058-.7-.753-1.393-2.14-1.06-4.609.461-3.4,4.855-4.437,7.05-4.742-.779-1.267-1.405-3.015.734-5.29a7.37,7.37,0,0,1,5.043-1.989c-.141-.166-.262-.318-.355-.44-1.139-1.5-2.1-3.683-1.39-5.323.325-.75,1.139-1.687,3.174-1.9,4.573-.47,9.556,2.214,11.967,3.743a6.845,6.845,0,0,1,.617-4.623,3.544,3.544,0,0,1,2.385-1.592c3.057-.623,4.373,1.414,6.188,4.227l.514.794a9.11,9.11,0,0,1,1.533,6.24c-.011.151-.023.319-.029.465.1-.094.213-.2.309-.3,1.25-1.236,3.577-3.534,10.17-1.9,7.063,1.752,7.93,2.576,7.135,6.781-.329,1.743-3.288,2.475-6.336,2.762a5.327,5.327,0,0,1,1.325.707c1.437,1.134,2.32,3.519,2.632,4.487,3.183.93,6.5,5.83,8.32,8.518.313.462.576.852.781,1.135,1.462,2.014,2.411,5.992.727,7.358-1.211.98-3.385-.328-5.487-1.592-.345-.207-.766-.459-1.1-.642.038.527.17,1.312.266,1.889a8.711,8.711,0,0,1,.224,3.2,3.933,3.933,0,0,1-2.6,2.1,4.532,4.532,0,0,1-1.66.269c.011.485.06,1.189.1,1.838a57.948,57.948,0,0,1,.181,6.157c-.041,1.1.015,2.137.069,3.137.173,3.22.335,6.263-3.961,7A6.647,6.647,0,0,1,2178,909.867Zm-3.841-16.719c.03,0,.061,0,.093,0,1.983.173,1.891,7.152,1.889,7.223-.015.722-.054,1.446-.093,2.154-.13,2.409-.253,4.681.676,5.509a2.516,2.516,0,0,0,2.141.31c2.917-.5,2.955-1.956,2.766-5.5-.053-.983-.114-2.1-.071-3.266a57.3,57.3,0,0,0-.178-6.006c-.167-2.4-.216-3.128.4-3.465a.842.842,0,0,1,.924.09,3.4,3.4,0,0,0,1.767-.42,2.1,2.1,0,0,0,1.108-.909,10.853,10.853,0,0,0-.26-2.564c-.336-2.012-.474-3,.068-3.531a.935.935,0,0,1,.848-.245,8.192,8.192,0,0,1,2.074,1.059c.825.5,3.338,2,3.842,1.7.744-.6.354-3.549-.987-5.395-.212-.292-.485-.7-.809-1.173-1.657-2.449-5.108-7.545-7.82-8.013a.716.716,0,0,1-.571-.518c-.23-.841-1.086-3.225-2.26-4.151-1.2-.945-5.228-1.563-6.679-1.721a.719.719,0,0,1,.109-1.433c6.375.271,10.862-.667,11.059-1.711.578-3.06.652-3.453-6.069-5.119-5.805-1.439-7.69.416-8.814,1.526-.529.523-1.026,1.019-1.753.866-1.112-.234-1.031-1.347-.97-2.161a7.724,7.724,0,0,0-1.3-5.349l-.52-.8c-1.847-2.861-2.671-4.007-4.7-3.6a2.125,2.125,0,0,0-1.457.954c-.648,1.017-.681,2.834-.1,5.255a.719.719,0,0,1-1.131.742c-.067-.05-6.768-5.036-12.421-4.46-1.913.2-2.131,1.081-2.13,1.728a6.706,6.706,0,0,0,2.8,4.586c.2.026.331.048.359.053a.719.719,0,0,1-.029,1.419,1.475,1.475,0,0,1-.621-.057c-1.108-.126-4.272-.3-5.945,1.476-1.737,1.846-1.011,2.906-.173,4.135.086.125.17.249.25.37a.72.72,0,0,1-.568,1.113c-1.8.086-6.549.9-6.916,3.622-.435,3.211,1.208,3.843,1.278,3.869a.727.727,0,0,1,.481.658.713.713,0,0,1-.431.684c-1.458.621-5.371,2.667-5.94,4.66a1.514,1.514,0,0,0,.256,1.367c1.722,2.451,4.255,1.776,6.27.913.113-.048.208-.088.283-.118a.719.719,0,0,1,.923.956c-1.188,2.731-3.982,10.42-2.671,13.177a1.4,1.4,0,0,0,.927.818c3.228.907,6.524-5.574,7.519-8.146a.724.724,0,0,1,.822-.443.717.717,0,0,1,.565.744c-.289,5.173-.1,12.975,1.224,14.125h0c1.371,1.189,2.641,1.722,3.579,1.5.753-.182,1.38-.878,1.86-2.07.2-.483.432-1.1.708-1.817,1.987-5.171,5.687-14.8,9.894-17.556a.719.719,0,0,1,.9.087c.235.23,5.713,5.727,3.106,15.161-1.211,4.384-1.409,7.09-.593,8.044.432.5,1.26.631,2.86.444,3.107-.362,6.194-4.3,6.882-8.789C2172.83,894.829,2173.088,893.148,2174.157,893.148Z" transform="translate(-2125.876 -845.022)"/>
    </g>
    <g id="Group_1882" data-name="Group 1882" transform="translate(2137.73 857.265)">
      <g id="Group_1821" data-name="Group 1821" transform="translate(4.211 15.981)">
        <path id="Path_14923" data-name="Path 14923" d="M2133.138,864.271a.718.718,0,0,1-.4-1.316,24.145,24.145,0,0,1,3.489-1.946.718.718,0,0,1,.59,1.31,22.773,22.773,0,0,0-3.281,1.832A.718.718,0,0,1,2133.138,864.271Z" transform="translate(-2132.418 -860.944)"/>
      </g>
      <g id="Group_1822" data-name="Group 1822" transform="translate(9.205 14.753)">
        <path id="Path_14924" data-name="Path 14924" d="M2136.811,862.069a.719.719,0,0,1-.234-1.4,17.766,17.766,0,0,1,2.239-.614.719.719,0,1,1,.287,1.41,16.2,16.2,0,0,0-2.057.564A.745.745,0,0,1,2136.811,862.069Z" transform="translate(-2136.092 -860.041)"/>
      </g>
      <g id="Group_1823" data-name="Group 1823" transform="translate(13.202 14.447)">
        <path id="Path_14925" data-name="Path 14925" d="M2139.752,861.3a.719.719,0,0,1-.056-1.435,14.567,14.567,0,0,1,1.542-.044.718.718,0,0,1-.016,1.437h-.016a13.685,13.685,0,0,0-1.4.039Z" transform="translate(-2139.033 -859.815)"/>
      </g>
      <g id="Group_1824" data-name="Group 1824" transform="translate(16.337 14.585)">
        <path id="Path_14926" data-name="Path 14926" d="M2145.867,862.442a.718.718,0,0,1-.287-.06,13.859,13.859,0,0,0-3.623-1.033.72.72,0,0,1-.612-.813.712.712,0,0,1,.813-.612,15.353,15.353,0,0,1,4,1.141.719.719,0,0,1-.289,1.377Z" transform="translate(-2141.34 -859.917)"/>
      </g>
      <g id="Group_1825" data-name="Group 1825" transform="translate(21.876 16.559)">
        <path id="Path_14927" data-name="Path 14927" d="M2149.72,865.709a.718.718,0,0,1-.552-.257,14.386,14.386,0,0,0-3.4-2.744.719.719,0,0,1,.732-1.237,15.585,15.585,0,0,1,3.775,3.06.719.719,0,0,1-.553,1.178Z" transform="translate(-2145.414 -861.37)"/>
      </g>
      <g id="Group_1826" data-name="Group 1826" transform="translate(4.581 21.2)">
        <path id="Path_14928" data-name="Path 14928" d="M2133.41,867.9a.718.718,0,0,1-.4-1.316,21.441,21.441,0,0,1,3.121-1.734.718.718,0,1,1,.59,1.31,19.993,19.993,0,0,0-2.91,1.619A.72.72,0,0,1,2133.41,867.9Z" transform="translate(-2132.69 -864.784)"/>
      </g>
      <g id="Group_1827" data-name="Group 1827" transform="translate(9.572 19.621)">
        <path id="Path_14929" data-name="Path 14929" d="M2137.081,865.877a.719.719,0,0,1-.222-1.4,20.352,20.352,0,0,1,3.863-.847.719.719,0,0,1,.17,1.429,18.926,18.926,0,0,0-3.589.786A.7.7,0,0,1,2137.081,865.877Z" transform="translate(-2136.362 -863.622)"/>
      </g>
      <g id="Group_1828" data-name="Group 1828" transform="translate(15.545 19.479)">
        <path id="Path_14930" data-name="Path 14930" d="M2146.079,865.4a.715.715,0,0,1-.142-.014,21.2,21.2,0,0,0-4.456-.432h-.006a.719.719,0,0,1-.006-1.438,23.558,23.558,0,0,1,4.75.461.719.719,0,0,1-.141,1.423Z" transform="translate(-2140.757 -863.518)"/>
      </g>
      <g id="Group_1829" data-name="Group 1829" transform="translate(22.833 20.628)">
        <path id="Path_14931" data-name="Path 14931" d="M2150.217,867.208a.711.711,0,0,1-.354-.094,19.23,19.23,0,0,0-3.249-1.348.719.719,0,0,1,.443-1.369,20.208,20.208,0,0,1,3.516,1.468.718.718,0,0,1-.357,1.343Z" transform="translate(-2146.118 -864.363)"/>
      </g>
      <g id="Group_1830" data-name="Group 1830" transform="translate(5.74 27.392)">
        <path id="Path_14932" data-name="Path 14932" d="M2134.261,874.274a.719.719,0,0,1-.631-1.062,20.394,20.394,0,0,1,2.489-3.624.718.718,0,1,1,1.087.939,18.963,18.963,0,0,0-2.312,3.37A.719.719,0,0,1,2134.261,874.274Z" transform="translate(-2133.543 -869.34)"/>
      </g>
      <g id="Group_1831" data-name="Group 1831" transform="translate(9.851 23.238)">
        <path id="Path_14933" data-name="Path 14933" d="M2137.286,870.15a.718.718,0,0,1-.473-1.259,17.715,17.715,0,0,1,3.768-2.532.719.719,0,0,1,.641,1.287,16.255,16.255,0,0,0-3.462,2.326A.717.717,0,0,1,2137.286,870.15Z" transform="translate(-2136.567 -866.284)"/>
      </g>
      <g id="Group_1832" data-name="Group 1832" transform="translate(15.155 21.452)">
        <path id="Path_14934" data-name="Path 14934" d="M2141.189,867.462a.719.719,0,0,1-.25-1.393,16.321,16.321,0,0,1,5.863-1.1.718.718,0,0,1-.062,1.435,15.222,15.222,0,0,0-5.3,1.009A.737.737,0,0,1,2141.189,867.462Z" transform="translate(-2140.47 -864.969)"/>
      </g>
      <g id="Group_1833" data-name="Group 1833" transform="translate(36.16 43.251)">
        <path id="Path_14935" data-name="Path 14935" d="M2156.641,885.786a.706.706,0,0,1-.345-.088.718.718,0,0,1-.283-.976,9.128,9.128,0,0,0,.792-3.079.719.719,0,1,1,1.427.167,10.288,10.288,0,0,1-.961,3.6A.716.716,0,0,1,2156.641,885.786Z" transform="translate(-2155.923 -881.007)"/>
      </g>
      <g id="Group_1834" data-name="Group 1834" transform="translate(36.807 35.477)">
        <path id="Path_14936" data-name="Path 14936" d="M2157.5,882.283h-.016a.72.72,0,0,1-.7-.734,31.418,31.418,0,0,0-.37-5.433.719.719,0,1,1,1.42-.219,33.122,33.122,0,0,1,.388,5.683A.72.72,0,0,1,2157.5,882.283Z" transform="translate(-2156.399 -875.288)"/>
      </g>
      <g id="Group_1835" data-name="Group 1835" transform="translate(35.199 29.459)">
        <path id="Path_14937" data-name="Path 14937" d="M2157.168,876.323a.719.719,0,0,1-.7-.563,24.536,24.536,0,0,0-1.2-3.911.72.72,0,0,1,1.334-.541,26.118,26.118,0,0,1,1.268,4.14.72.72,0,0,1-.546.858A.774.774,0,0,1,2157.168,876.323Z" transform="translate(-2155.216 -870.86)"/>
      </g>
      <g id="Group_1836" data-name="Group 1836" transform="translate(31.571 24.106)">
        <path id="Path_14938" data-name="Path 14938" d="M2155.941,871.707a.717.717,0,0,1-.628-.37,11.021,11.021,0,0,0-2.507-3.143.719.719,0,0,1,.918-1.106,12.406,12.406,0,0,1,2.845,3.55.719.719,0,0,1-.628,1.068Z" transform="translate(-2152.547 -866.922)"/>
      </g>
      <g id="Group_1837" data-name="Group 1837" transform="translate(25.462 22.503)">
        <path id="Path_14939" data-name="Path 14939" d="M2153.325,867.766a.717.717,0,0,1-.318-.075,6.613,6.613,0,0,0-.855-.352,4.752,4.752,0,0,0-3.13.271.719.719,0,0,1-.5-1.347,6.128,6.128,0,0,1,4.085-.288,7.836,7.836,0,0,1,1.041.429.719.719,0,0,1-.321,1.362Z" transform="translate(-2148.052 -865.743)"/>
      </g>
      <g id="Group_1838" data-name="Group 1838" transform="translate(16.897 24.176)">
        <path id="Path_14940" data-name="Path 14940" d="M2142.471,873.848a.719.719,0,0,1-.542-1.191,29.379,29.379,0,0,1,6.345-5.576.719.719,0,0,1,.758,1.222,27.942,27.942,0,0,0-6.019,5.3A.718.718,0,0,1,2142.471,873.848Z" transform="translate(-2141.752 -866.973)"/>
      </g>
      <g id="Group_1839" data-name="Group 1839" transform="translate(14.587 31.038)">
        <path id="Path_14941" data-name="Path 14941" d="M2140.77,875.048a.719.719,0,0,1-.6-1.116c.351-.531.745-1.079,1.17-1.63a.719.719,0,0,1,1.138.878c-.4.523-.777,1.043-1.109,1.546A.721.721,0,0,1,2140.77,875.048Z" transform="translate(-2140.052 -872.022)"/>
      </g>
      <g id="Group_1840" data-name="Group 1840" transform="translate(12.722 34.45)">
        <path id="Path_14942" data-name="Path 14942" d="M2139.4,878.675a.719.719,0,0,1-.716-.678,6.436,6.436,0,0,1,.867-3.069.719.719,0,0,1,1.285.647,5,5,0,0,0-.718,2.341.719.719,0,0,1-.676.758Z" transform="translate(-2138.679 -874.532)"/>
      </g>
      <g id="Group_1841" data-name="Group 1841" transform="translate(25.794 22.506)">
        <path id="Path_14943" data-name="Path 14943" d="M2149.015,868.783a.719.719,0,0,1-.508-1.226,8.571,8.571,0,0,1,2.373-1.743.718.718,0,1,1,.613,1.3,7.2,7.2,0,0,0-1.968,1.457A.716.716,0,0,1,2149.015,868.783Z" transform="translate(-2148.297 -865.745)"/>
      </g>
      <g id="Group_1842" data-name="Group 1842" transform="translate(22.612 25.586)">
        <path id="Path_14944" data-name="Path 14944" d="M2146.673,872.469a.72.72,0,0,1-.63-1.063,25.318,25.318,0,0,1,1.969-3.109.719.719,0,1,1,1.148.865,23.748,23.748,0,0,0-1.854,2.932A.72.72,0,0,1,2146.673,872.469Z" transform="translate(-2145.956 -868.011)"/>
      </g>
      <g id="Group_1843" data-name="Group 1843" transform="translate(20.472 30.612)">
        <path id="Path_14945" data-name="Path 14945" d="M2145.1,875.738a.717.717,0,0,1-.666-.988c.375-.927.76-1.811,1.145-2.627a.719.719,0,1,1,1.3.612c-.374.792-.748,1.653-1.112,2.555A.721.721,0,0,1,2145.1,875.738Z" transform="translate(-2144.381 -871.708)"/>
      </g>
      <g id="Group_1844" data-name="Group 1844" transform="translate(18.656 35.175)">
        <path id="Path_14946" data-name="Path 14946" d="M2143.764,879.584a.718.718,0,0,1-.684-.939c.348-1.083.707-2.13,1.067-3.109a.718.718,0,1,1,1.348.5c-.352.96-.705,1.987-1.047,3.053A.719.719,0,0,1,2143.764,879.584Z" transform="translate(-2143.045 -875.065)"/>
      </g>
      <g id="Group_1845" data-name="Group 1845" transform="translate(16.776 40.612)">
        <path id="Path_14947" data-name="Path 14947" d="M2142.382,884.92a.77.77,0,0,1-.156-.018.72.72,0,0,1-.546-.858c.016-.075.417-1.864,1.172-4.461a.719.719,0,1,1,1.381.4c-.742,2.55-1.146,4.354-1.148,4.371A.721.721,0,0,1,2142.382,884.92Z" transform="translate(-2141.662 -879.066)"/>
      </g>
      <g id="Group_1846" data-name="Group 1846" transform="translate(26.88 17.059)">
        <path id="Path_14948" data-name="Path 14948" d="M2150.9,865.314a.72.72,0,0,1-.658-.427,21.826,21.826,0,0,0-1.049-2.071.719.719,0,0,1,1.245-.719,23.7,23.7,0,0,1,1.119,2.207.717.717,0,0,1-.656,1.01Z" transform="translate(-2149.096 -861.737)"/>
      </g>
      <g id="Group_1847" data-name="Group 1847" transform="translate(23.691 13.023)">
        <path id="Path_14949" data-name="Path 14949" d="M2149.383,862.312a.718.718,0,0,1-.575-.284,14.588,14.588,0,0,0-1.824-2.009.719.719,0,1,1,.968-1.063,16.11,16.11,0,0,1,2,2.2.719.719,0,0,1-.572,1.153Z" transform="translate(-2146.75 -858.768)"/>
      </g>
      <g id="Group_1848" data-name="Group 1848" transform="translate(18.114 10.029)">
        <path id="Path_14950" data-name="Path 14950" d="M2147.286,859.711a.714.714,0,0,1-.394-.118,11.848,11.848,0,0,0-3.7-1.611.719.719,0,0,1,.343-1.4,13.307,13.307,0,0,1,4.146,1.805.719.719,0,0,1-.4,1.32Z" transform="translate(-2142.646 -856.566)"/>
      </g>
      <g id="Group_1849" data-name="Group 1849" transform="translate(11.068 9.643)">
        <path id="Path_14951" data-name="Path 14951" d="M2138.182,858.25a.719.719,0,0,1-.234-1.4,14.149,14.149,0,0,1,5.4-.508.719.719,0,0,1,.648.783.7.7,0,0,1-.781.648,12.915,12.915,0,0,0-4.8.438A.708.708,0,0,1,2138.182,858.25Z" transform="translate(-2137.462 -856.281)"/>
      </g>
      <g id="Group_1850" data-name="Group 1850" transform="translate(26.544 10.319)">
        <path id="Path_14952" data-name="Path 14952" d="M2151.678,862.651a.718.718,0,0,1-.7-.563,11.517,11.517,0,0,0-1.993-4.17.719.719,0,0,1,1.167-.84,12.956,12.956,0,0,1,2.229,4.7.719.719,0,0,1-.545.858A.78.78,0,0,1,2151.678,862.651Z" transform="translate(-2148.848 -856.779)"/>
      </g>
      <g id="Group_1851" data-name="Group 1851" transform="translate(22.833 6.345)">
        <path id="Path_14953" data-name="Path 14953" d="M2149.485,857.926a.718.718,0,0,1-.545-.249,25.933,25.933,0,0,0-2.575-2.561.719.719,0,1,1,.945-1.085,27.451,27.451,0,0,1,2.719,2.706.719.719,0,0,1-.544,1.188Z" transform="translate(-2146.118 -853.855)"/>
      </g>
      <g id="Group_1852" data-name="Group 1852" transform="translate(18.653 3.197)">
        <path id="Path_14954" data-name="Path 14954" d="M2146.6,855.013a.714.714,0,0,1-.443-.154c-.874-.688-1.812-1.361-2.786-2a.719.719,0,1,1,.788-1.2c1.01.662,1.98,1.359,2.887,2.073a.719.719,0,0,1-.446,1.283Z" transform="translate(-2143.043 -851.539)"/>
      </g>
      <g id="Group_1853" data-name="Group 1853" transform="translate(15.855 1.519)">
        <path id="Path_14955" data-name="Path 14955" d="M2142.745,852.328a.7.7,0,0,1-.363-.1c-.623-.364-1-.563-1.01-.568a.719.719,0,1,1,.663-1.275s.4.212,1.074.6a.719.719,0,0,1-.365,1.339Z" transform="translate(-2140.985 -850.305)"/>
      </g>
      <g id="Group_1854" data-name="Group 1854" transform="translate(42.921 8.087)">
        <path id="Path_14956" data-name="Path 14956" d="M2167.148,857.043a.7.7,0,0,1-.175-.022,13.53,13.53,0,0,0-5.252-.319.718.718,0,1,1-.208-1.422,14.928,14.928,0,0,1,5.809.347.719.719,0,0,1-.174,1.416Z" transform="translate(-2160.897 -855.137)"/>
      </g>
      <g id="Group_1855" data-name="Group 1855" transform="translate(36.796 8.713)">
        <path id="Path_14957" data-name="Path 14957" d="M2157.111,859.164a.719.719,0,0,1-.432-1.294,14.643,14.643,0,0,1,4.241-2.237.719.719,0,0,1,.446,1.367,13.212,13.212,0,0,0-3.824,2.02A.714.714,0,0,1,2157.111,859.164Z" transform="translate(-2156.391 -855.597)"/>
      </g>
      <g id="Group_1856" data-name="Group 1856" transform="translate(32.746 12.205)">
        <path id="Path_14958" data-name="Path 14958" d="M2154.13,862.447a.719.719,0,0,1-.582-1.14,22.008,22.008,0,0,1,2.537-2.94.719.719,0,0,1,1,1.036,20.586,20.586,0,0,0-2.371,2.747A.716.716,0,0,1,2154.13,862.447Z" transform="translate(-2153.411 -858.167)"/>
      </g>
      <g id="Group_1857" data-name="Group 1857" transform="translate(29.668 17.088)">
        <path id="Path_14959" data-name="Path 14959" d="M2151.866,866.78a.718.718,0,0,1-.677-.961,24,24,0,0,1,1.8-3.705.719.719,0,1,1,1.24.729,23.247,23.247,0,0,0-1.691,3.462A.718.718,0,0,1,2151.866,866.78Z" transform="translate(-2151.146 -861.759)"/>
      </g>
      <g id="Group_1858" data-name="Group 1858" transform="translate(31.969 8.979)">
        <path id="Path_14960" data-name="Path 14960" d="M2153.56,861.327a.745.745,0,0,1-.133-.012.718.718,0,0,1-.575-.837,26.937,26.937,0,0,0,.459-3.991.719.719,0,1,1,1.437.05,28.235,28.235,0,0,1-.482,4.2A.717.717,0,0,1,2153.56,861.327Z" transform="translate(-2152.84 -855.793)"/>
      </g>
      <g id="Group_1859" data-name="Group 1859" transform="translate(31.923 3.959)">
        <path id="Path_14961" data-name="Path 14961" d="M2154.009,856.465a.721.721,0,0,1-.718-.669,14,14,0,0,0-.46-2.785.719.719,0,0,1,1.386-.385,15.618,15.618,0,0,1,.509,3.069.72.72,0,0,1-.667.767Z" transform="translate(-2152.806 -852.1)"/>
      </g>
      <g id="Group_1860" data-name="Group 1860" transform="translate(29.672)">
        <path id="Path_14962" data-name="Path 14962" d="M2153.475,852.832a.717.717,0,0,1-.65-.409,5.559,5.559,0,0,0-1.386-1.94.718.718,0,0,1,.847-1.161,6.621,6.621,0,0,1,1.836,2.482.717.717,0,0,1-.647,1.028Z" transform="translate(-2151.15 -849.187)"/>
      </g>
      <g id="Group_1861" data-name="Group 1861" transform="translate(45.138 16.722)">
        <path id="Path_14963" data-name="Path 14963" d="M2165.134,864.075a.711.711,0,0,1-.431-.144,10.327,10.327,0,0,0-1.763-1.074.718.718,0,1,1,.614-1.3,11.668,11.668,0,0,1,2.012,1.223.718.718,0,0,1-.432,1.293Z" transform="translate(-2162.528 -861.49)"/>
      </g>
      <g id="Group_1862" data-name="Group 1862" transform="translate(41.831 15.829)">
        <path id="Path_14964" data-name="Path 14964" d="M2161.892,862.422a.709.709,0,0,1-.141-.014,8.657,8.657,0,0,0-.994-.14.719.719,0,1,1,.117-1.433,10.252,10.252,0,0,1,1.158.163.718.718,0,0,1-.14,1.423Z" transform="translate(-2160.095 -860.833)"/>
      </g>
      <g id="Group_1863" data-name="Group 1863" transform="translate(37.559 15.867)">
        <path id="Path_14965" data-name="Path 14965" d="M2157.672,862.814a.719.719,0,0,1-.226-1.4,12.452,12.452,0,0,1,2.448-.546.719.719,0,0,1,.166,1.428,10.882,10.882,0,0,0-2.164.484A.723.723,0,0,1,2157.672,862.814Z" transform="translate(-2156.952 -860.86)"/>
      </g>
      <g id="Group_1864" data-name="Group 1864" transform="translate(33.398 17.089)">
        <path id="Path_14966" data-name="Path 14966" d="M2154.61,864.71a.719.719,0,0,1-.462-1.27,13.641,13.641,0,0,1,2.579-1.608.719.719,0,1,1,.632,1.291,12.479,12.479,0,0,0-2.288,1.419A.726.726,0,0,1,2154.61,864.71Z" transform="translate(-2153.891 -861.759)"/>
      </g>
      <g id="Group_1865" data-name="Group 1865" transform="translate(54.346 25.992)">
        <path id="Path_14967" data-name="Path 14967" d="M2173.2,873.221a.713.713,0,0,1-.563-.272,32.422,32.422,0,0,0-3.108-3.4.719.719,0,1,1,.987-1.047,33.7,33.7,0,0,1,3.246,3.55.718.718,0,0,1-.115,1.01A.709.709,0,0,1,2173.2,873.221Z" transform="translate(-2169.302 -868.309)"/>
      </g>
      <g id="Group_1866" data-name="Group 1866" transform="translate(50.206 22.795)">
        <path id="Path_14968" data-name="Path 14968" d="M2169.336,869.052a.718.718,0,0,1-.446-.155,23.616,23.616,0,0,0-2.291-1.608.718.718,0,1,1,.751-1.225,24.868,24.868,0,0,1,2.432,1.706.718.718,0,0,1-.447,1.282Z" transform="translate(-2166.256 -865.957)"/>
      </g>
      <g id="Group_1867" data-name="Group 1867" transform="translate(46.343 20.917)">
        <path id="Path_14969" data-name="Path 14969" d="M2166.172,866.884a.709.709,0,0,1-.316-.073,19.757,19.757,0,0,0-1.968-.84.719.719,0,0,1,.492-1.351,21.048,21.048,0,0,1,2.11.9.718.718,0,0,1-.318,1.363Z" transform="translate(-2163.415 -864.576)"/>
      </g>
      <g id="Group_1868" data-name="Group 1868" transform="translate(39.448 19.742)">
        <path id="Path_14970" data-name="Path 14970" d="M2163.946,865.71a.756.756,0,0,1-.173-.021,18.247,18.247,0,0,0-4.7-.538.745.745,0,0,1-.73-.708.719.719,0,0,1,.708-.73,19.779,19.779,0,0,1,5.069.58.719.719,0,0,1-.173,1.416Z" transform="translate(-2158.342 -863.711)"/>
      </g>
      <g id="Group_1869" data-name="Group 1869" transform="translate(33.167 19.912)">
        <path id="Path_14971" data-name="Path 14971" d="M2154.441,866.327a.719.719,0,0,1-.3-1.37,15.892,15.892,0,0,1,4.23-1.113.719.719,0,1,1,.192,1.425,14.774,14.774,0,0,0-3.816.992A.725.725,0,0,1,2154.441,866.327Z" transform="translate(-2153.721 -863.836)"/>
      </g>
      <g id="Group_1870" data-name="Group 1870" transform="translate(47.762 48.204)">
        <path id="Path_14972" data-name="Path 14972" d="M2165.178,888.668c-.026,0-.052,0-.079,0a.719.719,0,0,1-.636-.792c.093-.859.156-1.71.189-2.531a.738.738,0,0,1,.746-.689.718.718,0,0,1,.69.746c-.034.854-.1,1.737-.2,2.629A.719.719,0,0,1,2165.178,888.668Z" transform="translate(-2164.458 -884.651)"/>
      </g>
      <g id="Group_1871" data-name="Group 1871" transform="translate(47.706 42.596)">
        <path id="Path_14973" data-name="Path 14973" d="M2165.41,885.668a.718.718,0,0,1-.719-.707,30.378,30.378,0,0,0-.267-3.62.719.719,0,0,1,1.426-.193,31.824,31.824,0,0,1,.279,3.791.717.717,0,0,1-.708.729Z" transform="translate(-2164.417 -880.525)"/>
      </g>
      <g id="Group_1872" data-name="Group 1872" transform="translate(45.345 34.678)">
        <path id="Path_14974" data-name="Path 14974" d="M2165.425,882.109a.719.719,0,0,1-.7-.572,24.682,24.682,0,0,0-1.97-5.8.719.719,0,0,1,1.293-.631,26.087,26.087,0,0,1,2.084,6.14.72.72,0,0,1-.556.851A.8.8,0,0,1,2165.425,882.109Z" transform="translate(-2162.68 -874.7)"/>
      </g>
      <g id="Group_1873" data-name="Group 1873" transform="translate(42.534 30.234)">
        <path id="Path_14975" data-name="Path 14975" d="M2163.216,875.595a.721.721,0,0,1-.62-.352,23.363,23.363,0,0,0-1.826-2.645.719.719,0,0,1,1.123-.9,24.742,24.742,0,0,1,1.939,2.808.719.719,0,0,1-.617,1.086Z" transform="translate(-2160.613 -871.43)"/>
      </g>
      <g id="Group_1874" data-name="Group 1874" transform="translate(38.198 25.991)">
        <path id="Path_14976" data-name="Path 14976" d="M2161.221,872.535a.717.717,0,0,1-.525-.227,24.366,24.366,0,0,0-2.992-2.709.719.719,0,0,1,.874-1.142,26.038,26.038,0,0,1,3.168,2.868.719.719,0,0,1-.526,1.21Z" transform="translate(-2157.423 -868.309)"/>
      </g>
      <g id="Group_1875" data-name="Group 1875" transform="translate(32.983 22.953)">
        <path id="Path_14977" data-name="Path 14977" d="M2157.907,869.411a.711.711,0,0,1-.39-.115,19.193,19.193,0,0,0-3.458-1.827.719.719,0,0,1,.489-1.352,20.23,20.23,0,0,1,3.751,1.974.718.718,0,0,1-.393,1.321Z" transform="translate(-2153.586 -866.074)"/>
      </g>
      <g id="Group_1876" data-name="Group 1876" transform="translate(50.784 32.366)">
        <path id="Path_14978" data-name="Path 14978" d="M2167.832,877.245a.72.72,0,0,1-.718-.672,14.791,14.791,0,0,0-.41-2.68.719.719,0,0,1,1.395-.351,16.388,16.388,0,0,1,.451,2.937.719.719,0,0,1-.671.764Z" transform="translate(-2166.682 -872.999)"/>
      </g>
      <g id="Group_1877" data-name="Group 1877" transform="translate(47.662 26.798)">
        <path id="Path_14979" data-name="Path 14979" d="M2167.539,873.891a.719.719,0,0,1-.659-.431,10.793,10.793,0,0,0-2.282-3.329.718.718,0,1,1,1.012-1.019,12.211,12.211,0,0,1,2.585,3.771.719.719,0,0,1-.368.947A.729.729,0,0,1,2167.539,873.891Z" transform="translate(-2164.385 -868.902)"/>
      </g>
      <g id="Group_1878" data-name="Group 1878" transform="translate(42.322 23.577)">
        <path id="Path_14980" data-name="Path 14980" d="M2164.816,869.787a.72.72,0,0,1-.408-.126,14.563,14.563,0,0,0-3.469-1.73.718.718,0,1,1,.473-1.356,15.906,15.906,0,0,1,3.812,1.9.718.718,0,0,1-.408,1.31Z" transform="translate(-2160.456 -866.533)"/>
      </g>
      <g id="Group_1879" data-name="Group 1879" transform="translate(36.345 22.506)">
        <path id="Path_14981" data-name="Path 14981" d="M2160.89,867.712a.781.781,0,0,1-.167-.019,18.4,18.4,0,0,0-3.938-.51h-.007a.719.719,0,0,1-.009-1.438,19.658,19.658,0,0,1,4.286.549.719.719,0,0,1-.164,1.418Z" transform="translate(-2156.059 -865.745)"/>
      </g>
      <g id="Group_1880" data-name="Group 1880" transform="translate(0 24.377)">
        <path id="Path_14982" data-name="Path 14982" d="M2130.039,870.878a.718.718,0,0,1-.523-1.211,26.089,26.089,0,0,1,2.558-2.384.718.718,0,0,1,.905,1.116,24.694,24.694,0,0,0-2.415,2.254A.719.719,0,0,1,2130.039,870.878Z" transform="translate(-2129.32 -867.121)"/>
      </g>
      <g id="Group_1881" data-name="Group 1881" transform="translate(3.173 33.395)">
        <path id="Path_14983" data-name="Path 14983" d="M2132.374,880.759a.786.786,0,0,1-.125-.011.718.718,0,0,1-.583-.833,31.693,31.693,0,0,1,1.53-5.694.719.719,0,1,1,1.346.508,30.235,30.235,0,0,0-1.461,5.434A.719.719,0,0,1,2132.374,880.759Z" transform="translate(-2131.655 -873.756)"/>
      </g>
    </g>
  </g>
</svg>
