<svg xmlns="http://www.w3.org/2000/svg" viewBox="0 0 104.479 137.085">
  <g id="Group_2012" data-name="Group 2012" transform="translate(-1889.606 -1217.444)">
    <g id="Group_1959" data-name="Group 1959" transform="translate(1889.606 1217.445)">
      <path id="Path_15095" data-name="Path 15095" d="M1892.8,1279.221s-9.44-27.187,5.722-44.839c14.058-16.368,49.542-27.562,69.238.585,6.565,9.382,5.574,25.726,9.189,44.254H1892.8Z" transform="translate(-1889.003 -1216.808)" fill="#efea43"/>
      <path id="Path_15096" data-name="Path 15096" d="M1977.553,1280.8H1893.4a.942.942,0,0,1-.892-.631c-.1-.277-9.441-27.907,5.9-45.764,7.746-9.013,23.068-17.744,39.876-16.9,12.579.625,23.247,6.7,30.851,17.565,4.455,6.361,5.528,15.741,6.771,26.6.658,5.752,1.338,11.7,2.568,18.011a.939.939,0,0,1-.922,1.12Zm-83.463-1.883h82.321c-1.11-5.965-1.753-11.588-2.378-17.033-1.212-10.607-2.261-19.768-6.438-25.738-7.26-10.373-17.427-16.169-29.4-16.765-16.08-.8-31.146,7.866-38.351,16.252C1886.461,1251.207,1892.826,1274.767,1894.09,1278.917Z" transform="translate(-1889.606 -1217.445)"/>
    </g>
    <g id="Group_1960" data-name="Group 1960" transform="translate(1892.46 1346.654)">
      <path id="Path_15097" data-name="Path 15097" d="M1974.989,1259.754h-84.148v5.992h84.148v-5.992" transform="translate(-1889.897 -1258.813)" fill="#cecac5"/>
      <path id="Path_15098" data-name="Path 15098" d="M1975.627,1267.323h-84.149a.943.943,0,0,1-.944-.944v-5.99a.94.94,0,0,1,.944-.941h84.149a.939.939,0,0,1,.941.941v5.99A.942.942,0,0,1,1975.627,1267.323Zm-83.208-1.886h82.264v-4.107h-82.264Z" transform="translate(-1890.534 -1259.448)"/>
    </g>
    <g id="Group_1961" data-name="Group 1961" transform="translate(1919.344 1285.386)">
      <rect id="Rectangle_1268" data-name="Rectangle 1268" width="10.842" height="37.27" fill="#40bfb4"/>
    </g>
    <g id="Group_1962" data-name="Group 1962" transform="translate(1919.344 1322.656)">
      <rect id="Rectangle_1269" data-name="Rectangle 1269" width="10.842" height="4.67" fill="#bc067e"/>
    </g>
    <g id="Group_1963" data-name="Group 1963" transform="translate(1892.46 1278.917)">
      <rect id="Rectangle_1270" data-name="Rectangle 1270" width="84.149" height="67.736" transform="translate(0.943 0.942)" fill="#e8e5e2"/>
      <path id="Path_15099" data-name="Path 15099" d="M1975.627,1307.048h-84.149a.942.942,0,0,1-.944-.941v-67.737a.942.942,0,0,1,.944-.941h84.149a.941.941,0,0,1,.941.941v67.737A.941.941,0,0,1,1975.627,1307.048Zm-83.208-1.883h82.264v-65.854h-82.264Z" transform="translate(-1890.534 -1237.428)"/>
    </g>
    <g id="Group_1964" data-name="Group 1964" transform="translate(1976.609 1346.654)">
      <rect id="Rectangle_1271" data-name="Rectangle 1271" width="7.795" height="5.992" transform="translate(0.943 0.94)" fill="#5c5d60"/>
      <path id="Path_15100" data-name="Path 15100" d="M1926.628,1267.323h-7.795a.942.942,0,0,1-.944-.944v-5.99a.94.94,0,0,1,.944-.941h7.795a.939.939,0,0,1,.941.941v5.99A.942.942,0,0,1,1926.628,1267.323Zm-6.854-1.886h5.909v-4.107h-5.909Z" transform="translate(-1917.889 -1259.448)"/>
    </g>
    <g id="Group_1965" data-name="Group 1965" transform="translate(1976.609 1278.916)">
      <path id="Path_15101" data-name="Path 15101" d="M1918.2,1237.734v67.736h15.589v-38.824Z" transform="translate(-1917.252 -1236.792)" fill="#cecac5"/>
      <path id="Path_15102" data-name="Path 15102" d="M1934.42,1307.048h-15.586a.942.942,0,0,1-.944-.941V1238.37a.942.942,0,0,1,1.771-.446l15.59,28.913a.928.928,0,0,1,.114.446v38.824A.942.942,0,0,1,1934.42,1307.048Zm-14.646-1.883h13.7v-37.646l-13.7-25.418Z" transform="translate(-1917.889 -1237.428)"/>
    </g>
    <g id="Group_1966" data-name="Group 1966" transform="translate(1980.602 1286.395)">
      <path id="Path_15103" data-name="Path 15103" d="M1920.128,1268.132a.941.941,0,0,1-.941-.941V1240.8a.941.941,0,1,1,1.882,0v26.39A.939.939,0,0,1,1920.128,1268.132Z" transform="translate(-1919.187 -1239.859)"/>
    </g>
    <g id="Group_1967" data-name="Group 1967" transform="translate(1984.988 1294.467)">
      <path id="Path_15104" data-name="Path 15104" d="M1921.554,1266.419a.941.941,0,0,1-.941-.941v-22.053a.941.941,0,1,1,1.882,0v22.053A.941.941,0,0,1,1921.554,1266.419Z" transform="translate(-1920.613 -1242.483)"/>
    </g>
    <g id="Group_1968" data-name="Group 1968" transform="translate(1988.843 1301.603)">
      <path id="Path_15105" data-name="Path 15105" d="M1922.807,1266.281a.942.942,0,0,1-.941-.941v-19.6a.941.941,0,0,1,1.883,0v19.6A.94.94,0,0,1,1922.807,1266.281Z" transform="translate(-1921.866 -1244.803)"/>
    </g>
    <g id="Group_1969" data-name="Group 1969" transform="translate(1899.125 1285.386)">
      <path id="Path_15106" data-name="Path 15106" d="M1896.626,1239.531h5.587v37.27H1892.7v-33.989Z" transform="translate(-1892.701 -1239.531)" fill="#fff"/>
    </g>
    <g id="Group_1970" data-name="Group 1970" transform="translate(1908.638 1285.386)">
      <rect id="Rectangle_1272" data-name="Rectangle 1272" width="10.707" height="37.27" fill="#efea43"/>
    </g>
    <g id="Group_1971" data-name="Group 1971" transform="translate(1919.333 1285.386)">
      <rect id="Rectangle_1273" data-name="Rectangle 1273" width="10.707" height="37.27" fill="#283a97"/>
    </g>
    <g id="Group_1972" data-name="Group 1972" transform="translate(1930.138 1285.386)">
      <rect id="Rectangle_1274" data-name="Rectangle 1274" width="10.679" height="37.27" fill="#ebb6d4"/>
    </g>
    <g id="Group_1973" data-name="Group 1973" transform="translate(1940.736 1285.386)">
      <rect id="Rectangle_1275" data-name="Rectangle 1275" width="10.679" height="37.27" fill="#40c4e0"/>
    </g>
    <g id="Group_1974" data-name="Group 1974" transform="translate(1951.415 1285.386)">
      <rect id="Rectangle_1276" data-name="Rectangle 1276" width="10.679" height="37.27" fill="#283a97"/>
    </g>
    <g id="Group_1975" data-name="Group 1975" transform="translate(1960.687 1285.386)">
      <path id="Path_15107" data-name="Path 15107" d="M1912.713,1239.531h6.781l3.9,3.622V1276.8h-10.679Z" transform="translate(-1912.713 -1239.531)" fill="#efea43"/>
    </g>
    <g id="Group_1976" data-name="Group 1976" transform="translate(1897.958 1322.656)">
      <rect id="Rectangle_1277" data-name="Rectangle 1277" width="10.679" height="4.67" fill="#40c4e0"/>
    </g>
    <g id="Group_1977" data-name="Group 1977" transform="translate(1908.638 1322.656)">
      <rect id="Rectangle_1278" data-name="Rectangle 1278" width="10.707" height="4.67"/>
    </g>
    <g id="Group_1978" data-name="Group 1978" transform="translate(1929.197 1322.656)">
      <rect id="Rectangle_1279" data-name="Rectangle 1279" width="11.621" height="4.67"/>
    </g>
    <g id="Group_1979" data-name="Group 1979" transform="translate(1951.415 1322.656)">
      <rect id="Rectangle_1280" data-name="Rectangle 1280" width="10.679" height="4.67"/>
    </g>
    <g id="Group_1980" data-name="Group 1980" transform="translate(1924.766 1327.326)">
      <rect id="Rectangle_1281" data-name="Rectangle 1281" width="13.212" height="13.776" fill="#efea43"/>
    </g>
    <g id="Group_1981" data-name="Group 1981" transform="translate(1936.989 1327.326)">
      <path id="Path_15108" data-name="Path 15108" d="M1905.009,1253.165h34.378V1263.5l-3.108,3.437h-31.27Z" transform="translate(-1905.009 -1253.165)"/>
    </g>
    <g id="Group_1982" data-name="Group 1982" transform="translate(1911.554 1327.326)">
      <rect id="Rectangle_1282" data-name="Rectangle 1282" width="13.212" height="13.776" fill="#fff"/>
    </g>
    <g id="Group_1983" data-name="Group 1983" transform="translate(1898.709 1327.326)">
      <path id="Path_15109" data-name="Path 15109" d="M1892.565,1253.165h13.211v13.776h-9.906l-3.306-3.7Z" transform="translate(-1892.565 -1253.165)" fill="#ebb6d4"/>
    </g>
    <g id="Group_1984" data-name="Group 1984" transform="translate(1960.687 1322.656)">
      <rect id="Rectangle_1283" data-name="Rectangle 1283" width="10.679" height="4.67" fill="#fff"/>
    </g>
    <g id="Group_1985" data-name="Group 1985" transform="translate(1940.736 1322.656)">
      <rect id="Rectangle_1284" data-name="Rectangle 1284" width="10.679" height="4.67" fill="#283a97"/>
    </g>
    <g id="Group_1986" data-name="Group 1986" transform="translate(1919.347 1322.656)">
      <rect id="Rectangle_1285" data-name="Rectangle 1285" width="10.679" height="4.67" fill="#40c4e0"/>
    </g>
    <g id="Group_1987" data-name="Group 1987" transform="translate(1897.594 1284.444)">
      <path id="Path_15110" data-name="Path 15110" d="M1959.522,1297.2h-59.583a7.747,7.747,0,0,1-7.737-7.736v-42.5a7.745,7.745,0,0,1,7.737-7.737h59.583a7.745,7.745,0,0,1,7.737,7.737v42.5A7.747,7.747,0,0,1,1959.522,1297.2Zm-59.583-56.088a5.862,5.862,0,0,0-5.854,5.854v42.5a5.859,5.859,0,0,0,5.854,5.851h59.583a5.859,5.859,0,0,0,5.854-5.851v-42.5a5.862,5.862,0,0,0-5.854-5.854Z" transform="translate(-1892.203 -1239.225)"/>
    </g>
    <g id="Group_1988" data-name="Group 1988" transform="translate(1898.185 1321.715)">
      <line id="Line_611" data-name="Line 611" x2="72.241" transform="translate(0.941 0.941)" fill="#7c7b75"/>
      <path id="Path_15111" data-name="Path 15111" d="M1965.577,1253.224h-72.241a.941.941,0,0,1,0-1.883h72.241a.941.941,0,0,1,0,1.883Z" transform="translate(-1892.395 -1251.341)"/>
    </g>
    <g id="Group_1989" data-name="Group 1989" transform="translate(1898.185 1326.385)">
      <line id="Line_612" data-name="Line 612" x2="72.241" transform="translate(0.941 0.941)" fill="#7c7b75"/>
      <path id="Path_15112" data-name="Path 15112" d="M1965.577,1254.741h-72.241a.941.941,0,1,1,0-1.882h72.241a.941.941,0,1,1,0,1.882Z" transform="translate(-1892.395 -1252.859)"/>
    </g>
    <g id="Group_1990" data-name="Group 1990" transform="translate(1910.613 1326.385)">
      <line id="Line_613" data-name="Line 613" y1="13.776" transform="translate(0.941 0.941)" fill="#7c7b75"/>
      <path id="Path_15113" data-name="Path 15113" d="M1897.376,1268.516a.939.939,0,0,1-.941-.941V1253.8a.941.941,0,0,1,1.883,0v13.775A.939.939,0,0,1,1897.376,1268.516Z" transform="translate(-1896.435 -1252.859)"/>
    </g>
    <g id="Group_1991" data-name="Group 1991" transform="translate(1923.745 1326.385)">
      <line id="Line_614" data-name="Line 614" y1="14.146" transform="translate(0.942 0.941)" fill="#7c7b75"/>
      <path id="Path_15114" data-name="Path 15114" d="M1901.646,1268.889a.941.941,0,0,1-.941-.941V1253.8a.941.941,0,0,1,1.883,0v14.147A.942.942,0,0,1,1901.646,1268.889Z" transform="translate(-1900.704 -1252.859)"/>
    </g>
    <g id="Group_1992" data-name="Group 1992" transform="translate(1907.697 1284.444)">
      <line id="Line_615" data-name="Line 615" y2="37.27" transform="translate(0.941 0.942)" fill="#7c7b75"/>
      <path id="Path_15115" data-name="Path 15115" d="M1896.428,1278.378a.941.941,0,0,1-.941-.941v-37.271a.941.941,0,1,1,1.882,0v37.271A.941.941,0,0,1,1896.428,1278.378Z" transform="translate(-1895.487 -1239.225)"/>
    </g>
    <g id="Group_1993" data-name="Group 1993" transform="translate(1918.401 1284.444)">
      <line id="Line_616" data-name="Line 616" y2="37.27" transform="translate(0.943 0.942)" fill="#7c7b75"/>
      <path id="Path_15116" data-name="Path 15116" d="M1899.911,1278.378a.942.942,0,0,1-.944-.941v-37.271a.943.943,0,0,1,1.885,0v37.271A.941.941,0,0,1,1899.911,1278.378Z" transform="translate(-1898.967 -1239.225)"/>
    </g>
    <g id="Group_1994" data-name="Group 1994" transform="translate(1929.245 1284.444)">
      <line id="Line_617" data-name="Line 617" y2="37.27" transform="translate(0.942 0.942)" fill="#7c7b75"/>
      <path id="Path_15117" data-name="Path 15117" d="M1903.433,1278.378a.941.941,0,0,1-.941-.941v-37.271a.941.941,0,0,1,1.883,0v37.271A.941.941,0,0,1,1903.433,1278.378Z" transform="translate(-1902.492 -1239.225)"/>
    </g>
    <g id="Group_1995" data-name="Group 1995" transform="translate(1939.876 1284.444)">
      <line id="Line_618" data-name="Line 618" y2="37.27" transform="translate(0.941 0.942)" fill="#7c7b75"/>
      <path id="Path_15118" data-name="Path 15118" d="M1906.889,1278.378a.941.941,0,0,1-.941-.941v-37.271a.941.941,0,0,1,1.883,0v37.271A.942.942,0,0,1,1906.889,1278.378Z" transform="translate(-1905.948 -1239.225)"/>
    </g>
    <g id="Group_1996" data-name="Group 1996" transform="translate(1950.473 1284.444)">
      <line id="Line_619" data-name="Line 619" y2="37.27" transform="translate(0.942 0.942)" fill="#7c7b75"/>
      <path id="Path_15119" data-name="Path 15119" d="M1910.334,1278.378a.942.942,0,0,1-.941-.941v-37.271a.941.941,0,0,1,1.883,0v37.271A.941.941,0,0,1,1910.334,1278.378Z" transform="translate(-1909.393 -1239.225)"/>
    </g>
    <g id="Group_1997" data-name="Group 1997" transform="translate(1959.745 1284.444)">
      <line id="Line_620" data-name="Line 620" y2="37.27" transform="translate(0.942 0.942)" fill="#7c7b75"/>
      <path id="Path_15120" data-name="Path 15120" d="M1913.348,1278.378a.941.941,0,0,1-.941-.941v-37.271a.941.941,0,0,1,1.883,0v37.271A.939.939,0,0,1,1913.348,1278.378Z" transform="translate(-1912.407 -1239.225)"/>
    </g>
    <g id="Group_1998" data-name="Group 1998" transform="translate(1946.405 1229.042)">
      <path id="Path_15121" data-name="Path 15121" d="M1918.919,1226.59a.961.961,0,0,1-.363-.074,84.828,84.828,0,0,0-9.8-3.455.941.941,0,0,1,.508-1.812,86.652,86.652,0,0,1,10.019,3.529.943.943,0,0,1-.366,1.812Z" transform="translate(-1908.07 -1221.215)"/>
    </g>
    <g id="Group_1999" data-name="Group 1999" transform="translate(1907.118 1226.848)">
      <path id="Path_15122" data-name="Path 15122" d="M1896.24,1233.8a.941.941,0,0,1-.741-1.523c5.743-7.312,16.86-15.042,37.215-10.333a.943.943,0,0,1-.424,1.837c-19.389-4.485-29.9,2.774-35.309,9.659A.94.94,0,0,1,1896.24,1233.8Z" transform="translate(-1895.299 -1220.502)"/>
    </g>
    <g id="Group_2000" data-name="Group 2000" transform="translate(1901.884 1240.796)">
      <path id="Path_15123" data-name="Path 15123" d="M1894.541,1234.209a.992.992,0,0,1-.246-.03.941.941,0,0,1-.665-1.154,29.761,29.761,0,0,1,3.553-7.555.942.942,0,0,1,1.588,1.015,28.284,28.284,0,0,0-3.323,7.026A.938.938,0,0,1,1894.541,1234.209Z" transform="translate(-1893.597 -1225.036)"/>
    </g>
    <g id="Group_2001" data-name="Group 2001" transform="translate(1924.691 1238.36)">
      <path id="Path_15124" data-name="Path 15124" d="M1936.078,1231.027a.935.935,0,0,1-.36-.073c-15.522-6.451-24.52-6.482-33.207-.111a.941.941,0,1,1-1.114-1.517c9.192-6.743,19.017-6.771,35.044-.111a.942.942,0,0,1-.363,1.812Z" transform="translate(-1901.012 -1224.244)"/>
    </g>
    <g id="Group_2002" data-name="Group 2002" transform="translate(1907.695 1246.962)">
      <path id="Path_15125" data-name="Path 15125" d="M1896.426,1238.883a.962.962,0,0,1-.443-.111.94.94,0,0,1-.385-1.274q.3-.577.637-1.209a43.982,43.982,0,0,1,5.728-8.927.942.942,0,1,1,1.418,1.24,42.329,42.329,0,0,0-5.479,8.561c-.222.425-.437.834-.643,1.221A.941.941,0,0,1,1896.426,1238.883Z" transform="translate(-1895.486 -1227.04)"/>
    </g>
    <g id="Group_2003" data-name="Group 2003" transform="translate(1938.534 1253.372)">
      <path id="Path_15126" data-name="Path 15126" d="M1918.6,1234.058a.956.956,0,0,1-.366-.074,35.044,35.044,0,0,0-11.832-2.978.94.94,0,0,1-.9-.984.926.926,0,0,1,.984-.9,36.89,36.89,0,0,1,12.477,3.122.942.942,0,0,1-.369,1.809Z" transform="translate(-1905.512 -1229.124)"/>
    </g>
    <g id="Group_2004" data-name="Group 2004" transform="translate(1934.425 1255.999)">
      <path id="Path_15127" data-name="Path 15127" d="M1904.176,1229.978" transform="translate(-1904.176 -1229.978)" fill="none" stroke="#000" stroke-linecap="round" stroke-linejoin="round" stroke-width="2"/>
    </g>
    <g id="Group_2005" data-name="Group 2005" transform="translate(1915.752 1252.461)">
      <path id="Path_15128" data-name="Path 15128" d="M1899.048,1243.541a.919.919,0,0,1-.274-.04.944.944,0,0,1-.627-1.175c.037-.123,3.864-12.218,16.8-13.5a.941.941,0,1,1,.185,1.874c-11.7,1.154-15.147,12.059-15.178,12.169A.946.946,0,0,1,1899.048,1243.541Z" transform="translate(-1898.105 -1228.828)"/>
    </g>
    <g id="Group_2006" data-name="Group 2006" transform="translate(1931.802 1264.76)">
      <path id="Path_15129" data-name="Path 15129" d="M1917.073,1237.5a.953.953,0,0,1-.514-.151c-4.368-2.833-8.364-3.4-11.88-1.683a.942.942,0,0,1-.828-1.692c2.852-1.394,7.555-2.212,13.732,1.793a.941.941,0,0,1-.511,1.732Z" transform="translate(-1903.323 -1232.826)"/>
    </g>
    <g id="Group_2007" data-name="Group 2007" transform="translate(1925.985 1267.509)">
      <path id="Path_15130" data-name="Path 15130" d="M1902.373,1239.59a.916.916,0,0,1-.425-.1.939.939,0,0,1-.412-1.264,15.487,15.487,0,0,1,3.482-4.279.941.941,0,1,1,1.224,1.431,13.909,13.909,0,0,0-3.03,3.7A.943.943,0,0,1,1902.373,1239.59Z" transform="translate(-1901.433 -1233.72)"/>
    </g>
    <g id="Group_2008" data-name="Group 2008" transform="translate(1940.872 1246.961)">
      <line id="Line_621" data-name="Line 621" y1="31.955" x2="25.574" transform="translate(0.943 0.943)" fill="#efea43"/>
      <path id="Path_15131" data-name="Path 15131" d="M1907.214,1260.878a.941.941,0,0,1-.735-1.529l25.575-31.955a.942.942,0,1,1,1.471,1.178l-25.575,31.952A.933.933,0,0,1,1907.214,1260.878Z" transform="translate(-1906.272 -1227.04)"/>
    </g>
    <g id="Group_2009" data-name="Group 2009" transform="translate(1894.215 1263.623)">
      <line id="Line_622" data-name="Line 622" x1="29.53" y1="15.293" transform="translate(0.942 0.942)" fill="#efea43"/>
      <path id="Path_15132" data-name="Path 15132" d="M1921.575,1249.632a.958.958,0,0,1-.434-.1l-29.528-15.292a.943.943,0,1,1,.867-1.674l29.528,15.292a.942.942,0,0,1-.434,1.778Z" transform="translate(-1891.104 -1232.456)"/>
    </g>
    <g id="Group_2010" data-name="Group 2010" transform="translate(1963.714 1244.316)">
      <line id="Line_623" data-name="Line 623" x2="6.71" y2="5.704" transform="translate(0.942 0.942)" fill="#efea43"/>
      <path id="Path_15133" data-name="Path 15133" d="M1921.35,1233.768a.93.93,0,0,1-.609-.225l-6.712-5.706a.942.942,0,1,1,1.221-1.433l6.709,5.7a.943.943,0,0,1-.609,1.661Z" transform="translate(-1913.697 -1226.18)"/>
    </g>
    <g id="Group_2011" data-name="Group 2011" transform="translate(1892.461 1257.567)">
      <line id="Line_624" data-name="Line 624" y1="8.58" x2="3.511" transform="translate(0.943 0.941)" fill="#efea43"/>
      <path id="Path_15134" data-name="Path 15134" d="M1891.478,1240.951a.909.909,0,0,1-.356-.071.939.939,0,0,1-.517-1.227l3.513-8.58a.941.941,0,1,1,1.741.714l-3.51,8.579A.946.946,0,0,1,1891.478,1240.951Z" transform="translate(-1890.534 -1230.488)"/>
    </g>
  </g>
</svg>
