<svg xmlns="http://www.w3.org/2000/svg" width="40.904" height="53.062" viewBox="0 0 40.904 53.062">
  <g id="Group_1814" data-name="Group 1814" transform="translate(114.317 -1105.26)">
    <g id="Group_1778" data-name="Group 1778" transform="translate(-114.317 1106.457)">
      <circle id="Ellipse_46" data-name="Ellipse 46" cx="20.049" cy="20.049" r="20.049" transform="translate(0.403 0.403)" fill="#efea43"/>
      <path id="Path_14861" data-name="Path 14861" d="M-93.865,1149.134a20.476,20.476,0,0,1-20.452-20.452,20.475,20.475,0,0,1,20.452-20.452,20.475,20.475,0,0,1,20.452,20.452A20.475,20.475,0,0,1-93.865,1149.134Zm0-40.1a19.668,19.668,0,0,0-19.646,19.645,19.668,19.668,0,0,0,19.646,19.646,19.668,19.668,0,0,0,19.646-19.646A19.668,19.668,0,0,0-93.865,1109.036Z" transform="translate(114.317 -1108.23)"/>
    </g>
    <g id="Group_1779" data-name="Group 1779" transform="translate(-98.993 1117.599)">
      <path id="Path_14862" data-name="Path 14862" d="M-66.8,1176.356l5.7-1.633-.789-7.789,1.5-4.292-.4-4.216-1.875-4.1-2.213-2.55-.615-6.431-3.245-2.9-1.908-6.376-1.822-.2-.3,2.794-1.907-1.732H-76.3l.525,2.678,3.689,3.372.914,5.39-1.486.37-.332.842-1.8-.022-.589,1.083.679,4.228-.372,3.437.824,3.8,3.077,12.61Z" transform="translate(76.299 -1135.873)" fill="#fff"/>
    </g>
    <g id="Group_1780" data-name="Group 1780" transform="translate(-98.171 1128.697)">
      <path id="Path_14863" data-name="Path 14863" d="M-65.621,1193.031a6.894,6.894,0,0,1-4.593-1.565.4.4,0,0,1-.133-.222c-.024-.112-2.424-11.2-3.424-13.593-1.065-2.549-.062-6.638-.019-6.811a.4.4,0,0,1,.489-.293.4.4,0,0,1,.293.489c-.01.04-.981,4-.019,6.3.979,2.343,3.147,12.254,3.439,13.6,3.189,2.583,8.115.526,9.269-.015-.121-.989-.518-4.326-.657-6.712a8.346,8.346,0,0,1,.705-3.468,7.779,7.779,0,0,0,.674-3.493,12.043,12.043,0,0,0-3.043-7.353,42.115,42.115,0,0,0-4.606-4.4,3.206,3.206,0,0,1-1.829-1.065.7.7,0,0,0-.012.073c-.069.584.357,2.445,5.789,7.116a.4.4,0,0,1,.14.314.4.4,0,0,1-.153.308,5.6,5.6,0,0,0-1.875,5.2,9.324,9.324,0,0,0,2.721,5.063.4.4,0,0,1,.047.568.4.4,0,0,1-.567.048,9.967,9.967,0,0,1-2.995-5.534,6.354,6.354,0,0,1,1.812-5.654c-4.042-3.523-5.963-6.079-5.71-7.6a1.148,1.148,0,0,1,.651-.905.4.4,0,0,1,.47.129,2.466,2.466,0,0,0,1.678,1.144.424.424,0,0,1,.245.088,43.324,43.324,0,0,1,4.8,4.569,12.972,12.972,0,0,1,3.239,7.816,8.539,8.539,0,0,1-.72,3.836,7.6,7.6,0,0,0-.658,3.146c.162,2.789.682,6.9.687,6.944a.4.4,0,0,1-.212.407A14.21,14.21,0,0,1-65.621,1193.031Z" transform="translate(74.259 -1163.407)"/>
    </g>
    <g id="Group_1781" data-name="Group 1781" transform="translate(-91.918 1149.527)">
      <path id="Path_14864" data-name="Path 14864" d="M-54.937,1216.669a.356.356,0,0,1-.058,0,20.3,20.3,0,0,1-3.5-.8.4.4,0,0,1-.219-.526.4.4,0,0,1,.526-.219,20.023,20.023,0,0,0,3.31.751.4.4,0,0,1,.341.457A.4.4,0,0,1-54.937,1216.669Z" transform="translate(58.745 -1215.086)"/>
    </g>
    <g id="Group_1782" data-name="Group 1782" transform="translate(-90.075 1150.102)">
      <path id="Path_14865" data-name="Path 14865" d="M-53.594,1219.666a.4.4,0,0,1-.4-.373l-.178-2.346a.4.4,0,0,1,.372-.432.4.4,0,0,1,.432.372l.178,2.346a.4.4,0,0,1-.372.432Z" transform="translate(54.174 -1216.513)"/>
    </g>
    <g id="Group_1783" data-name="Group 1783" transform="translate(-99.606 1116.883)">
      <path id="Path_14866" data-name="Path 14866" d="M-65.783,1151.122h-.033a.4.4,0,0,1-.369-.434c.124-1.544.191-5.76-.975-6.722-1.385-1.142-7.948-7.115-9.752-8.759-.208.84-.3,2.587,1.647,4.43a81.437,81.437,0,0,0,6.3,5.28.4.4,0,0,1,.152.23l.7,2.968a.4.4,0,0,1-.3.485.4.4,0,0,1-.485-.3l-.668-2.827a81.7,81.7,0,0,1-6.259-5.252,5.682,5.682,0,0,1-2-4.04,4.151,4.151,0,0,1,.372-1.869.4.4,0,0,1,.287-.21.4.4,0,0,1,.342.1c.086.078,8.61,7.854,10.169,9.14,1.7,1.4,1.315,6.8,1.266,7.409A.4.4,0,0,1-65.783,1151.122Z" transform="translate(77.819 -1134.096)"/>
    </g>
    <g id="Group_1784" data-name="Group 1784" transform="translate(-95.754 1116.768)">
      <path id="Path_14867" data-name="Path 14867" d="M-64.4,1141.063a.4.4,0,0,1-.394-.319,44.8,44.8,0,0,0-1.576-6.056.784.784,0,0,0-.722.032c-.185.153-.473.647-.324,2.227a.4.4,0,0,1-.364.439.4.4,0,0,1-.439-.364c-.142-1.508.058-2.464.613-2.923a1.586,1.586,0,0,1,1.5-.174l.058.016c.252.068.673.183,2.042,6.635a.4.4,0,0,1-.311.478A.4.4,0,0,1-64.4,1141.063Zm-1.866-6.345.007,0Z" transform="translate(68.263 -1133.813)"/>
    </g>
    <g id="Group_1785" data-name="Group 1785" transform="translate(-96.091 1129.818)">
      <path id="Path_14868" data-name="Path 14868" d="M-65.868,1175.738a3.6,3.6,0,0,1-1.821-.742.4.4,0,0,1-.152-.233c-.038-.166-.94-4.1-1.23-6.534a1.78,1.78,0,0,1,.538-1.766,2.487,2.487,0,0,1,2.21.012.4.4,0,0,1,.178.155l.985,1.584a.407.407,0,0,1,.057.156,36.1,36.1,0,0,1,.413,6.175,1.235,1.235,0,0,1-.694,1.1A1.207,1.207,0,0,1-65.868,1175.738Zm-1.222-1.305c.429.289,1.09.6,1.385.472.113-.049.185-.2.213-.452a34.914,34.914,0,0,0-.4-5.885l-.871-1.4c-.321-.119-.976-.29-1.3-.054-.256.189-.258.659-.215,1.021C-68.017,1170.266-67.26,1173.679-67.09,1174.432Z" transform="translate(69.098 -1166.189)"/>
    </g>
    <g id="Group_1786" data-name="Group 1786" transform="translate(-98.658 1130.775)">
      <path id="Path_14869" data-name="Path 14869" d="M-72.911,1176.58c-1.425,0-2.514-5.9-2.523-5.959a1.675,1.675,0,0,1,.448-1.6c.841-.754,2.421-.354,2.6-.306a.4.4,0,0,1,.294.333c0,.03.429,3.069.767,4.79a2.546,2.546,0,0,1-.337,2.172A1.6,1.6,0,0,1-72.911,1176.58Zm-.624-7.208a1.4,1.4,0,0,0-.914.247c-.071.063-.285.257-.188.878.347,2.23,1.322,4.953,1.771,5.276a.786.786,0,0,0,.58-.278,1.848,1.848,0,0,0,.168-1.505c-.281-1.433-.621-3.757-.735-4.555A4,4,0,0,0-73.535,1169.372Z" transform="translate(75.468 -1168.563)"/>
    </g>
    <g id="Group_1787" data-name="Group 1787" transform="translate(-94.994 1124.747)">
      <path id="Path_14870" data-name="Path 14870" d="M-65.249,1159.036a.4.4,0,0,1-.4-.34l-.726-4.624a.4.4,0,0,1,.336-.461.405.405,0,0,1,.461.336l.726,4.624a.4.4,0,0,1-.336.461A.479.479,0,0,1-65.249,1159.036Z" transform="translate(66.377 -1153.606)"/>
    </g>
    <g id="Group_1788" data-name="Group 1788" transform="translate(-94.631 1135.14)">
      <path id="Path_14871" data-name="Path 14871" d="M-62.69,1186.031s.364-3.678.27-4c-.2-.68-1.931-3-2.008-.515-.069,2.218-.118,3.5.244,4.243C-62.892,1188.424-62.814,1186.82-62.69,1186.031Z" transform="translate(64.88 -1179.989)" fill="#ebb6d4"/>
      <path id="Path_14872" data-name="Path 14872" d="M-63.719,1187.041c-.435,0-.833-.482-1.426-1.7-.4-.819-.358-2.047-.289-4.277l0-.155c.029-.936.3-1.443.816-1.508.869-.117,1.834,1.417,1.982,1.923a30.188,30.188,0,0,1-.256,4.153c0,.008,0,.015,0,.023l-.029.2c-.083.587-.177,1.253-.7,1.336A.649.649,0,0,1-63.719,1187.041Zm-.771-6.839a1.526,1.526,0,0,0-.133.729l0,.155c-.063,2.033-.1,3.26.209,3.9a6.782,6.782,0,0,0,.62,1.089c.036-.163.065-.367.082-.491l.029-.2c.167-1.692.316-3.6.277-3.862A2.929,2.929,0,0,0-64.489,1180.2Zm1.2,5.231h0Z" transform="translate(65.477 -1179.391)"/>
    </g>
    <g id="Group_1789" data-name="Group 1789" transform="translate(-97.064 1135.022)">
      <path id="Path_14873" data-name="Path 14873" d="M-69.012,1183.437a6.638,6.638,0,0,0,.129-1.559c-.2-.68-1.5-3.189-1.607-.7a9.213,9.213,0,0,0,.088,2.232C-69.254,1186.138-69.137,1184.226-69.012,1183.437Z" transform="translate(70.916 -1179.696)" fill="#ebb6d4"/>
      <path id="Path_14874" data-name="Path 14874" d="M-70.077,1184.633c-.43,0-.789-.469-1.292-1.666a6.057,6.057,0,0,1-.119-2.405c.018-.412.059-1.378.72-1.458.931-.11,1.67,2.042,1.677,2.064a5.713,5.713,0,0,1-.119,1.74c-.01.067-.021.142-.032.222-.1.7-.2,1.426-.753,1.5A.7.7,0,0,1-70.077,1184.633Zm-.537-4.625a3.085,3.085,0,0,0-.069.589,7.848,7.848,0,0,0,.057,2.058,6.828,6.828,0,0,0,.481.978c.046-.2.082-.46.1-.615.012-.086.024-.169.035-.241l0-.009a6.433,6.433,0,0,0,.139-1.378A4.706,4.706,0,0,0-70.615,1180.008Z" transform="translate(71.513 -1179.1)"/>
    </g>
    <g id="Group_1790" data-name="Group 1790" transform="translate(-95.181 1126.506)">
      <path id="Path_14875" data-name="Path 14875" d="M-61.841,1162.733l-3.981-3.763s-.316,1.408,1.48,3.059S-62.545,1163.631-61.841,1162.733Z" transform="translate(66.245 -1158.567)" fill="#ebb6d4"/>
      <path id="Path_14876" data-name="Path 14876" d="M-63.164,1163.16c-.489,0-.964-.437-2.045-1.43-1.946-1.788-1.616-3.377-1.6-3.444a.4.4,0,0,1,.276-.3.4.4,0,0,1,.395.092l3.981,3.763a.4.4,0,0,1,.04.542l-.025.032c-.321.411-.553.707-.952.74C-63.119,1163.159-63.142,1163.16-63.164,1163.16Zm-2.722-3.73a4.411,4.411,0,0,0,1.222,1.706,7.074,7.074,0,0,0,1.5,1.218.813.813,0,0,0,.177-.178Z" transform="translate(66.84 -1157.971)"/>
    </g>
    <g id="Group_1791" data-name="Group 1791" transform="translate(-95.679 1114.374)">
      <path id="Path_14877" data-name="Path 14877" d="M-65.006,1132.358s-1-3.655-1.48-3.48c-.439.16-.59,3.446-.59,3.446S-66.413,1130.54-65.006,1132.358Z" transform="translate(67.479 -1128.469)" fill="#ebb6d4"/>
      <path id="Path_14878" data-name="Path 14878" d="M-65.6,1132.164a.4.4,0,0,1-.319-.156c-.349-.452-.677-.694-.9-.658-.247.038-.441.424-.476.517a.4.4,0,0,1-.458.254.4.4,0,0,1-.322-.413c.163-3.554.647-3.73.854-3.806a.521.521,0,0,1,.421.032c.548.284,1.165,2.18,1.586,3.721a.4.4,0,0,1-.209.467A.4.4,0,0,1-65.6,1132.164ZM-66.974,1129a14.889,14.889,0,0,0-.219,1.628,1.119,1.119,0,0,1,.253-.069,1.139,1.139,0,0,1,.575.062A14.97,14.97,0,0,0-66.974,1129Z" transform="translate(68.076 -1127.872)"/>
    </g>
    <g id="Group_1792" data-name="Group 1792" transform="translate(-101.023 1115.307)">
      <path id="Path_14879" data-name="Path 14879" d="M-77.081,1134.137l-3.254-2.951s.674,1.841.867,2.375S-77.081,1134.137-77.081,1134.137Z" transform="translate(80.738 -1130.783)" fill="#ebb6d4"/>
      <path id="Path_14880" data-name="Path 14880" d="M-77.678,1133.943h-.008c-1.126-.022-2.519-.185-2.757-.841-.194-.534-.868-2.374-.868-2.374a.4.4,0,0,1,.154-.472.4.4,0,0,1,.5.035l3.254,2.951a.4.4,0,0,1,.1.447A.4.4,0,0,1-77.678,1133.943ZM-79.7,1132.8a2.278,2.278,0,0,0,.867.242l-1.164-1.055Z" transform="translate(81.336 -1130.186)"/>
    </g>
    <g id="Group_1793" data-name="Group 1793" transform="translate(-109.626 1115.284)">
      <path id="Path_14881" data-name="Path 14881" d="M-100.13,1132.055a.4.4,0,0,1-.186-.046l-2.146-1.119a.4.4,0,0,1-.171-.544.4.4,0,0,1,.544-.171l2.145,1.12a.4.4,0,0,1,.171.544A.4.4,0,0,1-100.13,1132.055Z" transform="translate(102.678 -1130.13)"/>
    </g>
    <g id="Group_1794" data-name="Group 1794" transform="translate(-106.364 1116.986)">
      <path id="Path_14882" data-name="Path 14882" d="M-93.109,1135.718a.4.4,0,0,1-.186-.046l-1.073-.56a.4.4,0,0,1-.171-.544A.4.4,0,0,1-94,1134.4l1.074.56a.4.4,0,0,1,.171.544A.4.4,0,0,1-93.109,1135.718Z" transform="translate(94.585 -1134.351)"/>
    </g>
    <g id="Group_1795" data-name="Group 1795" transform="translate(-104.157 1118.137)">
      <path id="Path_14883" data-name="Path 14883" d="M-86.605,1139.112a.4.4,0,0,1-.186-.046l-2.1-1.1a.4.4,0,0,1-.171-.544.4.4,0,0,1,.544-.171l2.1,1.1a.4.4,0,0,1,.171.544A.4.4,0,0,1-86.605,1139.112Z" transform="translate(89.111 -1137.208)"/>
    </g>
    <g id="Group_1796" data-name="Group 1796" transform="translate(-99.711 1110.122)">
      <path id="Path_14884" data-name="Path 14884" d="M-76.8,1120.33a.4.4,0,0,1-.374-.253l-.882-2.2a.4.4,0,0,1,.224-.524.4.4,0,0,1,.524.224l.882,2.2a.4.4,0,0,1-.224.524A.4.4,0,0,1-76.8,1120.33Z" transform="translate(78.081 -1117.322)"/>
    </g>
    <g id="Group_1797" data-name="Group 1797" transform="translate(-101.157 1106.183)">
      <path id="Path_14885" data-name="Path 14885" d="M-80.381,1110.558a.4.4,0,0,1-.374-.253l-.882-2.2a.4.4,0,0,1,.224-.524.4.4,0,0,1,.524.224l.882,2.2a.4.4,0,0,1-.224.524A.41.41,0,0,1-80.381,1110.558Z" transform="translate(81.666 -1107.551)"/>
    </g>
    <g id="Group_1798" data-name="Group 1798" transform="translate(-111.678 1124.983)">
      <path id="Path_14886" data-name="Path 14886" d="M-103.92,1155.547a.39.39,0,0,1-.064-.005l-3.446-.547a.4.4,0,0,1-.335-.462.4.4,0,0,1,.461-.334l3.446.547a.4.4,0,0,1,.335.461A.4.4,0,0,1-103.92,1155.547Z" transform="translate(107.77 -1154.193)"/>
    </g>
    <g id="Group_1799" data-name="Group 1799" transform="translate(-106.928 1125.738)">
      <path id="Path_14887" data-name="Path 14887" d="M-89.7,1157.8a.377.377,0,0,1-.064-.005l-5.878-.933a.4.4,0,0,1-.335-.462.4.4,0,0,1,.462-.334l5.878.933a.4.4,0,0,1,.335.461A.4.4,0,0,1-89.7,1157.8Z" transform="translate(95.985 -1156.065)"/>
    </g>
    <g id="Group_1800" data-name="Group 1800" transform="translate(-110.449 1134.233)">
      <path id="Path_14888" data-name="Path 14888" d="M-104.317,1178.455a.4.4,0,0,1-.393-.313.4.4,0,0,1,.3-.483l2.221-.507a.4.4,0,0,1,.483.3.4.4,0,0,1-.3.483l-2.221.507A.379.379,0,0,1-104.317,1178.455Z" transform="translate(104.719 -1177.142)"/>
    </g>
    <g id="Group_1801" data-name="Group 1801" transform="translate(-106.966 1133.307)">
      <path id="Path_14889" data-name="Path 14889" d="M-95.678,1176.289a.4.4,0,0,1-.393-.313.4.4,0,0,1,.3-.483l2.794-.638a.4.4,0,0,1,.482.3.4.4,0,0,1-.3.482l-2.794.638A.389.389,0,0,1-95.678,1176.289Z" transform="translate(96.08 -1174.844)"/>
    </g>
    <g id="Group_1802" data-name="Group 1802" transform="translate(-102.904 1132.63)">
      <path id="Path_14890" data-name="Path 14890" d="M-85.6,1174.359a.4.4,0,0,1-.393-.313.4.4,0,0,1,.3-.483l1.7-.387a.4.4,0,0,1,.482.3.4.4,0,0,1-.3.482l-1.7.388A.405.405,0,0,1-85.6,1174.359Z" transform="translate(86 -1173.165)"/>
    </g>
    <g id="Group_1803" data-name="Group 1803" transform="translate(-93.322 1111.685)">
      <path id="Path_14891" data-name="Path 14891" d="M-61.826,1124.04a.4.4,0,0,1-.182-.044.4.4,0,0,1-.177-.542l1.029-2.032a.4.4,0,0,1,.542-.177.4.4,0,0,1,.177.541l-1.029,2.032A.4.4,0,0,1-61.826,1124.04Z" transform="translate(62.229 -1121.202)"/>
    </g>
    <g id="Group_1804" data-name="Group 1804" transform="translate(-91.708 1107.975)">
      <path id="Path_14892" data-name="Path 14892" d="M-57.822,1115.358a.4.4,0,0,1-.182-.043.4.4,0,0,1-.177-.542l1.295-2.556a.4.4,0,0,1,.542-.177.4.4,0,0,1,.177.541l-1.295,2.556A.4.4,0,0,1-57.822,1115.358Z" transform="translate(58.224 -1111.996)"/>
    </g>
    <g id="Group_1805" data-name="Group 1805" transform="translate(-89.825 1105.26)">
      <path id="Path_14893" data-name="Path 14893" d="M-53.15,1107.62a.4.4,0,0,1-.182-.044.4.4,0,0,1-.178-.542l.787-1.553a.4.4,0,0,1,.542-.177.4.4,0,0,1,.177.542l-.787,1.554A.4.4,0,0,1-53.15,1107.62Z" transform="translate(53.553 -1105.26)"/>
    </g>
    <g id="Group_1806" data-name="Group 1806" transform="translate(-87.065 1113.393)">
      <path id="Path_14894" data-name="Path 14894" d="M-46.3,1129.156a.4.4,0,0,1-.253-.089.4.4,0,0,1-.06-.567l2.354-2.912a.4.4,0,0,1,.567-.06.4.4,0,0,1,.06.567l-2.354,2.912A.4.4,0,0,1-46.3,1129.156Z" transform="translate(46.705 -1125.438)"/>
    </g>
    <g id="Group_1807" data-name="Group 1807" transform="translate(-89.941 1117.196)">
      <path id="Path_14895" data-name="Path 14895" d="M-53.438,1138.346a.4.4,0,0,1-.253-.09.4.4,0,0,1-.06-.567l2.156-2.667a.4.4,0,0,1,.567-.06.4.4,0,0,1,.06.567l-2.156,2.666A.4.4,0,0,1-53.438,1138.346Z" transform="translate(53.841 -1134.873)"/>
    </g>
    <g id="Group_1808" data-name="Group 1808" transform="translate(-79.745 1118.839)">
      <path id="Path_14896" data-name="Path 14896" d="M-28.14,1141.055a.4.4,0,0,1-.332-.174.4.4,0,0,1,.1-.561l1.875-1.3a.4.4,0,0,1,.561.1.4.4,0,0,1-.1.561l-1.875,1.3A.4.4,0,0,1-28.14,1141.055Z" transform="translate(28.543 -1138.949)"/>
    </g>
    <g id="Group_1809" data-name="Group 1809" transform="translate(-81.903 1120.84)">
      <path id="Path_14897" data-name="Path 14897" d="M-33.5,1145.515a.4.4,0,0,1-.332-.174.4.4,0,0,1,.1-.561l1.146-.794a.4.4,0,0,1,.561.1.4.4,0,0,1-.1.561l-1.146.794A.4.4,0,0,1-33.5,1145.515Z" transform="translate(33.899 -1143.915)"/>
    </g>
    <g id="Group_1810" data-name="Group 1810" transform="translate(-84.054 1122.394)">
      <path id="Path_14898" data-name="Path 14898" d="M-38.832,1149.306a.4.4,0,0,1-.332-.174.4.4,0,0,1,.1-.561l1.055-.732a.4.4,0,0,1,.561.1.4.4,0,0,1-.1.561l-1.055.731A.4.4,0,0,1-38.832,1149.306Z" transform="translate(39.236 -1147.769)"/>
    </g>
    <g id="Group_1811" data-name="Group 1811" transform="translate(-86.533 1123.772)">
      <path id="Path_14899" data-name="Path 14899" d="M-44.983,1153.066a.4.4,0,0,1-.332-.174.4.4,0,0,1,.1-.561l1.545-1.071a.4.4,0,0,1,.561.1.4.4,0,0,1-.1.561l-1.546,1.071A.4.4,0,0,1-44.983,1153.066Z" transform="translate(45.386 -1151.188)"/>
    </g>
    <g id="Group_1812" data-name="Group 1812" transform="translate(-81.084 1130.547)">
      <path id="Path_14900" data-name="Path 14900" d="M-28.378,1169.785a.4.4,0,0,1-.122-.019l-3.085-.983a.4.4,0,0,1-.262-.506.4.4,0,0,1,.506-.262l3.085.983a.4.4,0,0,1,.262.506A.4.4,0,0,1-28.378,1169.785Z" transform="translate(31.867 -1167.996)"/>
    </g>
    <g id="Group_1813" data-name="Group 1813" transform="translate(-85.808 1129.042)">
      <path id="Path_14901" data-name="Path 14901" d="M-39.73,1166.17a.392.392,0,0,1-.123-.019l-3.453-1.1a.4.4,0,0,1-.262-.507.4.4,0,0,1,.507-.261l3.453,1.1a.4.4,0,0,1,.262.507A.4.4,0,0,1-39.73,1166.17Z" transform="translate(43.586 -1164.264)"/>
    </g>
  </g>
</svg>
