<svg xmlns="http://www.w3.org/2000/svg" width="112.022" height="113.124" viewBox="0 0 112.022 113.124">
  <g id="Group_1957" data-name="Group 1957" transform="translate(-1656.244 -1218.799)">
    <g id="Group_1915" data-name="Group 1915" transform="translate(1658.524 1224.925)">
      <circle id="Ellipse_51" data-name="Ellipse 51" cx="52.444" cy="52.444" r="52.444" transform="translate(1.056 1.054)" fill="#efea43"/>
      <path id="Path_15026" data-name="Path 15026" d="M1710.553,1327.971a53.5,53.5,0,1,1,53.5-53.5A53.56,53.56,0,0,1,1710.553,1327.971Zm0-104.89a51.39,51.39,0,1,0,51.39,51.393A51.449,51.449,0,0,0,1710.553,1223.08Z" transform="translate(-1657.053 -1220.973)"/>
    </g>
    <g id="Group_1916" data-name="Group 1916" transform="translate(1663.166 1218.799)">
      <path id="Path_15027" data-name="Path 15027" d="M1662.157,1311.17l38.521-82.725c1.237-2.654,4.049-9.141,6.568-9.222,2.564-.085,4.838,6.281,6.221,8.924l43.151,82.368c1.231,2.353,4.37,6.565,3.178,8.574-1.209,2.04-6.777,1.863-9.471,1.874l-81.669.358c-2.558.008-8.005.124-9.265-1.756C1658.074,1317.6,1661.027,1313.594,1662.157,1311.17Z" transform="translate(-1658.047 -1218.03)" fill="#cecac5"/>
      <path id="Path_15028" data-name="Path 15028" d="M1662.723,1323.17a4.02,4.02,0,0,1-3.644-5.717l44.858-96.333a4,4,0,0,1,3.55-2.322h.1a4,4,0,0,1,3.559,2.153l50.246,95.918a4.022,4.022,0,0,1-3.545,5.886l-95.1.414Zm44.861-102.264h-.048a1.874,1.874,0,0,0-1.688,1.1l-44.858,96.332h0a1.911,1.911,0,0,0,1.733,2.716h.008l95.1-.414a1.911,1.911,0,0,0,1.685-2.8l-50.245-95.918A1.877,1.877,0,0,0,1707.584,1220.907Zm-47.549,96.992h0Z" transform="translate(-1658.7 -1218.799)"/>
    </g>
    <g id="Group_1917" data-name="Group 1917" transform="translate(1689.162 1264.393)">
      <path id="Path_15029" data-name="Path 15029" d="M1669.616,1244.271s-3.282,2.42.519,3.282,11.82,12.443,21.074,12.269,12.792-7.69,15.819-9.5,7.343-3.2,6.047-4.926-6.565-4.147-9.764-7.083-14.167-4.666-22.722-.347S1669.616,1244.271,1669.616,1244.271Z" transform="translate(-1667.247 -1234.285)" fill="#fff"/>
      <path id="Path_15030" data-name="Path 15030" d="M1691.685,1261.573c-6.3,0-11.953-4.962-16.093-8.6-2.02-1.775-3.93-3.454-5.012-3.7-1.53-.346-2.41-1.02-2.612-2-.321-1.538,1.3-2.857,1.682-3.142.287-.228,2.925-2.263,11.141-6.413,9.062-4.576,20.4-2.722,23.912.51a39.446,39.446,0,0,0,5.458,3.888,18.324,18.324,0,0,1,4.435,3.339,2.014,2.014,0,0,1,.4,1.711c-.333,1.423-2.113,2.33-4.368,3.474-.806.411-1.64.834-2.378,1.276a14.52,14.52,0,0,0-2.51,2.356c-2.665,2.854-6.692,7.166-13.83,7.3Zm-21.649-14.717a3.483,3.483,0,0,0,1.011.364c1.6.366,3.516,2.046,5.937,4.173,3.886,3.412,9.191,8.073,14.7,8.073l.183,0c6.247-.115,9.761-3.88,12.328-6.63a15.591,15.591,0,0,1,2.967-2.722c.8-.482,1.668-.922,2.508-1.35,1.161-.589,3.1-1.575,3.269-2.079a22.505,22.505,0,0,0-3.905-2.781,41.358,41.358,0,0,1-5.757-4.12c-2.665-2.449-13.128-4.424-21.533-.18-8.276,4.182-10.758,6.162-10.78,6.182l-.039.031a2.662,2.662,0,0,0-.887,1.043Zm.259-1.89h0Z" transform="translate(-1667.926 -1234.98)"/>
    </g>
    <g id="Group_1918" data-name="Group 1918" transform="translate(1701.448 1264.317)">
      <path id="Path_15031" data-name="Path 15031" d="M1672.662,1238.017s-.284,12.649,10.874,12.649,11.15-12.846,11.15-12.846S1683.654,1232.1,1672.662,1238.017Z" transform="translate(-1671.607 -1234.261)" fill="#40c4e0"/>
      <path id="Path_15032" data-name="Path 15032" d="M1684.215,1252.412a10.887,10.887,0,0,1-8.118-3.148c-3.911-4-3.815-10.313-3.81-10.578a1.048,1.048,0,0,1,.555-.9c11.353-6.114,22.536-.451,23.007-.205a1.052,1.052,0,0,1,.568.935,19.007,19.007,0,0,1-1.476,6.842A11,11,0,0,1,1684.215,1252.412Zm-9.8-13.072c.081,1.561.549,5.756,3.2,8.459a9.718,9.718,0,0,0,15.4-3.282,17.116,17.116,0,0,0,1.274-5.342C1691.941,1238.165,1683.164,1234.964,1674.412,1239.34Z" transform="translate(-1672.286 -1234.953)"/>
    </g>
    <g id="Group_1935" data-name="Group 1935" transform="translate(1656.244 1228.848)">
      <g id="Group_1919" data-name="Group 1919" transform="translate(26.337)">
        <path id="Path_15033" data-name="Path 15033" d="M1670.495,1229.5a1.052,1.052,0,0,1-.837-.414l-3.85-5.024a1.054,1.054,0,1,1,1.674-1.282l3.849,5.024a1.057,1.057,0,0,1-.837,1.7Z" transform="translate(-1665.59 -1222.365)"/>
      </g>
      <g id="Group_1920" data-name="Group 1920" transform="translate(32.19 7.639)">
        <path id="Path_15034" data-name="Path 15034" d="M1670.65,1229.7a1.056,1.056,0,0,1-.84-.411l-1.924-2.516a1.054,1.054,0,0,1,1.674-1.282l1.924,2.516a1.052,1.052,0,0,1-.834,1.694Z" transform="translate(-1667.667 -1225.077)"/>
      </g>
      <g id="Group_1921" data-name="Group 1921" transform="translate(36.149 12.809)">
        <path id="Path_15035" data-name="Path 15035" d="M1673.9,1233.943a1.057,1.057,0,0,1-.84-.414l-3.77-4.925a1.054,1.054,0,0,1,1.674-1.282l3.77,4.926a1.053,1.053,0,0,1-.834,1.7Z" transform="translate(-1669.072 -1226.911)"/>
      </g>
      <g id="Group_1922" data-name="Group 1922" transform="translate(8.941 17.985)">
        <path id="Path_15036" data-name="Path 15036" d="M1668.268,1235.6a1.046,1.046,0,0,1-.547-.155l-7.8-4.745a1.054,1.054,0,1,1,1.1-1.8l7.794,4.745a1.054,1.054,0,0,1-.547,1.955Z" transform="translate(-1659.417 -1228.748)"/>
      </g>
      <g id="Group_1923" data-name="Group 1923" transform="translate(19.688 24.526)">
        <path id="Path_15037" data-name="Path 15037" d="M1677.582,1241.277a1.055,1.055,0,0,1-.547-.155l-13.3-8.1a1.053,1.053,0,1,1,1.093-1.8l13.3,8.1a1.055,1.055,0,0,1-.55,1.955Z" transform="translate(-1663.231 -1231.069)"/>
      </g>
      <g id="Group_1924" data-name="Group 1924" transform="translate(0 47.798)">
        <path id="Path_15038" data-name="Path 15038" d="M1663.221,1242.094c-.037,0-.076,0-.118-.006l-5.92-.656a1.054,1.054,0,1,1,.231-2.1l5.923.656a1.054,1.054,0,0,1-.116,2.1Z" transform="translate(-1656.244 -1239.329)"/>
      </g>
      <g id="Group_1925" data-name="Group 1925" transform="translate(9.287 48.828)">
        <path id="Path_15039" data-name="Path 15039" d="M1668.044,1242.627c-.037,0-.076,0-.115-.005l-7.453-.826a1.055,1.055,0,0,1,.234-2.1l7.45.826a1.054,1.054,0,0,1-.116,2.1Z" transform="translate(-1659.54 -1239.694)"/>
      </g>
      <g id="Group_1926" data-name="Group 1926" transform="translate(20.121 50.027)">
        <path id="Path_15040" data-name="Path 15040" d="M1668.968,1242.73c-.037,0-.076,0-.116-.006l-4.528-.5a1.055,1.055,0,1,1,.231-2.1l4.528.5a1.054,1.054,0,0,1-.116,2.1Z" transform="translate(-1663.385 -1240.12)"/>
      </g>
      <g id="Group_1927" data-name="Group 1927" transform="translate(78.742 0.813)">
        <path id="Path_15041" data-name="Path 15041" d="M1685.243,1231.172a1.044,1.044,0,0,1-.8-.364,1.056,1.056,0,0,1,.107-1.488l7.408-6.411a1.055,1.055,0,0,1,1.38,1.6l-7.408,6.41A1.054,1.054,0,0,1,1685.243,1231.172Z" transform="translate(-1684.189 -1222.654)"/>
      </g>
      <g id="Group_1928" data-name="Group 1928" transform="translate(69.694 9.184)">
        <path id="Path_15042" data-name="Path 15042" d="M1682.032,1233.6a1.045,1.045,0,0,1-.8-.364,1.057,1.057,0,0,1,.107-1.488l6.782-5.869a1.055,1.055,0,0,1,1.38,1.595l-6.782,5.869A1.056,1.056,0,0,1,1682.032,1233.6Z" transform="translate(-1680.978 -1225.625)"/>
      </g>
      <g id="Group_1929" data-name="Group 1929" transform="translate(100.14 23.565)">
        <path id="Path_15043" data-name="Path 15043" d="M1692.837,1236.092a1.055,1.055,0,0,1-.575-1.938l5-3.255a1.055,1.055,0,0,1,1.15,1.77l-5,3.252A1.051,1.051,0,0,1,1692.837,1236.092Z" transform="translate(-1691.783 -1230.729)"/>
      </g>
      <g id="Group_1930" data-name="Group 1930" transform="translate(94.38 28.574)">
        <path id="Path_15044" data-name="Path 15044" d="M1690.793,1236.6a1.054,1.054,0,0,1-.575-1.939l3.057-1.986a1.054,1.054,0,1,1,1.149,1.767l-3.057,1.989A1.049,1.049,0,0,1,1690.793,1236.6Z" transform="translate(-1689.739 -1232.506)"/>
      </g>
      <g id="Group_1931" data-name="Group 1931" transform="translate(88.639 32.463)">
        <path id="Path_15045" data-name="Path 15045" d="M1688.757,1237.825a1.054,1.054,0,0,1-.575-1.939l2.815-1.829a1.054,1.054,0,1,1,1.15,1.767l-2.815,1.832A1.048,1.048,0,0,1,1688.757,1237.825Z" transform="translate(-1687.702 -1233.886)"/>
      </g>
      <g id="Group_1932" data-name="Group 1932" transform="translate(82.025 35.912)">
        <path id="Path_15046" data-name="Path 15046" d="M1686.408,1239.9a1.052,1.052,0,0,1-.575-1.936l4.125-2.683a1.055,1.055,0,1,1,1.149,1.769l-4.125,2.68A1.049,1.049,0,0,1,1686.408,1239.9Z" transform="translate(-1685.354 -1235.11)"/>
      </g>
      <g id="Group_1933" data-name="Group 1933" transform="translate(101.735 55.69)">
        <path id="Path_15047" data-name="Path 15047" d="M1701.583,1246.448a1.03,1.03,0,0,1-.276-.04l-8.177-2.2a1.055,1.055,0,0,1,.55-2.037l8.177,2.206a1.055,1.055,0,0,1-.274,2.074Z" transform="translate(-1692.349 -1242.13)"/>
      </g>
      <g id="Group_1934" data-name="Group 1934" transform="translate(89.213 52.314)">
        <path id="Path_15048" data-name="Path 15048" d="M1698.114,1245.512a1.034,1.034,0,0,1-.276-.037l-9.152-2.468a1.055,1.055,0,1,1,.549-2.037l9.152,2.469a1.055,1.055,0,0,1-.273,2.074Z" transform="translate(-1687.905 -1240.932)"/>
      </g>
    </g>
    <g id="Group_1936" data-name="Group 1936" transform="translate(1706.243 1264.35)">
      <path id="Path_15049" data-name="Path 15049" d="M1674.44,1236.214s-1.147,9.135,5.345,9.135,6.791-4.224,6.791-4.224-4.974.209-4.134-1.409a2.442,2.442,0,0,1,3.263-.873c.42.3,4.1-2.22.984-2.888A24.755,24.755,0,0,0,1674.44,1236.214Z" transform="translate(-1673.308 -1234.284)" fill="#283a97"/>
      <path id="Path_15050" data-name="Path 15050" d="M1680.466,1247.084a5.679,5.679,0,0,1-4.466-1.9c-2.581-2.925-1.953-8.2-1.925-8.425a1.055,1.055,0,0,1,.7-.865,25.678,25.678,0,0,1,12.818-.29c1.5.321,1.944,1.085,2.048,1.671.251,1.415-1.3,2.516-1.778,2.818-.888.563-1.569.656-2.091.284a2.162,2.162,0,0,0-.634-.1,1.243,1.243,0,0,0-.805.256,11.6,11.6,0,0,0,2.88.211,1.077,1.077,0,0,1,.8.318,1.064,1.064,0,0,1,.3.808C1688.3,1241.933,1687.854,1247.084,1680.466,1247.084Zm-4.35-9.375c-.068,1.356-.026,4.4,1.468,6.086a3.614,3.614,0,0,0,2.882,1.178c3.3,0,4.708-1.181,5.306-2.116-1.415-.071-2.979-.366-3.55-1.265a1.643,1.643,0,0,1-.037-1.68,3.112,3.112,0,0,1,2.085-1.634,3.981,3.981,0,0,1,2.28.149,3.549,3.549,0,0,0,.876-.688c-.073-.022-.164-.048-.276-.073A25.046,25.046,0,0,0,1676.116,1237.709Z" transform="translate(-1673.988 -1234.965)"/>
    </g>
    <g id="Group_1937" data-name="Group 1937" transform="translate(1689.826 1281.384)">
      <path id="Path_15051" data-name="Path 15051" d="M1690.013,1255.414a12.32,12.32,0,0,1-7.864-2.5c-5.176-4.176-13.452-9.924-13.536-9.98a1.055,1.055,0,0,1,1.2-1.733c.085.056,8.419,5.847,13.657,10.073,5.086,4.1,14.8,1.958,22.6-4.981a1.055,1.055,0,1,1,1.4,1.575C1701.969,1252.768,1695.5,1255.414,1690.013,1255.414Z" transform="translate(-1668.162 -1241.01)"/>
    </g>
    <g id="Group_1938" data-name="Group 1938" transform="translate(1730.766 1281.628)">
      <path id="Path_15052" data-name="Path 15052" d="M1683.747,1244.744a1.051,1.051,0,0,1-.747-1.795,6.561,6.561,0,0,1,4.737-1.837,1.058,1.058,0,0,1,.969,1.133,1.048,1.048,0,0,1-1.133.969,4.605,4.605,0,0,0-3.086,1.229A1.05,1.05,0,0,1,1683.747,1244.744Z" transform="translate(-1682.692 -1241.097)"/>
    </g>
    <g id="Group_1939" data-name="Group 1939" transform="translate(1685.764 1287.536)">
      <path id="Path_15053" data-name="Path 15053" d="M1681.031,1252.271a1.184,1.184,0,0,1-.237-.026,10.4,10.4,0,0,1-4.979-3.4c-1.62-1.871-6.506-3.209-8.253-3.567a1.056,1.056,0,0,1-.82-1.245,1.044,1.044,0,0,1,1.245-.82c.713.144,7.047,1.51,9.423,4.252a8.486,8.486,0,0,0,3.866,2.722,1.055,1.055,0,0,1-.245,2.08Z" transform="translate(-1666.72 -1243.194)"/>
    </g>
    <g id="Group_1940" data-name="Group 1940" transform="translate(1704.765 1296.822)">
      <path id="Path_15054" data-name="Path 15054" d="M1683.211,1250.324a28.016,28.016,0,0,1-9.079-1.8,1.055,1.055,0,0,1,.772-1.964c.071.028,7.019,2.728,11.688,1.172a1.054,1.054,0,1,1,.667,2A12.876,12.876,0,0,1,1683.211,1250.324Z" transform="translate(-1673.464 -1246.489)"/>
    </g>
    <g id="Group_1941" data-name="Group 1941" transform="translate(1724.672 1287.551)">
      <path id="Path_15055" data-name="Path 15055" d="M1681.583,1253.29a1.052,1.052,0,0,1-.707-1.834c1.75-1.586,10.679-9.42,14.635-8.109a1.054,1.054,0,1,1-.665,2c-2.063-.687-8.58,4.074-12.556,7.67A1.055,1.055,0,0,1,1681.583,1253.29Z" transform="translate(-1680.529 -1243.199)"/>
    </g>
    <g id="Group_1942" data-name="Group 1942" transform="translate(1693.274 1259.239)">
      <path id="Path_15056" data-name="Path 15056" d="M1670.441,1241.446a1.054,1.054,0,0,1-.646-1.888c.561-.431,13.874-10.482,29.1-4.525a1.054,1.054,0,1,1-.766,1.964c-14.131-5.526-26.918,4.134-27.044,4.229A1.039,1.039,0,0,1,1670.441,1241.446Z" transform="translate(-1669.385 -1233.151)"/>
    </g>
    <g id="Group_1943" data-name="Group 1943" transform="translate(1725.383 1263.36)">
      <path id="Path_15057" data-name="Path 15057" d="M1690.623,1242.719a1.062,1.062,0,0,1-.231-.026c-2.987-.67-8.628-5.672-9.262-6.241a1.054,1.054,0,0,1,1.409-1.569c1.609,1.443,6.236,5.286,8.312,5.754a1.054,1.054,0,0,1-.228,2.082Z" transform="translate(-1680.781 -1234.614)"/>
    </g>
    <g id="Group_1944" data-name="Group 1944" transform="translate(1698.03 1255.613)">
      <path id="Path_15058" data-name="Path 15058" d="M1672.129,1236.91a1.054,1.054,0,0,1-.493-1.987,29.341,29.341,0,0,1,14.2-3,1.055,1.055,0,0,1-.149,2.1,27.462,27.462,0,0,0-13.066,2.764A1.075,1.075,0,0,1,1672.129,1236.91Z" transform="translate(-1671.073 -1231.864)"/>
    </g>
    <g id="Group_1945" data-name="Group 1945" transform="translate(1690.359 1296.823)">
      <path id="Path_15059" data-name="Path 15059" d="M1668.725,1246.863s9.372,5.137,14.559,4.79" transform="translate(-1667.671 -1245.81)" fill="#fff"/>
      <path id="Path_15060" data-name="Path 15060" d="M1683.454,1253.4c-5.49,0-14.176-4.725-14.556-4.934a1.055,1.055,0,0,1,1.014-1.851c.09.051,9.2,4.982,13.979,4.66a1.037,1.037,0,0,1,1.124.983,1.053,1.053,0,0,1-.98,1.122C1683.843,1253.395,1683.651,1253.4,1683.454,1253.4Z" transform="translate(-1668.351 -1246.489)"/>
    </g>
    <g id="Group_1946" data-name="Group 1946" transform="translate(1678.629 1301.627)">
      <path id="Path_15061" data-name="Path 15061" d="M1664.562,1248.569s3.815,5.069,5.878,5.069" transform="translate(-1663.508 -1247.514)" fill="#fff"/>
      <path id="Path_15062" data-name="Path 15062" d="M1671.12,1255.376c-2.4,0-5.75-4.2-6.72-5.495a1.054,1.054,0,0,1,1.685-1.265c1.657,2.2,4.131,4.649,5.036,4.649a1.055,1.055,0,0,1,0,2.11Z" transform="translate(-1664.188 -1248.194)"/>
    </g>
    <g id="Group_1947" data-name="Group 1947" transform="translate(1701.449 1305.766)">
      <path id="Path_15063" data-name="Path 15063" d="M1672.661,1250.037s14.285,4.2,20.135,3.269" transform="translate(-1671.607 -1248.983)" fill="#fff"/>
      <path id="Path_15064" data-name="Path 15064" d="M1691.51,1255.174c-6.672,0-17.935-3.291-18.467-3.446a1.055,1.055,0,1,1,.6-2.023c.138.042,14.123,4.125,19.671,3.24a1.044,1.044,0,0,1,1.209.873,1.057,1.057,0,0,1-.877,1.209A13.981,13.981,0,0,1,1691.51,1255.174Z" transform="translate(-1672.286 -1249.663)"/>
    </g>
    <g id="Group_1948" data-name="Group 1948" transform="translate(1727.386 1295.534)">
      <path id="Path_15065" data-name="Path 15065" d="M1681.866,1256.637a58.515,58.515,0,0,0,11.325-5.813c2.978-2.153,11.321-4.418,11.321-4.418" transform="translate(-1680.812 -1245.352)" fill="#fff"/>
      <path id="Path_15066" data-name="Path 15066" d="M1682.546,1258.371a1.054,1.054,0,0,1-.371-2.04,57.912,57.912,0,0,0,11.079-5.681c3.1-2.24,11.316-4.489,11.666-4.581a1.054,1.054,0,1,1,.552,2.034c-.082.023-8.194,2.243-10.983,4.255a58.738,58.738,0,0,1-11.569,5.946A1.077,1.077,0,0,1,1682.546,1258.371Z" transform="translate(-1681.492 -1246.032)"/>
    </g>
    <g id="Group_1949" data-name="Group 1949" transform="translate(1740.331 1305.766)">
      <path id="Path_15067" data-name="Path 15067" d="M1686.46,1253.441a57.079,57.079,0,0,1,9.882-3.4" transform="translate(-1685.406 -1248.983)" fill="#fff"/>
      <path id="Path_15068" data-name="Path 15068" d="M1687.14,1255.174a1.054,1.054,0,0,1-.431-2.015,57.1,57.1,0,0,1,10.124-3.48,1.054,1.054,0,0,1,.378,2.074,55.9,55.9,0,0,0-9.64,3.33A1.072,1.072,0,0,1,1687.14,1255.174Z" transform="translate(-1686.086 -1249.663)"/>
    </g>
    <g id="Group_1950" data-name="Group 1950" transform="translate(1754.609 1311.604)">
      <path id="Path_15069" data-name="Path 15069" d="M1691.527,1253.509s1.894-.758,4.176-1.4" transform="translate(-1690.473 -1251.056)" fill="#fff"/>
      <path id="Path_15070" data-name="Path 15070" d="M1692.209,1255.245a1.055,1.055,0,0,1-.394-2.034c.079-.031,1.972-.789,4.283-1.437a1.054,1.054,0,1,1,.569,2.029c-2.2.62-4.049,1.358-4.066,1.367A1.072,1.072,0,0,1,1692.209,1255.245Z" transform="translate(-1691.153 -1251.735)"/>
    </g>
    <g id="Group_1951" data-name="Group 1951" transform="translate(1710.97 1248.846)">
      <path id="Path_15071" data-name="Path 15071" d="M1676.04,1229.837s11.9,2.361,14.413,4.528" transform="translate(-1674.986 -1228.782)" fill="#fff"/>
      <path id="Path_15072" data-name="Path 15072" d="M1691.133,1236.1a1.055,1.055,0,0,1-.688-.256c-1.679-1.445-9.436-3.4-13.93-4.292a1.054,1.054,0,1,1,.411-2.068c1.245.248,12.246,2.479,14.9,4.765a1.054,1.054,0,0,1-.69,1.851Z" transform="translate(-1675.666 -1229.463)"/>
    </g>
    <g id="Group_1952" data-name="Group 1952" transform="translate(1703.849 1241.655)">
      <path id="Path_15073" data-name="Path 15073" d="M1673.513,1229.748s5.514-2.336,8.963-2.463" transform="translate(-1672.458 -1226.23)" fill="#fff"/>
      <path id="Path_15074" data-name="Path 15074" d="M1674.194,1231.482a1.054,1.054,0,0,1-.411-2.026c.231-.1,5.734-2.412,9.335-2.544a1.044,1.044,0,0,1,1.093,1.014,1.057,1.057,0,0,1-1.015,1.093c-3.212.118-8.54,2.355-8.594,2.378A1.057,1.057,0,0,1,1674.194,1231.482Z" transform="translate(-1673.139 -1226.911)"/>
    </g>
    <g id="Group_1953" data-name="Group 1953" transform="translate(1711.516 1233.871)">
      <path id="Path_15075" data-name="Path 15075" d="M1676.234,1224.522s6.687,2.646,7.332,3.874" transform="translate(-1675.179 -1223.469)" fill="#fff"/>
      <path id="Path_15076" data-name="Path 15076" d="M1684.249,1230.13a1.052,1.052,0,0,1-.936-.563c-.44-.581-3.869-2.229-6.788-3.384a1.055,1.055,0,0,1,.778-1.961c2.632,1.042,7.157,3,7.876,4.362a1.053,1.053,0,0,1-.44,1.426A1.071,1.071,0,0,1,1684.249,1230.13Z" transform="translate(-1675.86 -1224.148)"/>
    </g>
    <g id="Group_1954" data-name="Group 1954" transform="translate(1706.243 1229.516)">
      <path id="Path_15077" data-name="Path 15077" d="M1674.362,1227.34s4.708-5.345,6.061-4.21" transform="translate(-1673.308 -1221.931)" fill="#fff"/>
      <path id="Path_15078" data-name="Path 15078" d="M1675.042,1229.068a1.057,1.057,0,0,1-.792-1.753c2.457-2.789,5.756-5.807,7.532-4.32a1.055,1.055,0,0,1-1.223,1.711c-.744.121-2.941,1.978-4.725,4A1.051,1.051,0,0,1,1675.042,1229.068Z" transform="translate(-1673.988 -1222.602)"/>
    </g>
    <g id="Group_1955" data-name="Group 1955" transform="translate(1675.688 1312.304)">
      <path id="Path_15079" data-name="Path 15079" d="M1663.518,1252.358a125.783,125.783,0,0,0,28.276,2.567" transform="translate(-1662.466 -1251.303)" fill="#fff"/>
      <path id="Path_15080" data-name="Path 15080" d="M1689.345,1256.71a129.23,129.23,0,0,1-25.382-2.646,1.053,1.053,0,0,1,.467-2.054,126.247,126.247,0,0,0,28.011,2.542,1.054,1.054,0,0,1,.065,2.108C1691.444,1256.693,1690.388,1256.71,1689.345,1256.71Z" transform="translate(-1663.145 -1251.984)"/>
    </g>
    <g id="Group_1956" data-name="Group 1956" transform="translate(1721.685 1311.604)">
      <path id="Path_15081" data-name="Path 15081" d="M1679.842,1255.428s10.253-.885,14.449-3.319" transform="translate(-1678.79 -1251.055)" fill="#fff"/>
      <path id="Path_15082" data-name="Path 15082" d="M1680.521,1257.162a1.055,1.055,0,0,1-.09-2.1c.1-.008,10.068-.893,14.009-3.181a1.055,1.055,0,1,1,1.059,1.826c-4.35,2.522-14.46,3.418-14.889,3.455Z" transform="translate(-1679.469 -1251.735)"/>
    </g>
  </g>
</svg>
