<svg version="1.1" xmlns="http://www.w3.org/2000/svg" x="0" y="0" viewBox="20 0 1250 500" xml:space="preserve">
  <style>
    .st0{fill:#fff}
    .yellow{fill:#d39e42}
    .blue{fill:#222dc5}
    .red{fill:#d04a39}
  </style>
  <path class="st0" d="M22.2 0h1280v502H22.2V0z"/>
  <g transform="translate(624.049 20.65)">
    <path class="yellow" d="M62.3 11.4c-1 0-1.8-.8-1.8-1.8V1.8c0-1 .7-1.8 1.7-1.8S64 .7 64 1.7v8c0 .9-.8 1.7-1.7 1.7zM62.3 70.6c-1 0-1.8-.8-1.8-1.8v-6c0-1 .7-1.8 1.7-1.8s1.8.7 1.8 1.7v6.1c0 1-.8 1.8-1.7 1.8zM62.3 58.4c-1 0-1.8-.8-1.8-1.8V17.3c0-1 .7-1.8 1.7-1.8s1.8.7 1.8 1.7v39.4c0 1-.8 1.7-1.7 1.8zM76.3 54.7c-.2 0-.3 0-.5-.1-.9-.3-1.5-1.2-1.2-2.1l7.8-27.6c.3-.9 1.2-1.5 2.2-1.2.9.3 1.4 1.2 1.2 2.1L78 53.4c-.2.7-.9 1.3-1.7 1.3zM71.6 71.4c-.2 0-.3 0-.5-.1-.9-.3-1.5-1.2-1.2-2.1L73.1 58c.2-.9 1.2-1.5 2.1-1.3.9.2 1.5 1.2 1.3 2.1v.1l-3.1 11.2c-.3.8-1 1.3-1.8 1.3zM80.5 75.3c-.3 0-.6-.1-.9-.3-.8-.5-1.1-1.6-.6-2.4l14-23.3c.5-.8 1.6-1 2.4-.5.8.5 1 1.5.6 2.3L82 74.4c-.3.6-.9.9-1.5.9zM98 45.7c-.3 0-.6-.1-.9-.3-.8-.5-1.1-1.6-.6-2.4l3.9-6.4c.5-.9 1.5-1.2 2.4-.7s1.2 1.5.7 2.4c0 0 0 .1-.1.1l-3.9 6.4c-.3.6-.9.9-1.5.9zM88.7 81.5c-1 0-1.8-.8-1.8-1.8 0-.5.2-.9.5-1.2l16.3-17.1c.7-.7 1.8-.7 2.5 0s.7 1.8 0 2.5L89.9 81c-.3.3-.7.5-1.2.5zM27 98.6c-.2 0-.4 0-.6-.1L19.6 96c-.9-.3-1.4-1.3-1.1-2.2.3-.9 1.3-1.4 2.2-1.1l6.8 2.5c.9.3 1.4 1.3 1.1 2.2-.2.7-.8 1.2-1.6 1.2zM13.8 93.5c-.2 0-.4 0-.6-.1l-6.8-2.5c-.9-.3-1.4-1.3-1.1-2.2.3-.9 1.3-1.4 2.2-1.1l6.8 2.5c.9.3 1.4 1.3 1.1 2.2-.2.7-.9 1.2-1.6 1.2z"/>
    <ellipse class="yellow" cx="62.8" cy="108.5" rx="34.1" ry="33.7"/>
    <path class="yellow" d="M112.8 93.5c-.7 0-1.4-.5-1.7-1.2-.3-.9.1-1.9 1-2.2h.1l6.8-2.5c.9-.3 1.9.2 2.2 1.1.3.9-.1 1.9-1 2.2h-.1l-6.8 2.5c-.1.1-.3.1-.5.1zM98.5 98.6c-.7 0-1.4-.5-1.7-1.2-.3-.9.2-1.9 1.1-2.2l6.8-2.5c.9-.3 1.9.2 2.2 1.1.3.9-.1 1.9-1 2.2h-.1L99 98.5c-.1.1-.3.1-.5.1zM41.8 34.1c-.8 0-1.5-.5-1.7-1.3l-2-7.4c-.3-.9.3-1.9 1.2-2.2.9-.3 1.9.3 2.2 1.2v.1l2 7.4c.2.9-.3 1.9-1.2 2.1-.2.1-.3.1-.5.1zM52.1 72c-.8 0-1.5-.5-1.7-1.3l-8.2-30.2c-.3-.9.3-1.9 1.2-2.2.9-.3 1.9.3 2.2 1.2v.1l8.2 30.2c.2.9-.3 1.9-1.2 2.1-.2.1-.4.1-.5.1zM40.8 72c-.6 0-1.2-.4-1.5-.9L26.1 47.3c-.5-.9-.1-1.9.7-2.4.8-.4 1.9-.1 2.3.7l13.1 23.8c.5.9.1 1.9-.7 2.4-.2.1-.5.2-.7.2zM28.7 89.9c-.4 0-.7-.1-1-.3l-7.6-5.2c-.8-.5-1-1.6-.5-2.5.5-.8 1.6-1 2.5-.5l7.6 5.2c.8.6 1 1.6.5 2.5-.3.5-.9.8-1.5.8zM17 81.7c-.4 0-.7-.1-1-.3l-6.6-4.5c-.8-.5-1-1.6-.5-2.5.5-.8 1.6-1 2.5-.5l6.6 4.5c.8.6 1 1.6.5 2.5-.4.6-.9.8-1.5.8zM35.8 81.7c-.5 0-.9-.2-1.3-.5L18 63.8c-.7-.7-.6-1.8.1-2.5s1.8-.6 2.5.1l16.5 17.4c.7.7.6 1.8-.1 2.5-.4.3-.8.4-1.2.4zM100.1 106.5c-.9 0-1.6-.7-1.7-1.6-.1-1 .6-1.8 1.6-1.9l23.9-2.3c1-.1 1.8.6 2 1.5.1 1-.6 1.8-1.5 2h-.1l-23.9 2.3h-.3zM94.5 89.9c-.6 0-1.1-.3-1.5-.8-.5-.8-.3-1.9.5-2.5l7.6-5.2c.8-.6 1.9-.4 2.5.4.6.8.4 1.9-.4 2.5l-7.6 5.2c-.4.3-.8.4-1.1.4zM106.2 81.7c-.6 0-1.1-.3-1.5-.8-.5-.8-.3-1.9.5-2.5l6.6-4.5c.8-.6 1.9-.4 2.5.4.6.8.4 1.9-.4 2.5l-6.6 4.5c-.4.3-.7.4-1.1.4zM125.4 119.9h-.3l-23.3-3.9c-1-.1-1.6-1-1.5-2 .1-1 1-1.6 2-1.5h.1l23.3 3.9c1 .2 1.6 1.1 1.5 2-.2.9-.9 1.5-1.8 1.5zM106.9 128.9c-.2 0-.4 0-.6-.1l-8.6-3.3c-.9-.3-1.4-1.3-1.1-2.2.3-.9 1.3-1.4 2.2-1.1h.1l8.6 3.3c.9.3 1.3 1.3 1 2.2-.2.7-.8 1.2-1.6 1.2zM119.2 133.6c-.2 0-.4 0-.6-.1l-7.4-2.9c-.9-.4-1.3-1.4-.9-2.3.4-.8 1.3-1.3 2.2-1l7.4 2.9c.9.3 1.3 1.3 1 2.2-.3.8-1 1.2-1.7 1.2z"/>
  </g>
  <path class="st0" d="M489.2 86.5S756.3 121.7 792 210.8L584.2 378.5l-95-16.3V86.5z"/>
  <path d="M563.6 306l270.8-179.8 145.3 82 215.2-52.8 109.6 29.4v146.6H834.9l-203.8 83.9L563.6 306z" fill="#e6e0d6"/>
  <path d="M467.2 189l235.4 312.7H0V272.2l115.1-117.4 93 42.2 151-80.3L467.2 189z" fill="#f5f2ee"/>
  <path class="st0" d="M1304.5 331.4c-15.5 38.7.1 64.3.1 64.3v106h-727s56.6-177.3 196.1-180.6 207.4-28.7 266.5-47.3c59.1-18.6 135.1 9.6 213.9 20.9 29.3 4.3 43.8 19.4 50.4 36.7"/>
  <path class="blue" d="M613.3 150.6c-1 0-1.8-.8-1.8-1.8V95.9l-6.1 10.4c-.5.8-1.6 1.1-2.4.6-.8-.5-1.1-1.6-.6-2.4l9.3-15.9c.4-.7 1.2-1 2-.8.8.2 1.3.9 1.3 1.7v59.3c0 1-.7 1.7-1.7 1.8z"/>
  <path class="blue" d="M623.1 107.2c-.6 0-1.2-.3-1.5-.8l-9.8-16c-.5-.8-.3-1.9.6-2.4.8-.5 1.9-.3 2.4.6l9.8 16c.5.8.2 1.9-.6 2.4-.3.1-.6.2-.9.2zM602.5 123.8c-1 0-1.8-.8-1.8-1.8 0-.4.1-.7.3-1l10.8-15c.3-.5.9-.7 1.4-.7.6 0 1.1.3 1.4.7l11 14.8c.6.8.4 1.9-.3 2.5-.8.6-1.9.4-2.5-.3l-9.5-12.9-9.4 13c-.3.4-.8.7-1.4.7z"/>
  <path class="blue" d="M602.2 140.8c-.4 0-.7-.1-1-.3-.8-.5-1-1.6-.4-2.4l11.1-15.7c.3-.5.9-.7 1.5-.7s1.1.3 1.4.8l10.4 15.2c.5.8.3 1.9-.5 2.4s-1.9.3-2.4-.5l-9-13.2-9.6 13.7c-.4.4-.9.7-1.5.7zM169.1 189.2c-1 0-1.8-.8-1.8-1.8v-59.7l-7.1 12.2c-.5.8-1.6 1.1-2.4.6s-1.1-1.6-.6-2.4l10.4-17.8c.4-.7 1.2-1 2-.8.8.2 1.3.9 1.3 1.7v66.1c0 1.1-.8 1.9-1.8 1.9z"/>
  <path class="blue" d="M180.1 140.9c-.6 0-1.2-.3-1.5-.8l-10.9-17.8c-.5-.8-.3-1.9.6-2.4.8-.5 1.9-.3 2.4.6l10.9 17.8c.5.8.2 1.9-.6 2.4-.3.1-.6.2-.9.2zM157.1 159.4c-1 0-1.8-.8-1.8-1.8 0-.4.1-.7.3-1l12.1-16.7c.3-.5.9-.7 1.4-.7.6 0 1.1.3 1.4.7l12.2 16.5c.6.8.4 1.9-.3 2.5s-1.9.4-2.5-.3L169.1 144l-10.7 14.7c-.2.4-.8.7-1.3.7z"/>
  <path class="blue" d="M156.8 178.3c-.4 0-.7-.1-1-.3-.8-.5-1-1.6-.4-2.4l12.4-17.5c.3-.5.9-.7 1.4-.7.6 0 1.1.3 1.4.8l11.6 17c.5.8.3 1.9-.5 2.4s-1.9.3-2.4-.5l-10.2-14.9-10.9 15.5c-.3.3-.9.6-1.4.6z"/>
  <g>
    <path class="blue" d="M1113.2 399.6c-1 0-1.8-.8-1.8-1.8v-80.4l-10.4 17.8c-.5.8-1.5 1.1-2.3.6-.8-.5-1.1-1.6-.6-2.4l13.7-23.3c.4-.7 1.2-1 2-.8.8.2 1.3.9 1.3 1.7v86.9c-.1.9-.9 1.7-1.9 1.7z"/>
    <path class="blue" d="M1127.6 336.2c-.6 0-1.2-.3-1.5-.8l-14.3-23.4c-.5-.8-.3-1.9.6-2.4.8-.5 1.9-.3 2.4.6l14.3 23.4c.5.8.2 1.9-.6 2.4-.3 0-.6.1-.9.2zM1097.4 360.5c-1 0-1.8-.8-1.8-1.8 0-.4.1-.7.3-1l15.9-21.9c.3-.5.9-.7 1.4-.7.6 0 1.1.3 1.4.7l16.1 21.7c.6.8.4 1.9-.3 2.5-.8.6-1.9.4-2.5-.3l-14.7-19.8-14.5 20c-.2.3-.7.6-1.3.6z"/>
    <path class="blue" d="M1097 385.3c-.4 0-.7-.1-1-.3-.8-.5-1-1.6-.4-2.4l16.2-23c.4-.4.9-.7 1.5-.7s1.1.3 1.4.8l15.2 22.3c.6.8.4 1.9-.4 2.4-.8.6-1.9.4-2.4-.4v-.1l-13.8-20.3-14.8 20.9c-.4.5-.9.8-1.5.8z"/>
  </g>
  <g>
    <path class="blue" d="M1181.6 320.2c-1 0-1.8-.8-1.8-1.8v-43l-4.5 7.7c-.5.8-1.6 1.1-2.4.6s-1.1-1.6-.6-2.4l7.8-13.3c.4-.7 1.2-1 2-.8.8.2 1.3.9 1.3 1.7v49.5c-.1 1-.9 1.7-1.8 1.8z"/>
    <path class="blue" d="M1189.7 284c-.6 0-1.2-.3-1.5-.8l-8.2-13.3c-.5-.8-.3-1.9.6-2.4.8-.5 1.9-.3 2.4.6l8.2 13.3c.5.8.2 1.9-.6 2.4-.2.1-.5.2-.9.2zM1172.5 297.9c-1 0-1.8-.8-1.8-1.8 0-.4.1-.7.3-1l9.1-12.5c.3-.5.9-.7 1.4-.7.6 0 1.1.3 1.4.7l9.2 12.4c.6.8.4 1.9-.3 2.5-.8.6-1.9.4-2.5-.3l-7.8-10.4-7.6 10.6c-.3.2-.8.5-1.4.5z"/>
    <path class="blue" d="M1172.3 312c-.4 0-.7-.1-1-.3-.8-.5-1-1.6-.4-2.4l9.2-13.1c.3-.5.9-.7 1.4-.7.6 0 1.1.3 1.4.8l8.7 12.7c.6.8.4 1.9-.4 2.4-.8.6-1.9.4-2.4-.4v-.1l-7.3-10.6-7.8 11c-.3.4-.8.7-1.4.7z"/>
  </g>
  <g>
    <path class="blue" d="M144.8 417.2c-1 0-1.8-.8-1.8-1.8v-67.6l-8.4 14.3c-.5.8-1.6 1.1-2.4.6-.8-.5-1.1-1.6-.6-2.4l11.7-19.9c.4-.7 1.2-1 2-.8.8.2 1.3.9 1.3 1.7v74.1c-.1 1-.9 1.8-1.8 1.8z"/>
    <path class="blue" d="M157 363.1c-.6 0-1.2-.3-1.5-.8l-12.2-19.9c-.5-.8-.3-1.9.6-2.4.8-.5 1.9-.3 2.4.6l12.2 19.9c.5.8.2 1.9-.6 2.4-.3.1-.6.2-.9.2zM131.3 383.8c-1 0-1.8-.8-1.8-1.8 0-.4.1-.7.3-1l13.5-18.7c.3-.5.9-.7 1.4-.7.6 0 1.1.3 1.4.7l13.7 18.5c.6.8.4 1.9-.3 2.5-.8.6-1.9.4-2.5-.3l-12.3-16.6-12.1 16.7c-.2.5-.8.7-1.3.7z"/>
    <path class="blue" d="M130.9 404.9c-.4 0-.7-.1-1-.3-.8-.5-1-1.6-.4-2.4l13.9-19.6c.3-.5.9-.7 1.4-.7.6 0 1.1.3 1.4.8l13 19c.6.8.4 1.9-.4 2.4s-1.9.4-2.4-.4l-11.5-17-12.4 17.5c-.4.5-1 .8-1.6.7z"/>
  </g>
  <g>
    <path class="blue" d="M78.7 242.7c-1 0-1.8-.8-1.8-1.8v-59.7l-7.1 12.2c-.5.8-1.6 1.1-2.4.6s-1.1-1.6-.6-2.4L77.2 174c.4-.7 1.2-1 2-.8.8.2 1.3.9 1.3 1.7V241c0 .9-.8 1.7-1.8 1.7z"/>
    <path class="blue" d="M89.6 194.4c-.6 0-1.2-.3-1.5-.8l-10.9-17.8c-.5-.8-.3-1.9.6-2.4.8-.5 1.9-.3 2.4.6l10.9 17.8c.5.8.2 1.9-.6 2.4-.3.1-.6.2-.9.2zM66.6 212.9c-1 0-1.8-.8-1.8-1.8 0-.4.1-.7.3-1l12.1-16.7c.3-.5.9-.7 1.4-.7.6 0 1.1.3 1.4.7l12.2 16.5c.6.8.4 1.9-.3 2.5s-1.9.4-2.5-.3l-10.8-14.6-10.7 14.7c-.2.5-.7.7-1.3.7z"/>
    <path class="blue" d="M66.3 231.8c-.4 0-.7-.1-1-.3-.8-.5-1-1.6-.4-2.4l12.4-17.5c.3-.5.9-.7 1.5-.7s1.1.3 1.4.8l11.6 17c.5.8.3 1.9-.5 2.4s-1.9.3-2.4-.5l-10.2-14.9L67.8 231c-.3.5-.9.8-1.5.8z"/>
  </g>
  <g>
    <path class="blue" d="M1221 176.9c-1 0-1.8-.8-1.8-1.8v-34.6l-3.2 5.4c-.5.8-1.6 1.1-2.4.6-.8-.5-1.1-1.6-.6-2.4l6.4-11c.4-.7 1.2-1 2-.8.8.2 1.3.9 1.3 1.7v41.1c0 1-.7 1.8-1.7 1.8z"/>
    <path class="blue" d="M1227.7 146.9c-.6 0-1.2-.3-1.5-.8l-6.8-11.1c-.5-.8-.3-1.9.6-2.4.8-.5 1.9-.3 2.4.6l6.8 11.1c.5.8.2 1.9-.6 2.4-.2.1-.5.2-.9.2zM1213.5 158.4c-1 0-1.8-.8-1.8-1.8 0-.4.1-.7.3-1l7.5-10.4c.3-.5.9-.7 1.4-.7.6 0 1.1.3 1.4.7l7.6 10.2c.6.8.4 1.9-.3 2.5-.8.6-1.9.4-2.5-.3l-6.2-8.3-6.1 8.4c-.2.4-.7.7-1.3.7z"/>
    <path class="blue" d="M1213.3 170.1c-.4 0-.7-.1-1-.3-.8-.5-1-1.6-.4-2.4l7.7-10.9c.3-.5.9-.7 1.4-.7.6 0 1.1.3 1.4.8l7.2 10.6c.5.8.3 1.9-.5 2.4s-1.9.3-2.4-.5l-5.8-8.5-6.2 8.8c-.3.5-.8.7-1.4.7z"/>
  </g>
  <g>
    <path class="blue" d="M69.6 364.9c-1 0-1.8-.8-1.8-1.8v-34.6l-3.2 5.4c-.5.8-1.6 1.1-2.4.6-.8-.5-1.1-1.6-.6-2.4l6.4-11c.4-.7 1.2-1 2-.8.8.2 1.3.9 1.3 1.7v41.1c.1 1-.7 1.8-1.7 1.8z"/>
    <path class="blue" d="M76.4 334.9c-.6 0-1.2-.3-1.5-.8l-6.8-11c-.5-.8-.3-1.9.6-2.4.8-.5 1.9-.3 2.4.6l6.8 11c.5.8.2 1.9-.6 2.4-.3.1-.6.2-.9.2zM62.1 346.4c-1 0-1.8-.8-1.8-1.8 0-.4.1-.7.3-1l7.5-10.4c.3-.5.9-.7 1.4-.7.5 0 1.1.3 1.4.7l7.6 10.2c.6.8.4 1.9-.3 2.5-.8.6-1.9.4-2.5-.3l-6.2-8.3-6.1 8.4c-.2.5-.7.7-1.3.7z"/>
    <path class="blue" d="M62 358.2c-.4 0-.7-.1-1-.3-.8-.5-1-1.6-.4-2.4l7.7-10.9c.3-.5.9-.7 1.4-.7.6 0 1.1.3 1.4.8l7.2 10.6c.5.8.3 1.9-.5 2.4s-1.9.3-2.4-.5l-5.8-8.5-6.2 8.8c-.3.4-.9.6-1.4.7z"/>
  </g>
  <path class="st0" d="M318.2 173h690v177h-690V173z"/>
  <g>
    <path class="st0" d="M327.2 182.6h670.9V340H327.2V182.6z"/>
    <path d="M327.7 183.1h669.9v156.4H327.7V183.1z" fill="none" stroke="#d04a39"/>
  </g>
  <g>
    <path class="red" d="M423.8 277.6c-14.6 0-24.1-7.3-24.1-17.7v-.4c0-10.4 9.5-17.7 24.1-17.7 7.7 0 15.1 2.4 19 5.7l-6.5 8.2c-2.7-1.8-6.4-3-10-3-5 0-8.9 2.7-8.9 6.8v.2c0 4.1 3.9 6.8 8.9 6.8 3.9 0 7.9-1.5 10-3l6 8.3c-4.4 3.7-10.9 5.8-18.5 5.8zM450.2 276.3V243h17.4v33.3h-17.4zM503.9 266.2h-9.4v10.1h-17.4V243h26.4c10 0 14.9 5.1 14.9 11.2v.5c0 6-4.5 11.5-14.5 11.5zm-3.1-10.2c0-1.9-.8-2.8-3.4-2.8h-2.9v5.7h2.9c2.6 0 3.4-1 3.4-2.8v-.1zM567.1 277.6c-14.6 0-24.1-7.3-24.1-17.7v-.4c0-10.4 9.5-17.7 24.1-17.7 7.7 0 15.1 2.4 19 5.7l-6.5 8.2c-2.7-1.8-6.4-3-10-3-5 0-8.9 2.7-8.9 6.8v.2c0 4.1 3.9 6.8 8.9 6.8 3.9 0 7.9-1.5 10-3l6 8.3c-4.4 3.7-10.9 5.8-18.5 5.8zM607.2 276.8c-10.9 0-16.5-5.9-16.5-13.5v-.3c0-7.6 5.5-13.6 16.5-13.6 10.9 0 16.5 6 16.5 13.6v.3c0 7.6-5.6 13.5-16.5 13.5zM610 263c0-4.1-1-6.1-2.8-6.1s-2.8 2-2.8 6.1v.2c0 4.1 1 6.1 2.8 6.1s2.8-2 2.8-6.1v-.2zM650.6 276.3v-15.5c0-2-.6-3.2-2.4-3.2-2 0-3.1 1.6-3.1 3.8v14.9h-13.8v-26.5h12.8l.5 5.6c2.8-3.7 6-6 10.3-6 6.8 0 9.4 4.3 9.4 9.4v17.5h-13.7zM689.9 259.4v16.9h-13.8v-16.9H671v-8h5.5v-.3c0-6.7 4.5-10.2 15.2-10.2h3.2v7.5h-1.1c-2.9 0-4 .8-4 2.6v.3h6.6v8h-6.5zM718.9 276.8c-10.9 0-16.6-5.9-16.6-13.5v-.3c0-7.6 5.7-13.6 16.6-13.6 10.9 0 15.9 6 15.9 13.1v2.5h-18.5v.5c0 2.4 1.9 3.2 5 3.2 3.2 0 5.7-.5 8.4-1.4l3.7 5.4c-3.5 2.4-7.9 4.1-14.5 4.1zm2.7-15.5c0-1.8-.7-3.9-2.7-3.9s-2.6 2-2.6 3.9v.2h5.3v-.2zM756 265.3v11.1h-13.8v-26.5H755l.5 6.4c1.5-5.5 5.5-8.3 12.2-6.2l-1 11.4c-7.8-2.4-10.7-.3-10.7 3.8zM790.4 276.8c-10.9 0-16.6-5.9-16.6-13.5v-.3c0-7.6 5.7-13.6 16.6-13.6 10.9 0 15.9 6 15.9 13.1v2.5h-18.5v.5c0 2.4 1.9 3.2 5 3.2 3.2 0 5.7-.5 8.4-1.4l3.7 5.4c-3.6 2.4-7.9 4.1-14.5 4.1zm2.6-15.5c0-1.8-.7-3.9-2.7-3.9s-2.6 2-2.6 3.9v.2h5.3v-.2zM832.9 276.3v-15.5c0-2-.7-3.2-2.4-3.2-2 0-3.1 1.6-3.1 3.8v14.9h-13.8v-26.5h12.8l.4 5.6c2.8-3.7 6-6 10.3-6 6.8 0 9.4 4.3 9.4 9.4v17.5h-13.6zM871.6 276.8c-10.4 0-17.5-6-17.5-13.6v-.3c0-7.6 7.2-13.5 17.4-13.5 6.9 0 11 2 14 4.8l-5 5.9c-1.7-1.2-3.7-2-6.5-2-3.5 0-6.2 1.8-6.2 4.9v.2c0 3 2.6 4.9 6.2 4.9 2.5 0 5-.9 6.5-2.1l5 5.9c-3 2.8-7 4.9-13.9 4.9zM908.2 276.8c-10.9 0-16.6-5.9-16.6-13.5v-.3c0-7.6 5.7-13.6 16.6-13.6 10.9 0 15.9 6 15.9 13.1v2.5h-18.5v.5c0 2.4 1.9 3.2 5 3.2 3.2 0 5.7-.5 8.4-1.4l3.7 5.4c-3.6 2.4-7.9 4.1-14.5 4.1zm2.6-15.5c0-1.8-.6-3.9-2.6-3.9s-2.6 2-2.6 3.9v.2h5.2v-.2z"/>
  </g>
</svg>
