<svg version="1.1" id="Layer_1" xmlns="http://www.w3.org/2000/svg" x="0" y="0" viewBox="0 0 85.4 15.1" xml:space="preserve">
  <style>
    .st0{fill:#d04a39}
  </style>
  <path class="st0" d="M6.1 3.3h2.1l3 8.5H8.8l-.5-1.7H6l-.5 1.7H3.1l3-8.5zm1.8 5.3L7.1 6l-.8 2.6h1.6zM11.6 3.1h2.3v6.3c0 .5.2.7.6.7h.3c.1 0 .2-.1.3-.1l.3 1.7-.9.3c-.3.1-.7.1-1 .1-.6 0-1.1-.2-1.4-.5s-.5-.8-.5-1.4V3.1zM20.1 11.5c-.3.1-.7.3-1 .3-.3.1-.7.2-1.1.2-.3 0-.5 0-.7-.1l-.6-.3c-.2-.1-.3-.3-.4-.6-.1-.2-.2-.5-.2-.9V7.3h-.8V5.5h.8v-2h2.3v2h1.2v1.7h-1.2v2.1c0 .2 0 .4.1.4s.2.1.4.1c.1 0 .2 0 .4-.1s.3-.1.4-.1l.4 1.9zM20.8 5V3.1h2.3V5h-2.3zm0 6.8V5.5h2.3v6.3h-2.3zM28.6 11.5c-.3.1-.7.3-1 .3-.4.1-.7.1-1.1.1-.3 0-.5 0-.7-.1l-.6-.3c-.2-.1-.3-.3-.4-.6-.1-.2-.2-.5-.2-.9V7.3h-.8V5.5h.8v-2h2.3v2h1.2v1.7h-1.2v2.1c0 .2 0 .4.1.4s.2.1.4.1c.1 0 .2 0 .4-.1s.3-.1.4-.1l.4 1.9zM31.2 12c-.6 0-1.1-.2-1.5-.6s-.5-1-.5-1.7V5.5h2.3v3.6c0 .3.1.5.2.6s.3.3.5.3.4 0 .5-.1c.2-.1.4-.3.6-.5V5.5h2.3v3.8c0 .2 0 .4.1.5s.2.1.3.1v1.9c-.4.1-.7.1-1 .1-.8 0-1.2-.3-1.3-.9v-.2c-.3.4-.6.7-1.1.8-.4.3-.9.4-1.4.4zM39.6 12c-.4 0-.8-.1-1.2-.2-.4-.2-.7-.4-.9-.7s-.5-.6-.6-1c-.1-.4-.2-.8-.2-1.3s.1-.9.2-1.3.3-.7.6-1c.2-.3.5-.5.9-.7.3-.2.7-.2 1.1-.2s.8.1 1.1.3c.3.2.6.4.8.8V3.1h2.3v6.2c0 .2 0 .4.1.5.1.1.2.1.3.1v1.9c-.4.1-.7.1-1 .1-.8 0-1.2-.3-1.3-.9v-.2c-.2.4-.5.7-.9.8-.5.3-.9.4-1.3.4zm.6-2c.4 0 .8-.2 1.1-.6V8.3c-.1-.3-.3-.5-.5-.7-.2-.2-.4-.3-.7-.3-.2 0-.3 0-.5.1-.1.1-.3.2-.4.3s-.1.3-.1.5-.1.3-.1.5c0 .4.1.7.3 1 .2.2.5.3.9.3zM48 12c-.6 0-1-.1-1.5-.3-.4-.2-.8-.4-1.1-.7s-.5-.6-.7-1c-.2-.4-.2-.8-.2-1.2 0-.5.1-.9.2-1.3s.4-.8.7-1.1c.3-.3.7-.5 1.1-.7.5-.2 1-.3 1.5-.3.6 0 1.1.1 1.5.3.4.2.8.4 1.1.7.3.3.5.6.7 1s.2.8.2 1.2v.7H47c0 .3.1.6.4.7s.5.2.7.2c.2 0 .5-.1.7-.2.2-.1.4-.3.4-.5l1.9.6c-.3.5-.7.9-1.2 1.2-.4.5-1.1.7-1.9.7zm1-4c0-.3-.2-.5-.3-.7S48.3 7 48 7s-.5.1-.7.3-.3.4-.3.7h2zM54.7 11.8c0-.4 0-.8.1-1.1.1-.3.2-.6.3-.8.1-.2.3-.5.6-.7.2-.2.5-.4.8-.6.4-.2.8-.4 1-.6.3-.1.4-.3.6-.3l.2-.2c0-.1.1-.1.1-.2 0-.2-.1-.3-.2-.4-.1-.1-.3-.1-.5-.1-.3 0-.5.1-.8.2-.2.1-.5.4-.7.7L54.8 6c.2-.2.3-.3.6-.5.2-.1.5-.3.8-.4s.6-.1.9-.1c.3-.1.7-.1 1-.1.9 0 1.6.2 2.1.6.5.4.7.9.7 1.6 0 .2 0 .5-.1.7-.1.2-.1.4-.3.5-.1.2-.2.3-.4.4s-.2.2-.4.3c-.2.1-.4.3-.6.4s-.4.3-.7.4H61v2h-6.3zM68.4 8.3c0 .5-.1 1-.2 1.5-.2.4-.4.8-.7 1.2-.3.3-.6.6-1 .8-.4.2-.8.3-1.3.3s-.9-.1-1.3-.3c-.4-.2-.7-.4-1-.8-.3-.3-.5-.7-.7-1.2-.2-.4-.2-.9-.2-1.5 0-.5.1-1 .2-1.5.3-.4.5-.8.8-1.1.3-.3.6-.6 1-.8.4-.2.8-.3 1.3-.3s.9.1 1.3.3c.4.2.7.4 1 .8.2.3.4.7.6 1.2.1.4.2.9.2 1.4zm-2.3 0c0-.5-.1-.8-.2-1.1s-.4-.4-.6-.4c-.3 0-.5.1-.7.4s-.2.7-.2 1.1c0 .5.1.8.2 1.1.2.3.4.4.7.4.3 0 .5-.1.6-.4.1-.2.2-.6.2-1.1zM75.2 9.8v2h-5.6v-2h1.7V7.4l-.3.3c-.2.1-.3.2-.5.3-.2.1-.4.1-.6.2-.2 0-.4.1-.5.1V6.1c.1 0 .3 0 .5-.1l.6-.3c.2-.1.4-.2.5-.4.2-.1.3-.2.3-.3h2.3v4.8h1.6zM82.4 9.2c0 .4-.1.8-.3 1.1-.2.3-.4.6-.7.9-.3.2-.6.4-1 .6-.4.1-.8.2-1.3.2-.4 0-.8-.1-1.2-.2-.4-.1-.7-.3-1-.6s-.5-.5-.7-.9c-.2-.4-.3-.7-.3-1.2 0-.2 0-.4.1-.6.1-.2.1-.4.2-.5.1-.2.2-.3.3-.4.1-.1.2-.2.4-.3-.2-.1-.4-.3-.6-.6-.1-.3-.2-.5-.2-.8 0-.4.1-.8.3-1.1.2-.3.4-.6.7-.8.3-.2.6-.4 1-.5.4-.1.7-.2 1-.2.3 0 .7.1 1 .2.4.1.7.3 1 .5.3.2.5.5.7.8.2.3.3.7.3 1.1 0 .3-.1.6-.2.8-.2.3-.3.5-.6.6.1.1.2.2.4.3s.2.3.3.4c.1.2.2.3.2.5s.2.5.2.7zM80 9.1c0-.3-.1-.5-.3-.6-.2-.1-.4-.2-.6-.2-.3 0-.5.1-.6.2-.2.1-.3.4-.3.6 0 .2.1.4.3.6.2.2.4.2.6.2.3 0 .5-.1.6-.2s.3-.4.3-.6zm-1.5-3.2c0 .2.1.4.2.5s.3.2.5.2.3-.1.5-.2c.1-.1.2-.3.2-.5s-.1-.3-.2-.4c-.1-.1-.3-.2-.5-.2s-.4.1-.5.2c-.2.1-.2.2-.2.4z"/>
</svg>
