<svg version="1.1" id="Layer_1" xmlns="http://www.w3.org/2000/svg" x="0" y="0" viewBox="0 0 32.8 12.2" xml:space="preserve">
  <style>
    .st0{fill:#d04a39}
  </style>
  <path class="st0" d="M7.9 10.4c-3.5 0-5.8-1.8-5.8-4.2V6c0-2.5 2.3-4.2 5.8-4.2 1.8 0 3.6.6 4.6 1.4l-1.6 2c-.6-.4-1.5-.7-2.4-.7-1.2 0-2.1.6-2.1 1.6s.9 1.6 2.1 1.6c.9 0 1.9-.3 2.4-.7l1.4 2c-1 .9-2.5 1.4-4.4 1.4zM14.3 10.1v-8h4.2v8h-4.2zM27.2 7.7h-2.3v2.4h-4.2v-8H27c2.4 0 3.6 1.2 3.6 2.7v.1c.1 1.4-1 2.8-3.4 2.8zm-.8-2.5c0-.4-.2-.7-.8-.7h-.7v1.4h.7c.6 0 .8-.2.8-.7z"/>
</svg>
