<?xml version="1.0" encoding="utf-8"?>
<!-- Generator: Adobe Illustrator 23.0.2, SVG Export Plug-In . SVG Version: 6.00 Build 0)  -->
<svg version="1.1" id="Layer_1" xmlns="http://www.w3.org/2000/svg" xmlns:xlink="http://www.w3.org/1999/xlink" x="0px" y="0px"
	 viewBox="0 0 494.4 271.7" style="enable-background:new 0 0 494.4 271.7;" xml:space="preserve">
<style type="text/css">
	.st0{fill:#D04A39;}
</style>
<path class="st0" d="M261.1,138.2v127.9h14.2V133.7C270.1,135.2,265.6,136.7,261.1,138.2z M334.4,123.3l-11.2,86h-1.5l-11.2-83.7
	c-4.5,0.7-9,1.5-14.2,2.2l17.9,138.3h15l19.4-144.3C344.9,122.5,338.9,122.5,334.4,123.3z M380,124.8l-17.9,141.3h15l4.5-38.1h14.2
	l4.5,38.1h15l-17.9-138.3C392.7,127,384.5,125.5,380,124.8z M383,214.5l5.2-38.1l5.2,38.1H383z M450.3,147.2
	c-5.2-2.2-9.7-4.5-14.2-6.7v126.4h38.1v-14.2h-23.9V147.2z M444.3,119.5c5.2,2.2,9.7,4.5,14.2,6.7V35.8l35.9-32.2h-21.7l-20.9,19.4
	L430.1,3.6h-21.7l35.1,32.2v83.7H444.3z M387.5,103.1v-15c-6-0.7-19.4-2.2-23.2-2.2v-83h-14.2v96.5
	C363.6,100.1,375.5,101.6,387.5,103.1z M276.1,109.1c5.2-1.5,9.7-2.2,14.2-3.7V17.9h35.1V3.6h-82.2v14.2h32.9
	C276.1,17.9,276.1,109.1,276.1,109.1z M193.9,122.5c-10.5,0.7-17.9-12.7-22.4-26.9l-9.7,12.7c5.2,17.9,15,30.7,30.7,29.9
	c22.4-0.7,32.9-16.4,32.9-38.1c0-15.7-12-25.4-26.2-31.4c-6-3-23.2-11.2-23.9-23.2c-1.5-17.2,4.5-26.9,16.4-27.7
	c11.2,0,12.7,9,17.9,22.4l8.2-12.7c-3-15-12.7-24.7-26.9-24.7c-17.2,0.7-32.2,11.2-30.7,40.4c1.5,23.9,21.7,31.4,28.4,35.1
	c8.2,4.5,20.2,10.5,20.9,20.9C210.3,109.1,205.1,121.8,193.9,122.5z M92.9,162.9l6-48.6h13.5l5.2,44.9c4.5-0.7,9.7-2.2,15-3
	L113.1,3.6H97.4L78.7,164.4C83.2,163.7,87.7,162.9,92.9,162.9z M105.6,56.7l5.2,42.6h-10.5C100.4,99.4,105.6,56.7,105.6,56.7z
	 M17.4,160.7V53.7h32.2v-15H18.2V17.9H75V3.6H3.2v151.8C7.7,156.9,12.2,159.2,17.4,160.7z M45.1,201.8v-14.2c-6-0.7-12-0.7-17.2-2.2
	c-7.5-1.5-15.7-3.7-21.7-5.2v86h14.2v-42.6h17.9v-14.2H19.6v-12C27.9,200.3,35.4,201,45.1,201.8z M80.2,231.7h17.9v-14.2H80.2V201
	c11.2-0.7,17.9-1.5,25.4-2.2v-14.2c-14.2,2.2-26.9,3-39.6,3.7v78.5h40.4v-14.2H80.2V231.7z M158,213c-5.2-2.2-11.2-6-11.2-12
	c0-4.5,3-12,9-12c6.7,0,10.5,7.5,13.5,13.5l9-12c-3-8.2-10.5-12.7-20.9-15c-3.7,0.7-9,2.2-14.2,3c-4.5,5.2-8.2,12.7-8.2,23.2
	c0,15.7,10.5,20.2,18.7,25.4c5.2,3,12.7,7.5,12.7,12.7c0,6-2.2,13.5-8.2,14.2c-6,0.7-12-9.7-15.7-18.7l-10.5,10.5
	c4.5,12.7,12,21.7,24.7,21.7c17.2,0,23.2-14.2,23.2-29.2C179.7,222,166.9,216,158,213z M192.4,162.9v15c0,0,9.7-2.2,15.7-5.2v93.5
	h14.2v-98.7c6.7-2.2,13.5-5.2,15.7-6v-15.7C223,152.4,207.3,158.4,192.4,162.9z"/>
</svg>
