<svg version="1.1" id="Layer_1" xmlns="http://www.w3.org/2000/svg" x="0" y="0" viewBox="0 0 70.5 41" xml:space="preserve">
  <style>
    .st0{fill:#d04a39}
  </style>
  <path class="st0" d="M37.7 21v17.1h1.9V20.4c-.7.2-1.3.4-1.9.6zM47.5 19L46 30.5h-.2l-1.5-11.2c-.6.1-1.2.2-1.9.3l2.4 18.5h2l2.6-19.3c-.5.1-1.3.1-1.9.2zM53.6 19.2l-2.4 18.9h2l.6-5.1h1.9l.6 5.1h2l-2.4-18.5c-.6-.1-1.7-.3-2.3-.4zm.4 12l.7-5.1.7 5.1H54zM63 22.2c-.7-.3-1.3-.6-1.9-.9v16.9h5.1v-1.9H63V22.2zM62.2 18.5c.7.3 1.3.6 1.9.9V7.3L68.9 3H66l-2.8 2.6L60.3 3h-2.9l4.7 4.3v11.2zM54.6 16.3v-2c-.8-.1-2.6-.3-3.1-.3V2.9h-1.9v12.9c1.8.1 3.4.3 5 .5zM39.7 17.1c.7-.2 1.3-.3 1.9-.5V4.9h4.7V3h-11v1.9h4.4v12.2zM28.7 18.9c-1.4.1-2.4-1.7-3-3.6L24.4 17c.7 2.4 2 4.1 4.1 4 3-.1 4.4-2.2 4.4-5.1 0-2.1-1.6-3.4-3.5-4.2-.8-.4-3.1-1.5-3.2-3.1-.2-2.3.6-3.6 2.2-3.7 1.5 0 1.7 1.2 2.4 3l1.1-1.7c-.4-2-1.7-3.3-3.6-3.3C26 3 24 4.4 24.2 8.3c.2 3.2 2.9 4.2 3.8 4.7 1.1.6 2.7 1.4 2.8 2.8.1 1.3-.6 3-2.1 3.1zM15.2 24.3l.8-6.5h1.8l.7 6c.6-.1 1.3-.3 2-.4L17.9 3h-2.1l-2.5 21.5c.6-.1 1.2-.2 1.9-.2zm1.7-14.2l.7 5.7h-1.4l.7-5.7zM5.1 24V9.7h4.3v-2H5.2V4.9h7.6V3H3.2v20.3c.6.2 1.2.5 1.9.7zM8.8 29.5v-1.9c-.8-.1-1.6-.1-2.3-.3-1-.2-2.1-.5-2.9-.7v11.5h1.9v-5.7h2.4v-1.9H5.4v-1.6c1.1.4 2.1.5 3.4.6zM13.5 33.5h2.4v-1.9h-2.4v-2.2c1.5-.1 2.4-.2 3.4-.3v-1.9c-1.9.3-3.6.4-5.3.5v10.5H17v-1.9h-3.5v-2.8zM23.9 31c-.7-.3-1.5-.8-1.5-1.6 0-.6.4-1.6 1.2-1.6.9 0 1.4 1 1.8 1.8l1.2-1.6c-.4-1.1-1.4-1.7-2.8-2-.5.1-1.2.3-1.9.4-.6.7-1.1 1.7-1.1 3.1 0 2.1 1.4 2.7 2.5 3.4.7.4 1.7 1 1.7 1.7 0 .8-.3 1.8-1.1 1.9-.8.1-1.6-1.3-2.1-2.5l-1.4 1.4c.6 1.7 1.6 2.9 3.3 2.9 2.3 0 3.1-1.9 3.1-3.9 0-2.2-1.7-3-2.9-3.4zM28.5 24.3v2s1.3-.3 2.1-.7v12.5h1.9V24.9c.9-.3 1.8-.7 2.1-.8V22c-2 .9-4.1 1.7-6.1 2.3z"/>
</svg>
