<?xml version="1.0" encoding="utf-8"?>
<!-- Generator: Adobe Illustrator 23.0.2, SVG Export Plug-In . SVG Version: 6.00 Build 0)  -->
<svg version="1.1" id="Layer_1" xmlns="http://www.w3.org/2000/svg" xmlns:xlink="http://www.w3.org/1999/xlink" x="0px" y="0px"
	 viewBox="0 0 384.6 245.6" style="enable-background:new 0 0 384.6 245.6;" xml:space="preserve">
<style type="text/css">
	.st0{fill:#D04A39;}
</style>
<g>
	<path class="st0" d="M180.3,62.5c0-0.5-0.2-1-0.6-1.4c-0.4-0.4-0.9-0.6-1.4-0.6c-0.5,0-1,0.2-1.4,0.6c-6.7,6.8-13,18.1-18.7,33.4
		c-4.5,12.1-8.7,26.8-12.4,43.8c-2.8,12.8-4.9,24.9-6.4,34.7l-3.5-55.8c-0.1-1-0.9-1.8-1.9-1.9c-1-0.1-1.9,0.7-2.1,1.6
		c-1.5,8.7-8,19-17.7,34.7c-3.1,5-6.5,10.4-10.1,16.4c3.2-9.4,6.3-20,9.2-31.6c8.9-34.5,13.6-66.4,13.7-66.7
		c0.2-1.1-0.6-2.1-1.6-2.3c-1.1-0.2-2.1,0.5-2.3,1.5c-6.2,27.9-34.2,28-63.9,28.1c-4.3,0-8.7,0-13.1,0.1
		c-20.8,0.5-31.9,14.7-35.1,26.7c-3.5,13.3,1.4,26.4,12.6,33.1c17.4,10.5,34.6,4.3,42.6-7.3c5.4-7.8,6.7-18.9-2.5-26.2
		c-6.5-5.1-13-6.9-19.3-5.4c-11.9,2.8-18.5,16.7-18.8,17.3c-0.4,1-0.1,2.1,0.9,2.6l18.1,9.9c1,0.5,2.2,0.2,2.7-0.8
		c0.3-0.5,0.3-1,0.2-1.5s-0.5-0.9-1-1.2l-16.3-8.9c2-3.5,7.4-11.6,15.2-13.5c5-1.2,10.4,0.4,15.9,4.7c4.8,3.8,8.1,11.5,1.7,20.7
		c-9.2,13.3-25.7,13.1-37.3,6.1c-9.8-5.9-13.9-16.9-10.8-28.7c2.8-10.7,12.7-23.3,31.4-23.8c4.3-0.1,8.7-0.1,13.1-0.1
		c24-0.1,48.8-0.2,61.2-16.6c-4.5,24.8-15,75.6-30.5,108.1c-2,3.6-3.9,7.1-5.7,10.6c-4.3,7.1-8.7,12.3-13.1,15.4
		c-15.1,10.6-25.7,7.1-30.6,0.3c-5.2-7.3-4.9-19.6,4.7-26.7c3.5-2.6,6.8-3.4,9.8-2.6c4.4,1.2,7.4,5.7,8.6,7.8L52.1,208
		c-0.8,0.7-0.9,2-0.1,2.8c0.7,0.8,2,0.9,2.8,0.1l12.8-11.6c0.6-0.6,0.8-1.5,0.5-2.3c-0.2-0.4-4.1-9.3-11.9-11.3
		c-4.3-1.1-8.7,0-13.2,3.3c-11.6,8.5-12,23.4-5.6,32.2c3.8,5.3,9.5,8.2,16.1,8.2c6.2,0,13-2.5,20.1-7.5c7.1-5,14-14.5,20.5-28.3
		c9-16.4,17.1-29.5,23.6-40c6.6-10.7,11.7-18.9,14.9-25.9l4.1,65.4c0.1,1,0.9,1.8,2,1.9c1,0,1.9-0.8,2-1.8
		c0.1-1,11.4-101,39.1-129.3C180.1,63.6,180.3,63.1,180.3,62.5z"/>
	<path class="st0" d="M198.1,145.2c6.4-10.9,17.9-33.7,24.2-66c2.4-12.3,2.2-18.8-0.6-21c-0.7-0.5-2.1-1.3-4.2-0.4
		c-7.9,3.5-22,32.8-23.8,60.9c-0.3,4.3-0.8,15.5,0.3,25.8c-3.5,5.9-7.1,10.8-10.7,14.8c-8.5,9.3-10.8,8.6-11.1,8.5
		c-2-0.9-0.9-10.1-0.6-13.1l0.1-1.3c0.8-8,2.4-15.2,3.1-18.3c0.5-2.2,0.8-3.6-1.1-4.1c-1.8-0.5-2.4,1.2-2.7,2.1
		c-0.2,0.6-0.5,1.4-0.9,2.7c-0.7,2-1.6,5-3,9c-8.2,24.5-19.1,32.5-19.2,32.5c-0.9,0.6-1.1,1.9-0.5,2.8c0.4,0.5,1,0.9,1.6,0.9
		c0.4,0,0.8-0.1,1.1-0.4c0.4-0.3,9.3-6.6,17.4-25.7c-0.7,6.6-1.4,14.5,3,16.5c3.5,1.6,8.3-1.3,15.7-9.4c2.8-3.1,5.7-7,8.6-11.4
		c1.2,6.3,3.1,10.9,5.6,13.5c0.4,0.4,0.9,0.6,1.4,0.6c0.5,0,1-0.2,1.4-0.6c0.8-0.8,0.8-2,0.1-2.8C200.8,158.7,199,153.1,198.1,145.2
		z M219.2,61.4c0.3,0.5,1.7,3.6-0.9,17.1c-3.1,16-10.2,39.7-20.9,59.7c-0.4-7.3-0.1-14.4,0.2-19.3c1.7-26.5,15.4-54.8,21.4-57.5
		C219.1,61.4,219.2,61.4,219.2,61.4z"/>
	<path class="st0" d="M239.4,142.4L239.4,142.4c3.4,2,7.8,0.1,13.6-5.7c0.8-0.8,0.8-2,0-2.8c-0.8-0.8-2.1-0.8-2.8,0
		c-4,4-7.3,5.9-8.8,5c-1.4-0.8-5.5-6.3,1.3-42.2c1.1-6,2.5-12.5,4.1-19.4l53.7-18.3c0.5-0.2,0.9-0.5,1.1-1s0.3-1,0.1-1.5
		c-0.2-0.5-0.5-0.9-1-1.2c-0.5-0.2-1-0.3-1.5-0.1L248,72.6c0.1-0.6,0.3-1.2,0.4-1.7c1.2-4.3,2.3-8.8,3.4-13.4
		c0.3-1.1-0.4-2.1-1.4-2.4c-1.1-0.3-2.1,0.4-2.4,1.4c-0.6,2-2,7.5-3.8,14.8c-0.3,1-0.5,2-0.8,2.9l-16.5,5.6c-1,0.4-1.6,1.5-1.2,2.5
		c0.3,0.8,1,1.4,1.9,1.4c0.2,0,0.4,0,0.6-0.1l13.9-4.7c-18.2,63.4-36.3,78.5-36.4,78.7c-0.9,0.7-1,1.9-0.3,2.8
		c0.4,0.5,1,0.8,1.6,0.8c0.4,0,0.9-0.1,1.2-0.4c0.6-0.5,13.5-10.8,28.6-52C233.7,128.5,234.6,139.6,239.4,142.4z"/>
	<circle class="st0" cx="178.3" cy="109.8" r="4.1"/>
	<path class="st0" d="M254.6,120.8c0.7,6.9,4.5,12,10.1,13.4c1.1,0.3,2.2,0.4,3.4,0.4c6.2,0,16.1-3.7,28.3-21.1
		c0.3-0.4,0.4-1,0.3-1.5c-0.1-0.5-0.4-1-0.8-1.3c-0.9-0.6-2.2-0.4-2.8,0.5c-9.7,13.9-19.9,21-27.3,19.1c-3.9-1-6.6-4.7-7.1-10
		c-0.3-3.1,0.5-6,2.2-8.6c5.2,3.4,12.8,3.1,16.8,0.7c2.3-1.4,3.4-3.5,3.1-5.7c-0.6-4.2-4.4-6.5-9.6-5.9c-3.7,0.5-7.6,2.3-10.6,5.1
		c-1.4-2.2-1.6-5.2-0.8-8.8c1.5-6.2,6.8-8.6,11.1-8.2c1.8,0.2,7.5,1.3,7.9,8.7c0,0.5,0.3,1,0.7,1.4c0.4,0.4,0.9,0.5,1.4,0.5
		c1.1-0.1,2-1,1.9-2.1c-0.3-6.9-4.9-11.8-11.5-12.5c-6.2-0.6-13.4,3.1-15.4,11.2c-1.5,6.4,0.1,10.4,1.9,12.8
		C255.3,112.4,254.2,116.5,254.6,120.8z M275.6,109c-2.8,1.7-8.3,1.9-12.1-0.3c2.4-2.1,5.4-3.6,8.2-3.9c1.7-0.2,4.7-0.2,5.1,2.5
		C276.9,108,276.2,108.6,275.6,109z"/>
	<path class="st0" d="M323.4,111.8c6.7-5.7,10.3-16.1,15-41.1c-0.4,12.2-0.1,25.4,1.9,35.7c0.2,1.1,1.3,1.8,2.3,1.6
		c0.5-0.1,1-0.4,1.3-0.8c0.3-0.4,0.4-1,0.3-1.5c-6.1-31.2,3.9-91.3,4.3-93.9l0-0.3c0.2-1.1-0.6-2.1-1.6-2.3c-0.5-0.1-1.1,0-1.5,0.3
		c-0.4,0.3-0.7,0.8-0.8,1.3l-0.1,0.4c-1.1,6.7-2.2,13-3.2,18.9c-8.9,53.4-11.9,71.4-20.6,78.7c-4.2,3.6-10.2,4-14.6,1.2
		c-5.1-3.3-6.7-10.2-4.2-18.5c2.5-8.4,5.9-13.2,10.3-14.4c6.2-1.6,12.7,4.6,12.7,4.7c0.8,0.8,2.1,0.8,2.8,0c0.4-0.4,0.6-0.9,0.6-1.4
		c0-0.5-0.2-1-0.6-1.4c-0.3-0.3-8.1-7.9-16.5-5.7c-5.9,1.5-10.3,7.3-13.2,17.1c-3,10-0.7,18.6,5.9,23c2.5,1.6,5.5,2.5,8.5,2.5
		C316.5,115.8,320.3,114.4,323.4,111.8z"/>
	<path class="st0" d="M241.4,167.5c-0.1-0.5-0.5-1-0.9-1.2c-0.5-0.3-1-0.4-1.5-0.2c-0.5,0.1-1,0.5-1.2,0.9l-8.9,14.8l-12.6-14.5
		c-0.3-0.4-0.8-0.6-1.4-0.7c-0.5,0-1,0.1-1.5,0.5c-0.4,0.3-0.6,0.8-0.7,1.4s0.1,1,0.5,1.5l13.4,15.5l-6.5,10.8
		c-0.3,0.5-0.4,1-0.2,1.5c0.1,0.5,0.5,1,0.9,1.2c0.3,0.2,0.7,0.3,1,0.3c0.7,0,1.4-0.4,1.7-1l17.5-29.2
		C241.5,168.5,241.5,168,241.4,167.5z"/>
	<path class="st0" d="M258.3,167c-0.3-0.6-1-1-1.8-1.1c-0.7,0-1.4,0.4-1.7,1l-16.2,29.2c-0.3,0.5-0.3,1-0.2,1.5
		c0.1,0.5,0.5,0.9,1,1.2c0.3,0.2,0.6,0.2,1,0.2c0.7,0,1.4-0.4,1.8-1l5.1-9.3h18.2l4.9,9.2c0.3,0.5,0.7,0.8,1.2,1
		c0.5,0.2,1.1,0.1,1.5-0.2c0.5-0.3,0.8-0.7,1-1.2c0.2-0.5,0.1-1.1-0.2-1.5L258.3,167z M249.4,184.9l7.1-12.7l6.8,12.7H249.4z"/>
	<path class="st0" d="M301.2,175.1c0-2.5-0.9-4.6-2.8-6.2c-5.2-4.4-15.8-2.8-17-2.6c-1,0.2-1.7,1-1.7,2v28.9c0,1.1,0.9,2,2,2
		s2-0.9,2-2v-10.6l13.9,12.1c0.4,0.3,0.8,0.5,1.3,0.5c0.6,0,1.1-0.3,1.5-0.7c0.4-0.4,0.5-0.9,0.5-1.5s-0.3-1-0.7-1.4l-10.4-9
		c2.6-0.3,5.4-1,7.7-2.9C299.9,181.7,301.2,178.8,301.2,175.1z M294.9,180.7c-3.5,3-10.2,1.8-10.3,1.8c-0.1,0-0.2,0-0.4,0
		c-0.2,0-0.4,0-0.6,0.1V170c2.9-0.3,9.2-0.5,12.1,1.9c0.9,0.8,1.4,1.8,1.4,3.1C297.2,177.6,296.4,179.5,294.9,180.7z"/>
	<path class="st0" d="M333.5,171L333.5,171c-7.6-6.7-21.2-5.1-22.7-4.9c-1,0.1-1.7,1-1.7,2v28.7c0,1,0.8,1.9,1.8,2
		c0.1,0,1.8,0.2,4.3,0.2c5.7,0,13.5-0.9,18.6-5.5c3.1-2.8,4.7-6.5,4.7-11C338.4,177.7,336.7,173.8,333.5,171z M331.1,190.6
		c-5,4.4-14.1,4.6-18,4.4v-25c3.8-0.2,12.8-0.3,17.8,4.1c2.3,2,3.5,4.9,3.5,8.5C334.4,185.9,333.3,188.6,331.1,190.6z"/>
	<path class="st0" d="M377.9,166.9C377.9,166.9,377.9,166.9,377.9,166.9c-0.8-0.1-8.1-1.3-23.1,1.3c-5,0.9-7.5,2.3-8.1,4.6
		c-1,3.3,2.4,6.4,7.1,10.6c2.4,2.2,5.1,4.6,7.3,7.2c0.9,1,1,1.7,0.9,1.9c-1,1.9-9.7,3.3-21.2,2.6c-1.1,0-2,0.8-2.1,1.9
		c-0.1,1.1,0.8,2.1,1.9,2.1c0.5,0,3,0.2,6.2,0.2c1.6,0,3.2,0,4.6-0.1c8.2-0.4,12.7-2,14.2-4.8c0.7-1.3,1-3.5-1.4-6.3
		c-2.4-2.8-5.2-5.4-7.6-7.6c-2.1-1.9-6.1-5.5-5.9-6.5c0,0,0.5-1,5-1.8c14.4-2.5,21.6-1.3,21.6-1.3c1.1,0.2,2.1-0.5,2.3-1.6
		C379.7,168.1,379,167.1,377.9,166.9z"/>
</g>
</svg>
