<svg version="1.1" id="Layer_1" xmlns="http://www.w3.org/2000/svg" x="0" y="0" viewBox="0 0 78.1 52.3" xml:space="preserve">
  <style>
    .st0{fill:#d04a39}
  </style>
  <path class="st0" d="M17 3.6v.3c-1.8-.3-3.3 1.5-4.2 2.7-.5.9-.8 1.7-1.1 2.7 0 1.7.1 3.3.1 5-.1.8.4 1.7 1.4 1.7v.2H9.3c.1-.1.1-.2.2-.3.4 0 1.1-.4 1-1.7-.1-1.1-.3-2.2-.5-3.3-1.3-2.5-2.8-4.3-4.8-6.3-.7-.7-1.6-1.7-2.7-1.8v-.3c2.2 0 4.4.3 6.5.5v.3c-1.8-.5-.5 1.4 0 1.9 1.1 1.2 1.9 2.2 2.6 3.7.3-.9.6-1.7 1.1-2.6.6-1.2.9-2.8-1-2.9v-.3c1.8.1 3.5.2 5.3.5zM25.1 12c-.3 2-2.5 3.2-4.4 3.4-2.5.3-4.2-1.6-4.2-4 .1-2.6 1.7-4.1 4.3-3.9 2.4.1 4.7 2.2 4.3 4.5zm-2.6-.9c.1-1.2.1-3.2-1.5-3.3-1.6-.1-1.7 2.3-1.7 3.4-.1 1.1-.2 4 1.5 3.8 1.6-.2 1.5-2.8 1.7-3.9zM35.2 16.7v.2c-.8.3-1.7.6-2.6.8-.5.1-.5-.1-.5-.1v-1.2c-.4 1.2-1.9 1.5-3 1.2-1.5-.4-2.3-1.7-2.2-3.3.2-1 .4-2 .5-3 .1-.9.1-1.2-1.1-1.9v-.3c1.1.4 2.2.8 3.4.9.2 2-.3 3.4-.6 5.3-.1.9.5 1.6 1.4 1.7.5 0 1.1-.4 1.6-1.1.1-1.1.5-2.2.7-3.3.1-1 .1-1.3-.8-1.3v-.4c1-.3 1.8-.7 2.7-1.2.1 2.2-.4 4.2-.5 6.4.1.7.3.7 1 .6zM42.4 8.5c.5.5.6 1.3.1 1.8s-1.3.6-1.8.1c-.3-.2-.4-.5-.4-.9 0-.2-.7 0-1.3 1.1v3.6c0 1 .1 1.7.7 1.8v.3c-1.2.1-2.4.3-3.6.5v-.2c.7-.3.7-1 .7-1.9 0-1.2.1-2.5.2-3.7 0-.6-.1-.8-.8-.9v-.3c.9-.7 1.8-1.3 2.8-1.7v2c.5-.9 1.1-1.6 2-2 .3 0 1 .1 1.4.4zM16 25.5v.3c-1.7.1-.6 3.6-.9 4-.4.6-3 1-4.6 1.2-3.2.3-7.4-3-7.5-6.4-.1-3.8 4.1-6.1 7.4-6.4 1.6-.1 3.3-.2 4.7.8-.1 1.1-.3 2-.5 3H14c.2-2.5-1.1-3.8-3.6-3.6-3.1.3-4.1 3.6-3.9 6.1.1 1.8 1.4 6.3 4 6 1.4-.1 2.5-.6 2.2-2.2-.2-1.1-.6-2.4-2-2.3v-.3c1.8.2 3.5.1 5.3-.2zM23.6 22.6c.6.5.6 1.2.1 1.5-.5.3-1.3.2-1.9-.3-.3-.2-.4-.5-.4-.8 0-.1-.7-.1-1.4 1 0 1.2 0 2.4.1 3.6 0 1 .1 1.7.7 2v.6c-1.2.1-2.4.1-3.6.2v-.5c.7-.4.7-1.1.7-2-.1-1.3-.2-2.5-.2-3.8 0-.6-.2-.8-.9-1v-.3c1.1-.3 2.2-.5 3.3-.7v1.4c.6-.7 1.2-1.3 2.1-1.4.3.1 1 .2 1.4.5zM32.5 30.9c.1 0 .2 0 .3.1-.4.9-1.2 1.6-2.1 1.6-.9-.1-1.6-.9-1.7-1.8-.5.8-1.6 1.1-2.5.9-1.1-.5-1.9-1.8-2-2.9-.1-2.3 3.8-.6 4.9-.4.1-.3.1-.5.1-.9 0-1.3-.8-3.5-2.4-3.3-.6 0-.6.3-.5.4.3.2.5.4.7.7.4.7.2 1.2-.3 1.2s-1.1-.4-1.5-1c-.2-.4-.2-.9-.1-1 .2-.2.4-.4 1.4-.6.8-.1 1.8.2 1.8.2 1.9.5 3.4 2.4 3.1 4.4-.1.8-.3 1.1-.4 1.9 0 0-.1 1.1.8 1-.2-.1.2-.2.4-.5zm-3.2-2.4c-.8-.2-2.5-.5-2.6.7 0 0-.1 1.1 1.1 1.5.6.2 1-.1 1.2-.4-.1 0 .3-1.8.3-1.8zM42.4 30.3v.3c-1.2.2-2.4.2-3.6.3v-.3c.7-.3.7-1 .7-2V25c0-.9-.6-1.3-1.5-1.1-.8.3-1.4 1.1-1.5 2 0 1.1-.1 2.2-.2 3.3 0 .9.1 1.6.7 1.6v.3l-3.9.9v-.4c.7-.4.7-1.1.8-1.9.1-1.1.3-2.3.4-3.4 0-.6-.2-.8-.9-1v-.4l3-1.8c.1.7.1 1.1.2 1.8.4-1.2 1.4-2.4 2.7-2.5 1.4-.1 2.5.6 2.3 2.2v3.7c.2 1.2.3 1.9.8 2zM52.4 31v.3c-.8-.5-1.7-1.1-2.7-1.3-.5-.1-.5-.6-.5-.6v-1.2c-.6.8-1.6 1.5-2.6 1.7-2.4.4-3.3-2-3.3-3.9-.1-1.9 1.1-4.5 3.3-4.8.7-.1 1.6.1 2.3.5-.5-1.1-1.1-2.3-1.3-3.5-.1-.6-.2-.8-.8-1 0-.1 0-.1.1-.2 1.2-.2 2.5 0 3.7.1-1 1.7.4 4.2.8 5.9.4 1.9.2 4 .2 6-.1 1 .1 1.3.8 2zm-3.2-6.5c.1-1.4-.9-3.1-2.5-2.9-1.4.1-1.2 3-1.2 3.9 0 1.2-.1 4 1.8 3.7 1.1-.2 1.9-1 1.9-2.1v-2.6zM66.6 31.6c-1.3.3-2.4.7-3.6 1.4v-.3c.7-.6.7-1.5.7-2.4 0-1.3 0-2.7.1-4 0-1.1-.5-1.3-1.2-.8s-1.2 1.5-1.3 2.4c0 1.3-.1 2.7-.1 4 0 1.1.1 1.7.7 1.5v.2c-1.2.6-2.3 1.1-3.6 1.3v-.2c.7-.2.7-.9.7-2 .1-1.3.1-2.7.2-4 0-1.1-.5-1.5-1.3-1.6-.7-.1-1.4.5-1.5 1.2 0 1.3-.1 2.7-.1 4 0 1.1.1 1.8.7 2.2v.2c-1.4-.6-2.6-1.6-3.8-2.6v-.3c.7.4.7-.2.7-1.2 0-1.4.1-2.8.1-4.2 0-.9-.5-1.6-1.1-2.2 0-.1 0-.2-.1-.4 1.1.4 2.2.8 3.4.9.1.9.1 1.8.1 2.7.5-1.1 1.5-2.1 2.6-2.3 1.2-.2 2.1.8 2.2 2 .3-1.4 1.2-3 2.6-3.5 1.4-.5 2.3.4 2.2 1.9v4.1c0 1.1.1 1.8.7 1.9v.1zM75.9 29.8c.1.1.2.1.3.1-.3.9-1.3 1.3-2.1 1.4-.9 0-1.7-.5-1.8-1.4-.4 1-1.6 1.6-2.6 1.7-1 .1-2.1-.6-2.1-1.8.1-2.4 2.7-3.1 4.6-3.9v-1.3c.1-1.4-.9-2.3-2.2-1.7-.6.3-.6.5-.5.5.3 0 .5.1.7.3.3.4.2 1-.3 1.4-.4.4-1.1.3-1.4-.2-.2-.3-.2-.8-.1-1.1.2-.3.4-.7 1.4-1.2.8-.4 1.7-.4 1.7-.4 2.2-.2 2.9.9 3 2.9 0 1.1.1 2.2.1 3.3 0 0 0 1.4.9 1.4-.1.4.3.4.4 0zm-3.7-3.4c-1.3.5-2.3 1.4-2.3 2.8 0 0 0 1.3 1.2 1.2.6-.1 1-.6 1.2-1.1 0-.9-.1-1.9-.1-2.9zM14.3 43.5c.1 1.7.2 3.4.2 5.2-1.9-.1-3.4-.4-5.1-1.3-1.7-.9-3.3-1.9-5.2-2.3v-.3c.8.1 1.3-.3 1.3-1.1v-7.3c0-1.1-.6-1.7-1.3-1.7v-.3c1.9.1 3.7.4 5.6.6v.4c-1-.2-1.7.6-1.7 1.6 0 3.1.1 6.3.1 9.4.3.1.4.2.7.4 2.8 1.5 4.9-.2 5.2-3.3 0-.1.1-.1.2 0zM19.8 49.4v.3c-1.2-.2-2.4-.5-3.5-.7v-.3c.7-.1.7-.9.6-2-.1-1.4-.1-2.9-.1-4.3 0-.4-.2-.7-.9-1.3v-.2c1.1.5 2.1 1.1 3.1 1.6 0 1.6 0 3.3.1 4.9 0 1 .1 1.7.7 2zm-2.1-8.6c-.7-.5-1.2-1.1-1.2-2 0-.8.6-1.8 1.2-1.4.8.5 1.2 2 1.2 3s-.6.9-1.2.4zM42.8 46.9c-.7-.5-1.2-1.1-1.2-2 0-.8.6-1.8 1.2-1.4.8.5 1.2 2 1.2 3 0 1.1-.6.9-1.2.4zM28.8 46.8c-1.9-.2-3.7-.5-5.6-.7.2 1.3 1.1 2.3 2.4 2.5.9.2 2.1.1 2.8-.6.1 0 .2.1.3.1-.6 1.4-2.4 1.9-3.7 1.9-2.1 0-4-1.8-4.1-3.9-.1-2.4 2.3-2.7 4.1-3.2 2.8-.6 3.7 1.5 3.8 3.9zm-2.1-.5c-.1-1-.2-3.4-1.7-3.1-1.2.2-1.8 1.4-1.8 2.6 1.2.1 2.3.3 3.5.5zM39.6 46.2v.3c-.9.2-1.7.6-2.5 1.1-.5.3-.5-.1-.5-.1v-1c-.5 1.1-1.5 2.1-2.5 2.7-1.6.8-3.9-.5-4-2.3-.1-2.7 2.1-5 4.3-6.4.8-.5 1.6-.8 2.1-.7v-4c0-.6-.1-.8-.9-.7v-.4c1-.7 2.1-1.4 3.2-1.9-.4 4.1-.2 8.2-.2 12.3.1.9.3 1 1 1.1zm-3.1-3.1c-.1-1.1-.5-3.2-2.1-2.1s-1.9 3.6-1.8 5.4c0 1.2.8 2.7 2.2 1.9 1-.6 1.8-1.7 1.8-2.9 0-.9-.1-1.3-.1-2.3z"/>
</svg>
