<svg xmlns="http://www.w3.org/2000/svg" width="100%" height="100%">
  <g data-name="CIP Conference">
    <path data-name="Rectangle 12" fill="#fff" d="M22.188 0h1280v502h-1280z"/>
    <g data-name="Group 698">
      <g data-name="Group 73" transform="translate(624.049 20.65)" fill="#d39e42">
        <path data-name="Path 95" d="M62.278 11.434a1.76 1.76 0 0 1-1.765-1.765v-7.9a1.765 1.765 0 1 1 3.529 0v7.9a1.785 1.785 0 0 1-1.764 1.765z"/>
        <path data-name="Path 97" d="M62.278 70.641a1.76 1.76 0 0 1-1.765-1.765v-5.99a1.765 1.765 0 1 1 3.529 0v5.985a1.785 1.785 0 0 1-1.764 1.77z"/>
        <path data-name="Path 96" d="M62.278 58.359a1.76 1.76 0 0 1-1.765-1.765V17.343a1.765 1.765 0 1 1 3.529 0v39.251a1.785 1.785 0 0 1-1.764 1.765z"/>
        <path data-name="Path 98" d="M76.282 54.676a1.922 1.922 0 0 1-.46-.077 1.791 1.791 0 0 1-1.228-2.149l7.751-27.587a1.75 1.75 0 0 1 3.376.921L77.97 53.371a1.719 1.719 0 0 1-1.688 1.305z"/>
        <path data-name="Path 99" d="M71.602 71.404a1.926 1.926 0 0 1-.46-.077 1.791 1.791 0 0 1-1.228-2.149l3.146-11.165a1.75 1.75 0 1 1 3.376.921l-3.142 11.162a1.752 1.752 0 0 1-1.692 1.308z"/>
        <path data-name="Path 100" d="M80.464 75.317a1.493 1.493 0 0 1-.882-.269 1.755 1.755 0 0 1-.614-2.417l13.966-23.29a1.764 1.764 0 0 1 3.031 1.8l-13.966 23.29a1.769 1.769 0 0 1-1.535.886z"/>
        <path data-name="Path 101" d="M97.999 45.736a1.493 1.493 0 0 1-.882-.269 1.755 1.755 0 0 1-.614-2.417l3.875-6.446a1.764 1.764 0 1 1 3.031 1.8l-3.875 6.446a1.769 1.769 0 0 1-1.535.886z"/>
        <path data-name="Path 102" d="M88.675 81.495a1.765 1.765 0 0 1-1.266-2.993l16.307-17.074a1.764 1.764 0 0 1 2.532 2.456L89.941 80.958a1.807 1.807 0 0 1-1.266.537z"/>
        <path data-name="Path 103" d="M27.017 98.607a1.539 1.539 0 0 1-.576-.115l-6.791-2.456a1.747 1.747 0 1 1 1.151-3.3l6.791 2.456a1.771 1.771 0 0 1 1.074 2.225 1.8 1.8 0 0 1-1.649 1.19z"/>
        <path data-name="Path 104" d="M13.78 93.504a1.54 1.54 0 0 1-.576-.115l-6.791-2.456a1.747 1.747 0 1 1 1.151-3.3l6.791 2.456a1.771 1.771 0 0 1 1.074 2.225 1.726 1.726 0 0 1-1.649 1.19z"/>
        <ellipse data-name="Ellipse 3" cx="34.071" cy="33.726" rx="34.071" ry="33.726" transform="translate(28.705 74.819)"/>
        <path data-name="Path 105" d="M112.81 93.502a1.781 1.781 0 0 1-1.65-1.151 1.71 1.71 0 0 1 1.074-2.225l6.792-2.456a1.74 1.74 0 0 1 2.225 1.074 1.711 1.711 0 0 1-1.075 2.225l-6.791 2.456a2.959 2.959 0 0 1-.575.077z"/>
        <path data-name="Path 106" d="M98.498 98.607a1.781 1.781 0 0 1-1.65-1.151 1.74 1.74 0 0 1 1.074-2.225l6.792-2.456a1.74 1.74 0 0 1 2.225 1.074 1.711 1.711 0 0 1-1.074 2.225l-6.792 2.456a2.958 2.958 0 0 1-.575.077z"/>
        <path data-name="Path 107" d="M41.828 34.071a1.718 1.718 0 0 1-1.688-1.3l-2-7.367a1.75 1.75 0 1 1 3.376-.921l2 7.367a1.76 1.76 0 0 1-1.228 2.149.977.977 0 0 1-.46.072z"/>
        <path data-name="Path 108" d="M52.073 71.98a1.718 1.718 0 0 1-1.688-1.3l-8.173-30.234a1.75 1.75 0 1 1 3.376-.921l8.173 30.234a1.76 1.76 0 0 1-1.228 2.149.978.978 0 0 1-.46.072z"/>
        <path data-name="Path 109" d="M40.753 71.983a1.761 1.761 0 0 1-1.535-.921L26.096 47.273a1.752 1.752 0 0 1 3.07-1.688l13.122 23.789a1.774 1.774 0 0 1-1.535 2.609z"/>
        <path data-name="Path 114" d="M28.744 89.898a1.9 1.9 0 0 1-1-.307l-7.559-5.218a1.768 1.768 0 1 1 2-2.916l7.558 5.218a1.776 1.776 0 0 1 .46 2.456 1.857 1.857 0 0 1-1.459.767z"/>
        <path data-name="Path 113" d="M16.965 81.721a1.9 1.9 0 0 1-1-.307l-6.561-4.527a1.768 1.768 0 1 1 2-2.916l6.561 4.527a1.776 1.776 0 0 1 .46 2.456 1.662 1.662 0 0 1-1.46.767z"/>
        <path data-name="Path 110" d="M35.768 81.725a1.8 1.8 0 0 1-1.266-.537L17.968 63.769a1.764 1.764 0 1 1 2.571-2.417l16.529 17.419a1.762 1.762 0 0 1-.077 2.494 1.96 1.96 0 0 1-1.223.46z"/>
        <path data-name="Path 112" d="M100.071 106.549a1.746 1.746 0 0 1-1.727-1.573 1.786 1.786 0 0 1 1.573-1.918l23.9-2.34a1.755 1.755 0 1 1 .345 3.492l-23.9 2.34z"/>
        <path data-name="Path 116" d="M94.469 89.898a1.8 1.8 0 0 1-1.458-.767 1.783 1.783 0 0 1 .46-2.456l7.559-5.218a1.768 1.768 0 1 1 2 2.916l-7.559 5.218a1.9 1.9 0 0 1-1.002.307z"/>
        <path data-name="Path 115" d="M106.21 81.721a1.8 1.8 0 0 1-1.458-.767 1.783 1.783 0 0 1 .46-2.456l6.561-4.527a1.768 1.768 0 1 1 2 2.916l-6.565 4.534a1.615 1.615 0 0 1-.998.3z"/>
        <path data-name="Path 117" d="M125.395 119.939a.951.951 0 0 1-.307-.038l-23.328-3.875a1.77 1.77 0 1 1 .576-3.492l23.328 3.875a1.777 1.777 0 0 1 1.458 2.034 1.731 1.731 0 0 1-1.727 1.496z"/>
        <path data-name="Path 119" d="M106.939 128.881a1.741 1.741 0 0 1-.614-.115l-8.556-3.3a1.75 1.75 0 1 1 1.266-3.261l8.556 3.3a1.728 1.728 0 0 1 1 2.264 1.783 1.783 0 0 1-1.652 1.112z"/>
        <path data-name="Path 118" d="M119.175 133.6a1.737 1.737 0 0 1-.614-.115l-7.443-2.878a1.75 1.75 0 0 1 1.266-3.261l7.443 2.878a1.728 1.728 0 0 1 1 2.264 1.746 1.746 0 0 1-1.652 1.112z"/>
      </g>
      <g data-name="Group 97">
        <path data-name="Path 123" d="M489.189 86.453s267.123 35.222 302.844 124.276l-207.8 167.748-95.039-16.307V86.453z" fill="#fff"/>
      </g>
      <g data-name="Group 98">
        <path data-name="Path 124" d="M563.624 305.998l270.844-179.757 145.3 82.035 215.167-52.811 107.98 28.958v147.014H834.891L631.114 415.31z" fill="#e6e0d6"/>
      </g>
      <g data-name="Group 99">
        <path data-name="Path 125" d="M467.189 188.974l235.353 312.743H.001V272.154l115.121-117.381 92.967 42.231 151.034-80.337z" fill="#f5f2ee"/>
      </g>
      <g data-name="Group 100">
        <path data-name="Path 126" d="M577.552 501.717S634.19 324.372 773.68 321.128s207.36-28.7 266.477-47.333 135.142 9.587 213.855 20.923 50.578 101.013 50.578 101.013v105.986H577.552z" fill="#fff"/>
      </g>
      <g data-name="Group 105">
        <g data-name="Group 104" fill="#222dc5">
          <path data-name="Path 127" d="M613.312 150.566a1.76 1.76 0 0 1-1.765-1.765V95.929l-6.062 10.36a1.737 1.737 0 0 1-2.993-1.765l9.324-15.921a1.753 1.753 0 0 1 1.957-.806 1.728 1.728 0 0 1 1.3 1.688v59.318a1.812 1.812 0 0 1-1.761 1.763z"/>
          <path data-name="Path 128" d="M623.095 107.21a1.8 1.8 0 0 1-1.5-.844l-9.781-15.965a1.757 1.757 0 0 1 2.993-1.842l9.784 15.961a1.787 1.787 0 0 1-.575 2.417 1.7 1.7 0 0 1-.921.273z"/>
          <path data-name="Path 129" d="M602.491 123.823a1.767 1.767 0 0 1-1.42-2.8l10.82-14.964a1.745 1.745 0 0 1 1.42-.729 1.879 1.879 0 0 1 1.42.691l10.973 14.81a1.753 1.753 0 1 1-2.8 2.11l-9.55-12.893-9.438 13.007a1.643 1.643 0 0 1-1.425.768z"/>
          <path data-name="Path 130" d="M602.223 140.782a1.9 1.9 0 0 1-1-.307 1.74 1.74 0 0 1-.422-2.456l11.089-15.693a1.817 1.817 0 0 1 1.458-.729 1.729 1.729 0 0 1 1.42.767l10.4 15.232a1.74 1.74 0 0 1-2.878 1.957l-8.978-13.16-9.631 13.659a1.933 1.933 0 0 1-1.458.73z"/>
        </g>
      </g>
      <g data-name="Group 110">
        <g data-name="Group 106">
          <path data-name="Path 131" d="M169.116 189.204a1.76 1.76 0 0 1-1.765-1.765v-59.663l-7.137 12.2a1.737 1.737 0 1 1-2.993-1.765l10.4-17.765a1.753 1.753 0 0 1 1.957-.806 1.729 1.729 0 0 1 1.3 1.688v66.109a1.785 1.785 0 0 1-1.762 1.767z" fill="#222dc5"/>
        </g>
        <g data-name="Group 107">
          <path data-name="Path 132" d="M180.05 140.859a1.8 1.8 0 0 1-1.5-.844l-10.9-17.8a1.757 1.757 0 0 1 2.993-1.842l10.9 17.8a1.787 1.787 0 0 1-.576 2.417 1.7 1.7 0 0 1-.917.269z" fill="#222dc5"/>
        </g>
        <g data-name="Group 108">
          <path data-name="Path 133" d="M157.068 159.429a1.767 1.767 0 0 1-1.419-2.8l12.086-16.69a1.746 1.746 0 0 1 1.42-.729 1.879 1.879 0 0 1 1.419.691l12.239 16.5a1.753 1.753 0 1 1-2.8 2.11l-10.82-14.58-10.667 14.728a1.858 1.858 0 0 1-1.458.77z" fill="#222dc5"/>
        </g>
        <g data-name="Group 109">
          <path data-name="Path 134" d="M156.76 178.307a1.9 1.9 0 0 1-1-.307 1.74 1.74 0 0 1-.422-2.456l12.354-17.5a1.745 1.745 0 0 1 1.419-.729 1.73 1.73 0 0 1 1.42.767l11.587 17a1.74 1.74 0 0 1-2.878 1.957l-10.167-14.925-10.9 15.463a1.693 1.693 0 0 1-1.413.73z" fill="#222dc5"/>
        </g>
      </g>
      <g data-name="Group 115" fill="#222dc5">
        <path data-name="Path 135" d="M1113.21 399.62a1.76 1.76 0 0 1-1.765-1.765v-80.416l-10.4 17.765a1.719 1.719 0 0 1-2.379.614 1.753 1.753 0 0 1-.614-2.379l13.66-23.328a1.753 1.753 0 0 1 1.957-.806 1.728 1.728 0 0 1 1.3 1.688v86.867a1.737 1.737 0 0 1-1.759 1.76z"/>
        <path data-name="Path 136" d="M1127.56 336.158a1.8 1.8 0 0 1-1.5-.844l-14.312-23.367a1.757 1.757 0 0 1 2.993-1.842l14.312 23.367a1.786 1.786 0 0 1-.576 2.417 2.1 2.1 0 0 1-.917.269z"/>
        <path data-name="Path 137" d="M1097.402 360.484a1.767 1.767 0 0 1-1.419-2.8l15.885-21.909a1.745 1.745 0 0 1 1.419-.729 1.878 1.878 0 0 1 1.419.691l16.077 21.678a1.753 1.753 0 1 1-2.8 2.11l-14.657-19.76-14.466 19.951a1.752 1.752 0 0 1-1.458.768z"/>
        <path data-name="Path 138" d="M1097.019 385.309a1.9 1.9 0 0 1-1-.307 1.74 1.74 0 0 1-.422-2.456l16.23-23.021a2 2 0 0 1 1.458-.729 1.728 1.728 0 0 1 1.419.767l15.232 22.331a1.74 1.74 0 1 1-2.877 1.957l-13.813-20.259-14.771 20.949a1.858 1.858 0 0 1-1.456.768z"/>
      </g>
      <g data-name="Group 120">
        <g data-name="Group 117" fill="#222dc5">
          <path data-name="Path 139" d="M1181.59 320.163a1.76 1.76 0 0 1-1.765-1.765v-43.045l-4.528 7.712a1.737 1.737 0 0 1-2.993-1.765l7.789-13.276a1.753 1.753 0 0 1 1.957-.806 1.728 1.728 0 0 1 1.3 1.688v49.5a1.811 1.811 0 0 1-1.76 1.757z"/>
          <path data-name="Path 140" d="M1189.724 283.982a1.8 1.8 0 0 1-1.5-.844l-8.173-13.314a1.757 1.757 0 0 1 2.993-1.842l8.173 13.314a1.787 1.787 0 0 1-.576 2.417 1.529 1.529 0 0 1-.917.269z"/>
          <path data-name="Path 141" d="M1172.535 297.872a1.767 1.767 0 0 1-1.42-2.8l9.055-12.47a1.745 1.745 0 0 1 1.42-.729 1.879 1.879 0 0 1 1.419.691l9.17 12.355a1.753 1.753 0 1 1-2.8 2.11l-7.75-10.436-7.635 10.551a1.932 1.932 0 0 1-1.459.728z"/>
          <path data-name="Path 142" d="M1172.342 311.991a1.9 1.9 0 0 1-1-.307 1.741 1.741 0 0 1-.422-2.456l9.247-13.122a1.745 1.745 0 0 1 1.42-.729 1.729 1.729 0 0 1 1.419.767l8.671 12.738a1.74 1.74 0 1 1-2.877 1.957l-7.252-10.628-7.789 11.05a1.8 1.8 0 0 1-1.417.73z"/>
        </g>
      </g>
      <g data-name="Group 125" fill="#222dc5">
        <path data-name="Path 143" d="M144.764 417.187a1.76 1.76 0 0 1-1.765-1.765v-67.567l-8.4 14.312a1.737 1.737 0 0 1-2.993-1.765l11.665-19.875a1.752 1.752 0 0 1 1.957-.806 1.729 1.729 0 0 1 1.3 1.688v74.051a1.753 1.753 0 0 1-1.764 1.727z"/>
        <path data-name="Path 144" d="M157.003 363.088a1.8 1.8 0 0 1-1.5-.844l-12.2-19.913a1.757 1.757 0 0 1 2.993-1.842l12.2 19.913a1.786 1.786 0 0 1-.576 2.417 2.1 2.1 0 0 1-.917.269z"/>
        <path data-name="Path 145" d="M131.258 383.844a1.767 1.767 0 0 1-1.419-2.8l13.502-18.686a1.746 1.746 0 0 1 1.419-.729 1.879 1.879 0 0 1 1.42.691l13.7 18.494a1.753 1.753 0 1 1-2.8 2.11l-12.278-16.575-12.125 16.729a1.686 1.686 0 0 1-1.419.766z"/>
        <path data-name="Path 146" d="M130.95 404.948a1.9 1.9 0 0 1-1-.307 1.74 1.74 0 0 1-.422-2.456l13.851-19.606a1.745 1.745 0 0 1 1.419-.729 1.728 1.728 0 0 1 1.419.767l12.969 19.031a1.74 1.74 0 1 1-2.877 1.957l-11.549-16.959-12.393 17.534a1.6 1.6 0 0 1-1.417.768z"/>
      </g>
      <g data-name="Group 130" fill="#222dc5">
        <path data-name="Path 147" d="M78.689 242.709a1.76 1.76 0 0 1-1.765-1.765v-59.659l-7.137 12.2a1.737 1.737 0 1 1-2.993-1.765l10.4-17.765a1.753 1.753 0 0 1 1.957-.806 1.728 1.728 0 0 1 1.3 1.688v66.109a1.76 1.76 0 0 1-1.762 1.763z"/>
        <path data-name="Path 148" d="M89.586 194.407a1.8 1.8 0 0 1-1.5-.844l-10.9-17.8a1.757 1.757 0 0 1 2.993-1.842l10.9 17.8a1.787 1.787 0 0 1-.576 2.417 1.972 1.972 0 0 1-.917.269z"/>
        <path data-name="Path 149" d="M66.642 212.939a1.767 1.767 0 0 1-1.42-2.8l12.086-16.652a1.746 1.746 0 0 1 1.419-.729 1.879 1.879 0 0 1 1.42.691l12.239 16.5a1.753 1.753 0 1 1-2.8 2.11l-10.82-14.58-10.667 14.734a1.934 1.934 0 0 1-1.457.726z"/>
        <path data-name="Path 150" d="M66.336 231.816a1.9 1.9 0 0 1-1-.307 1.741 1.741 0 0 1-.422-2.456l12.354-17.534a1.873 1.873 0 0 1 1.458-.729 1.729 1.729 0 0 1 1.42.767l11.587 17a1.74 1.74 0 0 1-2.878 1.957L78.69 215.586l-10.9 15.463a1.752 1.752 0 0 1-1.454.767z"/>
      </g>
      <g data-name="Group 135" fill="#222dc5">
        <path data-name="Path 151" d="M1220.975 176.886a1.76 1.76 0 0 1-1.765-1.765v-34.608l-3.184 5.448a1.737 1.737 0 0 1-2.993-1.765l6.446-11.012a1.753 1.753 0 0 1 1.957-.806 1.728 1.728 0 0 1 1.3 1.688v41.054a1.761 1.761 0 0 1-1.761 1.766z"/>
        <path data-name="Path 152" d="M1227.728 146.883a1.8 1.8 0 0 1-1.5-.844l-6.753-11.05a1.757 1.757 0 0 1 2.993-1.842l6.753 11.05a1.787 1.787 0 0 1-.576 2.417 1.529 1.529 0 0 1-.917.269z"/>
        <path data-name="Path 153" d="M1213.493 158.392a1.767 1.767 0 0 1-1.42-2.8l7.482-10.359a1.745 1.745 0 0 1 1.42-.729 1.879 1.879 0 0 1 1.419.691l7.6 10.244a1.753 1.753 0 1 1-2.8 2.11l-6.177-8.326-6.1 8.4a1.644 1.644 0 0 1-1.424.769z"/>
        <path data-name="Path 154" d="M1213.301 170.134a1.9 1.9 0 0 1-1-.307 1.741 1.741 0 0 1-.422-2.456l7.674-10.858a1.745 1.745 0 0 1 1.42-.729 1.729 1.729 0 0 1 1.419.767l7.213 10.551a1.74 1.74 0 0 1-2.878 1.957l-5.755-8.479-6.216 8.825a1.872 1.872 0 0 1-1.455.729z"/>
      </g>
      <g data-name="Group 140">
        <g data-name="Group 138" fill="#222dc5">
          <path data-name="Path 155" d="M69.593 364.942a1.76 1.76 0 0 1-1.765-1.765v-34.608l-3.185 5.448a1.737 1.737 0 0 1-2.993-1.765l6.446-11.012a1.753 1.753 0 0 1 1.957-.806 1.728 1.728 0 0 1 1.3 1.688v41.054a1.761 1.761 0 0 1-1.76 1.766z"/>
          <path data-name="Path 156" d="M76.384 334.939a1.8 1.8 0 0 1-1.5-.844l-6.753-11.05a1.757 1.757 0 0 1 2.993-1.842l6.753 11.05a1.787 1.787 0 0 1-.576 2.417 2.106 2.106 0 0 1-.917.269z"/>
          <path data-name="Path 157" d="M62.11 346.448a1.767 1.767 0 0 1-1.419-2.8l7.482-10.36a1.745 1.745 0 0 1 1.419-.729 2.092 2.092 0 0 1 1.42.691l7.6 10.244a1.753 1.753 0 1 1-2.8 2.11l-6.177-8.326-6.1 8.4a1.736 1.736 0 0 1-1.425.77z"/>
          <path data-name="Path 158" d="M61.962 358.151a1.9 1.9 0 0 1-1-.307 1.741 1.741 0 0 1-.422-2.456l7.674-10.858a1.745 1.745 0 0 1 1.42-.729 1.729 1.729 0 0 1 1.42.767l7.213 10.551a1.74 1.74 0 1 1-2.878 1.957l-5.755-8.479-6.216 8.825a1.931 1.931 0 0 1-1.456.729z"/>
        </g>
      </g>
    </g>
    <g data-name="Group 722">
      <path data-name="Rectangle 80" fill="#fff" d="M318.188 173h690v177h-690z"/>
      <g data-name="Rectangle 43" fill="#fff" stroke="#d04a39">
        <path stroke="none" d="M327.188 182.628h670.906V340H327.188z"/>
        <path fill="none" d="M327.688 183.128h669.906V339.5H327.688z"/>
      </g>
      <text data-name="CIP Conference" transform="translate(662.447 276.314)" fill="#d04a39" font-size="50" font-family="Knockout-HTF94-UltmtSumo, Knockout" letter-spacing=".1em">
        <tspan x="-263.75" y="0">CIP Conference</tspan>
      </text>
    </g>
  </g>
</svg>
