<svg xmlns="http://www.w3.org/2000/svg" viewBox="0 0 140 130">
  <path fill="#F5F2EE" d="M88.41 91a1.5 1.5 0 0 0-2.56-1.41c-6 6.83-26.37 8-44.38 9a1.5 1.5 0 0 0-.31 3 146.94 146.94 0 0 0 24.6 4.34c.65 0 1.29.07 1.91.07 16.11 0 20.7-14.89 20.74-15zm-5.63 4.37c-3 4.1-8.12 8.17-16.81 7.55A119.46 119.46 0 0 1 52 101c11.45-.85 23.39-2.14 30.78-5.67zM50.27 93.18a1.51 1.51 0 0 0 1 1.23 1.56 1.56 0 0 0 .48.08 1.5 1.5 0 0 0 1.06-.44c11.41-11.38 12.34-15.25 13.54-37 .49-8.82 2.2-20 2.22-20.06a1.5 1.5 0 0 0-2.72-.99 97.43 97.43 0 0 0-10.14 20.24c-2.71 2.31-5.71 4.54-8.57 6.7-8.24 6.15-16.76 12.51-19.88 20.91a1.5 1.5 0 0 0 .63 1.8 1.53 1.53 0 0 0 1.88-.27c.07-.07 6.61-7 21.57-12.6-2.08 12.14-1.08 20.32-1.07 20.4zm11.94-38.93c-1.34 4-3.55 9.35-6.59 12.56.73-3 1.61-5.91 2.63-8.8 1.51-1.31 2.82-2.56 3.96-3.76zm1 5.91C62.16 77 61 81.2 53 89.54a83.79 83.79 0 0 1 1.58-18.12c3.26-1.82 6.14-5.6 8.6-11.26zM54 61.52c-.77 2.57-1.43 5.2-2 7.82A80.81 80.81 0 0 0 34.3 78c3.85-4.56 9.32-8.64 14.63-12.61 1.8-1.39 3.45-2.63 5.07-3.87zm7-10.36c1.1-2.5 2.32-4.95 3.64-7.34-.1.85-.21 1.76-.32 2.7A26.18 26.18 0 0 1 61 51.16z"/>
  <path fill="#F5F2EE" d="M112.36 59.82c-2.83-5.47-6.63-8.72-11-9.42H85.75c0-1.67.06-3.36.11-5.11a66.91 66.91 0 0 1 1.9-14.66c10.64.41 17.45.43 20.7-.61a8.39 8.39 0 0 0 6-7A9.44 9.44 0 0 0 110 14c-4.49-2.82-10.89-2.17-18 1.81a.84.84 0 0 0-.2.11c-.65.37-1.3.76-2 1.19-17.44 11.27-25.72 9.09-38.26 5.76-2-.54-4.17-1.1-6.47-1.64-18.13-4.31-23.62 13.44-23.67 13.62a1.49 1.49 0 0 0 .68 1.72 1.53 1.53 0 0 0 1.83-.24c7.75-7.88 37-6.81 55-6.08a69.47 69.47 0 0 0-7.34 21.35 1.29 1.29 0 0 0 0 .21c-.48 2.64-.86 5.35-1.14 8a136.08 136.08 0 0 0 .29 29.46 1.5 1.5 0 0 0 .8 1.13 1.53 1.53 0 0 0 1.38 0C83.83 84.7 85.18 73 85.58 58.26a26.78 26.78 0 0 1 12.2 19.08c4.47 28.11-21.77 47.53-22 47.72a1.51 1.51 0 0 0 .89 2.72 1.59 1.59 0 0 0 .81-.24c14-9 28.41-19.24 36.7-36.2 3.92-8.12 3.14-21.96-1.82-31.52zm-11.61 17.05a30.14 30.14 0 0 0-15.09-22v-1.54H101c4.22.72 7.07 4.65 8.72 7.83 4.49 8.66 5.27 21.59 1.74 28.83-4.66 9.53-11.6 17.59-22.27 25.77 7.25-9.18 14.14-22.64 11.56-38.89zm-16.59-49.4a38.79 38.79 0 0 1 2.41-3q-.57 1.43-1.08 3.05zm-1.3 17.72c0 1.77-.08 3.5-.12 5.19h-7.85a63.81 63.81 0 0 1 7.34-20l2.45.1a71.33 71.33 0 0 0-1.82 14.71zM82.16 30v-.1zm-6-2.86a46.06 46.06 0 0 0 6.36-2.5c-.66.87-1.3 1.76-1.9 2.68zm6.44 29.42c-.32 14.09-1.24 24.57-9.24 30.07a132.91 132.91 0 0 1 .92-33 34 34 0 0 1 8.34 2.93zm25.8-40.07a6.43 6.43 0 0 1 3.07 6.15 5.39 5.39 0 0 1-3.95 4.5c-3.05 1-11 .8-18.91.5 2-6 4.38-8.72 5-9.31 6.04-3.33 11.3-4.04 14.81-1.84zM54.61 26.77C41.33 27 32.28 28.38 26.52 31c2.37-3.69 6.44-7.48 13.12-7.48a20.62 20.62 0 0 1 4.74.59c2.26.53 4.36 1.09 6.41 1.63 1.31.38 2.57.72 3.82 1.03z"/>
</svg>
