<svg xmlns="http://www.w3.org/2000/svg" viewBox="0 0 741.3 460.2">
  <path d="M46.5 14.7c-4.4 0-8.4 1.2-12.1 3.7-3.7 2.5-6.9 5.4-9.7 8.6-2.8 3.3-5.1 6.6-7 9.8-1.9 3.3-3.3 5.7-4.3 7.3h-2.3l11.3-31.8h97.3l-11.3 31.8h-2.3c.5-2.2.9-4.5 1.1-7.1.2-2.6.3-5.2.3-7.7 0-4.1-1.1-7.6-3.3-10.4-2.2-2.8-6.1-4.3-11.5-4.3h-16L37.3 125.1h18.4l-.6 2.3H5.2l.6-2.3h16.9L62.3 14.7H46.5zM110.1 125.1l39.5-110.4h-18.4l.6-2.3h49.9l-.6 2.3h-16.8l-18.9 52.8h52l19-52.8h-18.6l.6-2.3h49.7l-.6 2.3H231l-39.7 110.4h18.6l-.6 2.3h-50l.6-2.3h16.8l20-55.4h-52l-20 55.4h18.6l-.6 2.3H93l.6-2.3h16.5zM258.9 14.7l.6-2.3h89.7l-9.8 27.4h-2.3c.4-1.2.9-2.9 1.3-5.2.4-2.3.6-4.4.6-6.5 0-4-.9-7.2-2.6-9.8-1.7-2.5-5.2-3.8-10.3-3.8H292l-17.9 49.9h15.2c3.4 0 6.5-.9 9.1-2.7 2.6-1.8 4.9-3.8 6.8-6.1 1.9-2.3 3.4-4.6 4.6-6.9 1.2-2.3 2-3.9 2.6-4.8h2.3l-16.9 47h-2.3c.5-1.3 1-3.1 1.5-5.3.4-2.3.6-4.4.6-6.5 0-4.1-1.2-7.2-3.6-9.3-2.4-2.1-5.6-3.1-9.7-3.1h-11L252.5 125h37.8c4.3 0 8.3-1.2 12-3.7 3.7-2.5 7-5.4 9.8-8.6 2.9-3.3 5.2-6.5 7.2-9.8 1.9-3.2 3.3-5.6 4.2-7.3h2.3l-11.3 31.6h-93.8l.6-2.3h16.6l39.5-110.4h-18.5zM46.5 174.7c-4.4 0-8.4 1.2-12.1 3.7-3.7 2.5-6.9 5.4-9.7 8.6-2.8 3.3-5.1 6.6-7 9.8-1.9 3.3-3.3 5.7-4.3 7.3h-2.3l11.3-31.8h97.3l-11.3 31.8h-2.3c.5-2.2.9-4.5 1.1-7.1.2-2.6.3-5.2.3-7.7 0-4.1-1.1-7.6-3.3-10.4-2.2-2.8-6.1-4.3-11.5-4.3h-16L37.3 285.1h18.4l-.6 2.3H5.2l.6-2.3h16.9l39.5-110.4H46.5zM110.1 285.1l39.5-110.4h-18.4l.6-2.3h49.9l-.6 2.3h-16.8l-18.9 52.8h52l19-52.8h-18.6l.6-2.3h49.7l-.6 2.3H231l-39.7 110.4h18.6l-.6 2.3h-50l.6-2.3h16.8l20-55.4h-52l-20 55.4h18.6l-.6 2.3H93l.6-2.3h16.5zM238.9 285.1l39.7-110.4H260l.6-2.3h50l-.6 2.3h-16.9l-39.5 110.4H272l-.6 2.3h-49.6l.6-2.3h16.5zM339.6 180.5l-37.3 104.6h18.4l-.6 2.3h-37.3l.6-2.3h16.5l39.4-110.4h-18.4l.6-2.3H352l22.9 91h.3l31.6-88.8h-18.6l.6-2.3h37.8l-.6 2.3h-16.6l-40.7 114.8h-1.1l-27.8-109h-.2zM489.8 287.3c-.1-1.1-.5-2-1-2.8-.6-.8-1.7-1.2-3.3-1.2-1.1 0-2.4.3-3.9 1-1.5.6-3.3 1.3-5.3 2.1s-4.4 1.5-7 2.1c-2.6.6-5.7 1-9.1 1-7.3 0-13.5-1.3-18.5-4s-9-6.1-12.1-10.3c-3.1-4.2-5.3-9.1-6.6-14.6-1.3-5.5-2-11.1-2-16.9 0-6.6 1-12.9 3-19s4.7-11.9 8.1-17.4c3.4-5.4 7.3-10.4 11.9-14.9 4.5-4.5 9.3-8.4 14.3-11.6 5-3.2 10.1-5.8 15.3-7.6 5.2-1.8 10.1-2.7 14.9-2.7 3.6 0 6.7.3 9.4 1 2.7.6 5.1 1.4 7.2 2.2 2.1.8 4 1.5 5.7 2.2 1.7.6 3.4 1 5 1 1.7 0 3.1-.5 4.2-1.4 1.1-.9 1.9-2 2.6-3.3l2.4.5-11.1 31.2h-2.1c.2-1.1.4-2.6.6-4.7.2-2 .3-4.1.3-6.3 0-3.4-.6-6.4-1.9-9-1.3-2.5-3-4.6-5.2-6.2-2.2-1.6-4.8-2.8-7.8-3.6-3-.8-6.2-1.2-9.7-1.2-5.6 0-10.8 1.6-15.7 4.8-4.8 3.2-9.3 7.4-13.3 12.6-4 5.2-7.6 11-10.8 17.5-3.2 6.5-5.9 13-8.1 19.6-2.2 6.6-3.9 12.9-5 18.9-1.1 6-1.7 11.2-1.7 15.5 0 8.7 2.4 15.2 7.1 19.5 4.7 4.3 11.5 6.4 20.2 6.4 6.3 0 11.4-1.5 15.1-4.5 3.7-3 6.3-6.6 7.8-10.8l7.9-22.4h-18.4l.6-2.3h46l-.6 2.3h-12.9l-13.6 37.8h-2.9zM533.7 255.6c-.5 1.6-1 3.1-1.5 4.6-.4 1.5-.6 3.1-.6 4.9 0 3.7.9 6.9 2.6 9.7 1.7 2.8 4 5.1 6.8 6.9 2.8 1.8 5.9 3.2 9.4 4.2 3.4 1 6.9 1.5 10.5 1.5 4.7 0 9-.7 12.8-2 3.8-1.3 6.9-3.2 9.5-5.7 2.6-2.4 4.5-5.3 5.9-8.6 1.3-3.3 2-6.9 2-10.7 0-4-.9-7.5-2.7-10.6s-4.2-6.1-7.3-9l-11.5-10.5c-5.2-4.6-9.2-9.2-12.2-13.8-3-4.6-4.4-9.8-4.4-15.6 0-4.5 1-8.7 3.1-12.4 2-3.8 4.8-7 8.2-9.7 3.4-2.7 7.4-4.8 11.9-6.3s9.1-2.3 13.8-2.3c3.3 0 6.3.3 8.8.9 2.5.6 4.8 1.3 6.9 2 2.1.8 4 1.4 5.8 2 1.8.6 3.6.9 5.4.9 1.6 0 2.8-.4 3.7-1.1.9-.8 1.6-1.8 2.1-3.1l2.4.5-11.1 30.8h-1.9c.2-.9.5-2.1.9-3.6.4-1.6.6-3.5.6-5.9 0-3.9-.6-7.2-1.9-9.8-1.3-2.7-3-4.9-5.2-6.5-2.2-1.7-4.7-2.9-7.5-3.6-2.9-.8-5.8-1.1-9-1.1-3.9 0-7.4.5-10.7 1.6-3.2 1.1-6 2.5-8.3 4.4-2.3 1.8-4.1 4-5.4 6.6-1.3 2.6-1.9 5.4-1.9 8.6 0 4.6 1.3 8.6 3.9 12s5.5 6.5 8.7 9.4l14.4 12.9c3.9 3.4 7.2 7.3 9.9 11.6s4.1 9.1 4.1 14.4c0 4.1-.9 8.2-2.8 12.4-1.9 4.2-4.7 8-8.4 11.4s-8.4 6.2-14 8.3c-5.6 2.2-12.1 3.2-19.5 3.2-3.9 0-7.3-.3-10.2-1-3-.6-5.6-1.4-8.1-2.3-2.4-.9-4.7-1.6-6.8-2.3-2.1-.6-4.2-1-6.2-1-1.4 0-2.7.5-3.9 1.5-1.2 1-1.9 2.2-2.1 3.5l-2.3-.5 11.3-32h2zM8.9 334.7l.6-2.3H57l-.6 2.3H40.7l-1 95.1h.3l42.1-63.1.3-32H65.6l.6-2.3h48.9l-.6 2.3H96.4l-1 93.9h.3l62.8-93.9H143l.6-2.3h33.1l-.6 2.3h-14.4L84.6 449.4h-3.2l.6-77.8h-.3l-52.3 77.8h-4l1.3-114.8H8.9zM187.3 334.7l.6-2.3h89.7l-9.8 27.4h-2.3c.4-1.2.9-2.9 1.3-5.2.4-2.3.6-4.4.6-6.5 0-4-.9-7.2-2.6-9.8-1.7-2.5-5.2-3.8-10.3-3.8h-34.1l-17.9 49.9h15.2c3.4 0 6.5-.9 9.1-2.7 2.6-1.8 4.9-3.8 6.8-6.1 1.9-2.3 3.4-4.6 4.6-6.9 1.2-2.3 2-3.9 2.6-4.8h2.3l-16.9 47h-2.3c.5-1.3 1-3.1 1.5-5.3.4-2.3.6-4.4.6-6.5 0-4.1-1.2-7.2-3.6-9.3-2.4-2.1-5.6-3.1-9.7-3.1h-11L181 445.1h37.8c4.3 0 8.3-1.2 12-3.7 3.7-2.5 7-5.4 9.8-8.6 2.9-3.3 5.2-6.5 7.2-9.8s3.3-5.6 4.2-7.3h2.3L243 447.3h-93.8l.6-2.3h16.6L206 334.7h-18.7zM325.3 385c1.9-6 4.5-11.8 7.8-17.2 3.3-5.4 7.2-10.4 11.7-15 4.5-4.6 9.3-8.5 14.4-11.9 5.1-3.3 10.4-5.9 15.9-7.8 5.5-1.9 10.9-2.8 16.3-2.8 7 0 12.9 1.4 17.7 4.3 4.8 2.9 8.7 6.5 11.6 11.1 3 4.5 5.1 9.6 6.4 15.1 1.3 5.5 1.9 11 1.9 16.4 0 5.8-.9 11.7-2.7 17.5-1.8 5.9-4.3 11.5-7.4 16.8-3.2 5.3-7 10.3-11.4 14.9s-9.2 8.7-14.4 12.1c-5.2 3.4-10.6 6.1-16.4 8.1-5.8 1.9-11.6 2.9-17.7 2.9-5.4 0-10.3-1-14.9-3s-8.4-4.9-11.6-8.8c-3.2-3.9-5.8-8.7-7.6-14.4-1.8-5.8-2.7-12.4-2.7-19.9.2-6.3 1.1-12.3 3.1-18.4zm10.5 46.5c.8 3.1 2.1 5.8 4 8.2 1.9 2.3 4.5 4.2 7.8 5.6 3.3 1.4 7.5 2.1 12.5 2.1 6.3 0 12.1-1.6 17.4-4.8 5.2-3.2 9.9-7.4 14-12.6 4.1-5.2 7.8-11 10.9-17.4 3.1-6.5 5.7-13 7.7-19.5 2-6.6 3.5-12.8 4.5-18.8s1.5-11 1.5-15.1c0-8.4-2-14.9-6-19.5s-10.3-6.9-19-6.9c-6 0-11.6 1.6-16.7 4.7s-9.8 7.2-14 12.3c-4.2 5.1-7.9 10.8-11.1 17.2-3.2 6.4-5.9 12.9-8.1 19.5-2.2 6.6-3.8 13-4.9 19.3-1.1 6.2-1.7 11.7-1.7 16.3 0 3.1.4 6.3 1.2 9.4zM448.3 334.7l.6-2.3h47.5l-.6 2.3h-15.7l-1 95.1h.3l42.1-63.1.3-32h-16.9l.6-2.3h48.9l-.6 2.3h-18.1l-1 93.9h.3l62.8-93.9h-15.5l.6-2.3H616l-.6 2.3H601l-77 114.7h-3.2l.6-77.8h-.3l-52.3 77.8h-4l1.3-114.8h-17.8zM644.5 340.5l-37.3 104.6h18.4l-.6 2.3h-37.3l.6-2.3h16.5l39.4-110.4h-18.4l.6-2.3H657l22.9 91h.3l31.6-88.8h-18.6l.6-2.3h37.8l-.6 2.3h-16.6l-40.7 114.8h-1.1l-27.8-109h-.3z"/>
</svg>
