<svg xmlns="http://www.w3.org/2000/svg" width="574.386" height="563.403" viewBox="0 0 574.386 563.403">
  <g id="Group_2111" data-name="Group 2111" transform="translate(-38.642 -1965.095)">
    <g id="Group_2086" data-name="Group 2086" transform="translate(235.875 2124.065)">
      <path id="Path_15313" data-name="Path 15313" d="M176.152,172.068a4,4,0,1,0-4-4A4,4,0,0,0,176.152,172.068Zm0-6a2,2,0,1,1-2,2A2,2,0,0,1,176.152,166.068Z" fill="#292929"/>
      <path id="Path_15314" data-name="Path 15314" d="M201.152,141.849v34.219h2a1,1,0,0,1,0,2h-6a1,1,0,1,1,0-2h2V142.349l-6.757,1.689a1,1,0,1,1-.485-1.94l7.242-1.811v-.1l-.97-3.881a1,1,0,0,1,1.94-.485l.993,3.971,6.795-1.7a1,1,0,0,1,.485,1.94Z" fill="#292929"/>
      <path id="Path_15315" data-name="Path 15315" d="M135.525,140.038a1,1,0,1,1,.485-1.94l6.794,1.7.993-3.971a1,1,0,0,1,1.94.485l-.97,3.881v.1l7.243,1.811a1,1,0,0,1-.485,1.94l-6.758-1.689v33.719h2a1,1,0,1,1,0,2h-6a1,1,0,0,1,0-2h2V141.849Z" fill="#292929"/>
      <path id="Path_15316" data-name="Path 15316" d="M196.152,150.068h-2a1,1,0,0,0-2,0H180.6a14.852,14.852,0,0,0-4.451-1.7v-1.3h1a1,1,0,0,0,2,0h5a1,1,0,0,0,2,0h2a1,1,0,0,0,1-1v-10a1,1,0,0,0-1-1h-2a1,1,0,0,0-2,0h-5a1,1,0,0,0-2,0h-2a1,1,0,0,0-1,1v12.051c-.332-.023-.662-.051-1-.051s-.668.028-1,.051V136.068a1,1,0,0,0-1-1h-2a1,1,0,0,0-2,0h-5a1,1,0,0,0-2,0h-2a1,1,0,0,0-1,1v10a1,1,0,0,0,1,1h2a1,1,0,0,0,2,0h5a1,1,0,0,0,2,0h1v1.3a14.977,14.977,0,0,0-8.148,4.7h-6.852a1,1,0,0,0-2,0h-2a1,1,0,0,0-1,1v16a1,1,0,0,0,1,1h.484l-2.4,5.606a1,1,0,0,0,.525,1.313.979.979,0,0,0,.394.081,1,1,0,0,0,.919-.606l2.74-6.394h1.8v6a1,1,0,0,0,2,0v-6h2.871a12.739,12.739,0,0,0,2.088,2.551l-2.789,2.735a1,1,0,0,0,1.4,1.427l2.848-2.793a15.58,15.58,0,0,0,9.118,3.08,14.919,14.919,0,0,0,9.861-3.725l3.432,3.432a1,1,0,0,0,1.414-1.414l-3.432-3.432a14.933,14.933,0,0,0,3.422-12.861h4.3a1,1,0,0,0,2,0h2a1,1,0,0,0,1-1v-8A1,1,0,0,0,196.152,150.068Zm-10-13h1v8h-1Zm-7,0h5v8h-5Zm-3,0h1v8h-1Zm-16,8h-1v-8h1Zm7,0h-5v-8h5Zm-14,24h-1v-14h1Zm16-24v-8h1v8Zm-14,24v-14h5.333a14.892,14.892,0,0,0-1.072,14Zm18,7a13,13,0,1,1,13-13A13.015,13.015,0,0,1,173.152,176.068Zm19-18h-4.875a15.022,15.022,0,0,0-3.961-6h8.836Zm3,0h-1v-6h1Z" fill="#292929"/>
    </g>
    <g id="Group_2109" data-name="Group 2109" transform="translate(-96.125 2087.065)">
      <path id="Path_15313-2" data-name="Path 15313" d="M176.152,172.068a4,4,0,1,0-4-4A4,4,0,0,0,176.152,172.068Zm0-6a2,2,0,1,1-2,2A2,2,0,0,1,176.152,166.068Z" fill="#292929"/>
      <path id="Path_15314-2" data-name="Path 15314" d="M201.152,141.849v34.219h2a1,1,0,0,1,0,2h-6a1,1,0,1,1,0-2h2V142.349l-6.757,1.689a1,1,0,1,1-.485-1.94l7.242-1.811v-.1l-.97-3.881a1,1,0,0,1,1.94-.485l.993,3.971,6.795-1.7a1,1,0,0,1,.485,1.94Z" fill="#292929"/>
      <path id="Path_15315-2" data-name="Path 15315" d="M135.525,140.038a1,1,0,1,1,.485-1.94l6.794,1.7.993-3.971a1,1,0,0,1,1.94.485l-.97,3.881v.1l7.243,1.811a1,1,0,0,1-.485,1.94l-6.758-1.689v33.719h2a1,1,0,1,1,0,2h-6a1,1,0,0,1,0-2h2V141.849Z" fill="#292929"/>
      <path id="Path_15316-2" data-name="Path 15316" d="M196.152,150.068h-2a1,1,0,0,0-2,0H180.6a14.852,14.852,0,0,0-4.451-1.7v-1.3h1a1,1,0,0,0,2,0h5a1,1,0,0,0,2,0h2a1,1,0,0,0,1-1v-10a1,1,0,0,0-1-1h-2a1,1,0,0,0-2,0h-5a1,1,0,0,0-2,0h-2a1,1,0,0,0-1,1v12.051c-.332-.023-.662-.051-1-.051s-.668.028-1,.051V136.068a1,1,0,0,0-1-1h-2a1,1,0,0,0-2,0h-5a1,1,0,0,0-2,0h-2a1,1,0,0,0-1,1v10a1,1,0,0,0,1,1h2a1,1,0,0,0,2,0h5a1,1,0,0,0,2,0h1v1.3a14.977,14.977,0,0,0-8.148,4.7h-6.852a1,1,0,0,0-2,0h-2a1,1,0,0,0-1,1v16a1,1,0,0,0,1,1h.484l-2.4,5.606a1,1,0,0,0,.525,1.313.979.979,0,0,0,.394.081,1,1,0,0,0,.919-.606l2.74-6.394h1.8v6a1,1,0,0,0,2,0v-6h2.871a12.739,12.739,0,0,0,2.088,2.551l-2.789,2.735a1,1,0,0,0,1.4,1.427l2.848-2.793a15.58,15.58,0,0,0,9.118,3.08,14.919,14.919,0,0,0,9.861-3.725l3.432,3.432a1,1,0,0,0,1.414-1.414l-3.432-3.432a14.933,14.933,0,0,0,3.422-12.861h4.3a1,1,0,0,0,2,0h2a1,1,0,0,0,1-1v-8A1,1,0,0,0,196.152,150.068Zm-10-13h1v8h-1Zm-7,0h5v8h-5Zm-3,0h1v8h-1Zm-16,8h-1v-8h1Zm7,0h-5v-8h5Zm-14,24h-1v-14h1Zm16-24v-8h1v8Zm-14,24v-14h5.333a14.892,14.892,0,0,0-1.072,14Zm18,7a13,13,0,1,1,13-13A13.015,13.015,0,0,1,173.152,176.068Zm19-18h-4.875a15.022,15.022,0,0,0-3.961-6h8.836Zm3,0h-1v-6h1Z" fill="#292929"/>
    </g>
    <g id="Group_2107" data-name="Group 2107" transform="translate(403.875 1831.065)">
      <path id="Path_15313-3" data-name="Path 15313" d="M176.152,172.068a4,4,0,1,0-4-4A4,4,0,0,0,176.152,172.068Zm0-6a2,2,0,1,1-2,2A2,2,0,0,1,176.152,166.068Z" fill="#292929"/>
      <path id="Path_15314-3" data-name="Path 15314" d="M201.152,141.849v34.219h2a1,1,0,0,1,0,2h-6a1,1,0,1,1,0-2h2V142.349l-6.757,1.689a1,1,0,1,1-.485-1.94l7.242-1.811v-.1l-.97-3.881a1,1,0,0,1,1.94-.485l.993,3.971,6.795-1.7a1,1,0,0,1,.485,1.94Z" fill="#292929"/>
      <path id="Path_15315-3" data-name="Path 15315" d="M135.525,140.038a1,1,0,1,1,.485-1.94l6.794,1.7.993-3.971a1,1,0,0,1,1.94.485l-.97,3.881v.1l7.243,1.811a1,1,0,0,1-.485,1.94l-6.758-1.689v33.719h2a1,1,0,1,1,0,2h-6a1,1,0,0,1,0-2h2V141.849Z" fill="#292929"/>
      <path id="Path_15316-3" data-name="Path 15316" d="M196.152,150.068h-2a1,1,0,0,0-2,0H180.6a14.852,14.852,0,0,0-4.451-1.7v-1.3h1a1,1,0,0,0,2,0h5a1,1,0,0,0,2,0h2a1,1,0,0,0,1-1v-10a1,1,0,0,0-1-1h-2a1,1,0,0,0-2,0h-5a1,1,0,0,0-2,0h-2a1,1,0,0,0-1,1v12.051c-.332-.023-.662-.051-1-.051s-.668.028-1,.051V136.068a1,1,0,0,0-1-1h-2a1,1,0,0,0-2,0h-5a1,1,0,0,0-2,0h-2a1,1,0,0,0-1,1v10a1,1,0,0,0,1,1h2a1,1,0,0,0,2,0h5a1,1,0,0,0,2,0h1v1.3a14.977,14.977,0,0,0-8.148,4.7h-6.852a1,1,0,0,0-2,0h-2a1,1,0,0,0-1,1v16a1,1,0,0,0,1,1h.484l-2.4,5.606a1,1,0,0,0,.525,1.313.979.979,0,0,0,.394.081,1,1,0,0,0,.919-.606l2.74-6.394h1.8v6a1,1,0,0,0,2,0v-6h2.871a12.739,12.739,0,0,0,2.088,2.551l-2.789,2.735a1,1,0,0,0,1.4,1.427l2.848-2.793a15.58,15.58,0,0,0,9.118,3.08,14.919,14.919,0,0,0,9.861-3.725l3.432,3.432a1,1,0,0,0,1.414-1.414l-3.432-3.432a14.933,14.933,0,0,0,3.422-12.861h4.3a1,1,0,0,0,2,0h2a1,1,0,0,0,1-1v-8A1,1,0,0,0,196.152,150.068Zm-10-13h1v8h-1Zm-7,0h5v8h-5Zm-3,0h1v8h-1Zm-16,8h-1v-8h1Zm7,0h-5v-8h5Zm-14,24h-1v-14h1Zm16-24v-8h1v8Zm-14,24v-14h5.333a14.892,14.892,0,0,0-1.072,14Zm18,7a13,13,0,1,1,13-13A13.015,13.015,0,0,1,173.152,176.068Zm19-18h-4.875a15.022,15.022,0,0,0-3.961-6h8.836Zm3,0h-1v-6h1Z" fill="#292929"/>
    </g>
    <g id="Group_2087" data-name="Group 2087" transform="translate(247.875 2062.065)">
      <path id="Path_15317" data-name="Path 15317" d="M57.234,160.05a3.333,3.333,0,1,0,3.332,3.333A3.337,3.337,0,0,0,57.234,160.05Zm0,4.666a1.333,1.333,0,1,1,1.332-1.333A1.335,1.335,0,0,1,57.234,164.716Z" fill="#292929"/>
      <path id="Path_15318" data-name="Path 15318" d="M51.136,166a.985.985,0,0,0-.729-.234,1,1,0,0,0-.68.35l-1.862,2.2a1,1,0,0,0,.117,1.409l4.9,4.155a1,1,0,0,0,1.41-.117l1.862-2.2a1,1,0,0,0-.117-1.41Zm2.28,5.706-3.379-2.862.57-.671,3.379,2.861Z" fill="#292929"/>
      <path id="Path_15319" data-name="Path 15319" d="M92.426,123.943c-1.062-1.1-3.228-.788-3.653-.714a1.006,1.006,0,0,0-.361.138l-1.7,1.067-.488-.887a1,1,0,0,0-1.752.966l.543.986-1.146.72-.651-1.18a1,1,0,1,0-1.751.966l.7,1.278-1.19.748-.629-1.141a1,1,0,0,0-1.751.966l.684,1.24-1.467.92a1,1,0,0,0-.383,1.253,2.157,2.157,0,0,1,.048,1.662l-16.129,20.6a1.8,1.8,0,0,1-1.909.006c-.365-.357-.474-1.3.314-2.876.309-.619,1.25-2.5-.078-3.332-1.51-.946-4.422,1.32-5.156,2.275a11.369,11.369,0,0,0-1.281,3.28c-.632,2.121-1.5,5.025-2.887,5.95-.47.313-1.121.654-1.876,1.049-3.307,1.731-8.306,4.348-7.2,9.7,1.271,6.168,10.036,10.119,10.409,10.284.024.011.049.021.074.03a11.4,11.4,0,0,0,3.731.717,6,6,0,0,0,3.051-.761c2.733-1.577,3.394-5.085,3.877-7.646l.069-.366c.509-2.664.509-2.664,2.577-4.422.508-.431,1.124-.956,1.879-1.63,2.449-2.183,3.444-3.942,3.045-5.375a2.027,2.027,0,0,0-1.591-1.459c-.832-.153-1.427.443-1.949.972-.774.782-1.305,1.237-2.159.945-.287-.1-.532-.466-.732-1L82.008,136.3a.952.952,0,0,0,.077-.153c.015-.012.034-.017.048-.03a8.8,8.8,0,0,1,3.286-1.1,1,1,0,0,0,.663-.419c.12-.174,2.936-4.269,3.759-5.724a8.256,8.256,0,0,1,2.6-2.3,1,1,0,0,0,.48-.664A2.114,2.114,0,0,0,92.426,123.943ZM73.283,144.2l-1.291-1.011,3.213-4.1,1.289,1.01Zm-4.444,5.679-1.293-1.012,3.213-4.1,1.292,1.011Zm-.964,11.454.185-.185c-.064.386-.446,1.368-2.443,3.149-.741.661-1.345,1.175-1.843,1.6-2.347,1.995-2.626,2.323-3.247,5.571l-.07.371c-.411,2.18-.974,5.166-2.911,6.284-1.195.691-2.9.658-5.079-.1-.575-.264-8.2-3.855-9.228-8.845-.739-3.587,2.358-5.531,6.171-7.527.805-.421,1.5-.784,2.057-1.155,1.994-1.326,2.938-4.5,3.7-7.046a12.662,12.662,0,0,1,.949-2.631,6.707,6.707,0,0,1,2.081-1.537c-.056.134-.127.293-.221.48-1.551,3.1-.466,4.668.072,5.2a3.274,3.274,0,0,0,2.911.787c.026,2.3.412,6.24,2.694,7.017C65.753,163.485,67.133,162.086,67.875,161.335Zm-4.9-6.621,3.343-4.27,1.294,1.012-4.563,5.833A19.326,19.326,0,0,1,62.97,154.714Zm14.757-16.191-1.289-1.009,2.083-2.661,1.293,1ZM88.1,127.885c-.648,1.144-2.727,4.2-3.431,5.231a10.748,10.748,0,0,0-3.522,1.243l-1.637-1.269a4.176,4.176,0,0,0,.026-1.79l9.762-6.128a4.239,4.239,0,0,1,1.516.059A8.969,8.969,0,0,0,88.1,127.885Z" fill="#292929"/>
    </g>
    <g id="Group_2106" data-name="Group 2106" transform="translate(71.875 2233.065)">
      <path id="Path_15317-2" data-name="Path 15317" d="M57.234,160.05a3.333,3.333,0,1,0,3.332,3.333A3.337,3.337,0,0,0,57.234,160.05Zm0,4.666a1.333,1.333,0,1,1,1.332-1.333A1.335,1.335,0,0,1,57.234,164.716Z" fill="#292929"/>
      <path id="Path_15318-2" data-name="Path 15318" d="M51.136,166a.985.985,0,0,0-.729-.234,1,1,0,0,0-.68.35l-1.862,2.2a1,1,0,0,0,.117,1.409l4.9,4.155a1,1,0,0,0,1.41-.117l1.862-2.2a1,1,0,0,0-.117-1.41Zm2.28,5.706-3.379-2.862.57-.671,3.379,2.861Z" fill="#292929"/>
      <path id="Path_15319-2" data-name="Path 15319" d="M92.426,123.943c-1.062-1.1-3.228-.788-3.653-.714a1.006,1.006,0,0,0-.361.138l-1.7,1.067-.488-.887a1,1,0,0,0-1.752.966l.543.986-1.146.72-.651-1.18a1,1,0,1,0-1.751.966l.7,1.278-1.19.748-.629-1.141a1,1,0,0,0-1.751.966l.684,1.24-1.467.92a1,1,0,0,0-.383,1.253,2.157,2.157,0,0,1,.048,1.662l-16.129,20.6a1.8,1.8,0,0,1-1.909.006c-.365-.357-.474-1.3.314-2.876.309-.619,1.25-2.5-.078-3.332-1.51-.946-4.422,1.32-5.156,2.275a11.369,11.369,0,0,0-1.281,3.28c-.632,2.121-1.5,5.025-2.887,5.95-.47.313-1.121.654-1.876,1.049-3.307,1.731-8.306,4.348-7.2,9.7,1.271,6.168,10.036,10.119,10.409,10.284.024.011.049.021.074.03a11.4,11.4,0,0,0,3.731.717,6,6,0,0,0,3.051-.761c2.733-1.577,3.394-5.085,3.877-7.646l.069-.366c.509-2.664.509-2.664,2.577-4.422.508-.431,1.124-.956,1.879-1.63,2.449-2.183,3.444-3.942,3.045-5.375a2.027,2.027,0,0,0-1.591-1.459c-.832-.153-1.427.443-1.949.972-.774.782-1.305,1.237-2.159.945-.287-.1-.532-.466-.732-1L82.008,136.3a.952.952,0,0,0,.077-.153c.015-.012.034-.017.048-.03a8.8,8.8,0,0,1,3.286-1.1,1,1,0,0,0,.663-.419c.12-.174,2.936-4.269,3.759-5.724a8.256,8.256,0,0,1,2.6-2.3,1,1,0,0,0,.48-.664A2.114,2.114,0,0,0,92.426,123.943ZM73.283,144.2l-1.291-1.011,3.213-4.1,1.289,1.01Zm-4.444,5.679-1.293-1.012,3.213-4.1,1.292,1.011Zm-.964,11.454.185-.185c-.064.386-.446,1.368-2.443,3.149-.741.661-1.345,1.175-1.843,1.6-2.347,1.995-2.626,2.323-3.247,5.571l-.07.371c-.411,2.18-.974,5.166-2.911,6.284-1.195.691-2.9.658-5.079-.1-.575-.264-8.2-3.855-9.228-8.845-.739-3.587,2.358-5.531,6.171-7.527.805-.421,1.5-.784,2.057-1.155,1.994-1.326,2.938-4.5,3.7-7.046a12.662,12.662,0,0,1,.949-2.631,6.707,6.707,0,0,1,2.081-1.537c-.056.134-.127.293-.221.48-1.551,3.1-.466,4.668.072,5.2a3.274,3.274,0,0,0,2.911.787c.026,2.3.412,6.24,2.694,7.017C65.753,163.485,67.133,162.086,67.875,161.335Zm-4.9-6.621,3.343-4.27,1.294,1.012-4.563,5.833A19.326,19.326,0,0,1,62.97,154.714Zm14.757-16.191-1.289-1.009,2.083-2.661,1.293,1ZM88.1,127.885c-.648,1.144-2.727,4.2-3.431,5.231a10.748,10.748,0,0,0-3.522,1.243l-1.637-1.269a4.176,4.176,0,0,0,.026-1.79l9.762-6.128a4.239,4.239,0,0,1,1.516.059A8.969,8.969,0,0,0,88.1,127.885Z" fill="#292929"/>
    </g>
    <g id="Group_2103" data-name="Group 2103" transform="translate(215.875 1842.065)">
      <path id="Path_15317-3" data-name="Path 15317" d="M57.234,160.05a3.333,3.333,0,1,0,3.332,3.333A3.337,3.337,0,0,0,57.234,160.05Zm0,4.666a1.333,1.333,0,1,1,1.332-1.333A1.335,1.335,0,0,1,57.234,164.716Z" fill="#292929"/>
      <path id="Path_15318-3" data-name="Path 15318" d="M51.136,166a.985.985,0,0,0-.729-.234,1,1,0,0,0-.68.35l-1.862,2.2a1,1,0,0,0,.117,1.409l4.9,4.155a1,1,0,0,0,1.41-.117l1.862-2.2a1,1,0,0,0-.117-1.41Zm2.28,5.706-3.379-2.862.57-.671,3.379,2.861Z" fill="#292929"/>
      <path id="Path_15319-3" data-name="Path 15319" d="M92.426,123.943c-1.062-1.1-3.228-.788-3.653-.714a1.006,1.006,0,0,0-.361.138l-1.7,1.067-.488-.887a1,1,0,0,0-1.752.966l.543.986-1.146.72-.651-1.18a1,1,0,1,0-1.751.966l.7,1.278-1.19.748-.629-1.141a1,1,0,0,0-1.751.966l.684,1.24-1.467.92a1,1,0,0,0-.383,1.253,2.157,2.157,0,0,1,.048,1.662l-16.129,20.6a1.8,1.8,0,0,1-1.909.006c-.365-.357-.474-1.3.314-2.876.309-.619,1.25-2.5-.078-3.332-1.51-.946-4.422,1.32-5.156,2.275a11.369,11.369,0,0,0-1.281,3.28c-.632,2.121-1.5,5.025-2.887,5.95-.47.313-1.121.654-1.876,1.049-3.307,1.731-8.306,4.348-7.2,9.7,1.271,6.168,10.036,10.119,10.409,10.284.024.011.049.021.074.03a11.4,11.4,0,0,0,3.731.717,6,6,0,0,0,3.051-.761c2.733-1.577,3.394-5.085,3.877-7.646l.069-.366c.509-2.664.509-2.664,2.577-4.422.508-.431,1.124-.956,1.879-1.63,2.449-2.183,3.444-3.942,3.045-5.375a2.027,2.027,0,0,0-1.591-1.459c-.832-.153-1.427.443-1.949.972-.774.782-1.305,1.237-2.159.945-.287-.1-.532-.466-.732-1L82.008,136.3a.952.952,0,0,0,.077-.153c.015-.012.034-.017.048-.03a8.8,8.8,0,0,1,3.286-1.1,1,1,0,0,0,.663-.419c.12-.174,2.936-4.269,3.759-5.724a8.256,8.256,0,0,1,2.6-2.3,1,1,0,0,0,.48-.664A2.114,2.114,0,0,0,92.426,123.943ZM73.283,144.2l-1.291-1.011,3.213-4.1,1.289,1.01Zm-4.444,5.679-1.293-1.012,3.213-4.1,1.292,1.011Zm-.964,11.454.185-.185c-.064.386-.446,1.368-2.443,3.149-.741.661-1.345,1.175-1.843,1.6-2.347,1.995-2.626,2.323-3.247,5.571l-.07.371c-.411,2.18-.974,5.166-2.911,6.284-1.195.691-2.9.658-5.079-.1-.575-.264-8.2-3.855-9.228-8.845-.739-3.587,2.358-5.531,6.171-7.527.805-.421,1.5-.784,2.057-1.155,1.994-1.326,2.938-4.5,3.7-7.046a12.662,12.662,0,0,1,.949-2.631,6.707,6.707,0,0,1,2.081-1.537c-.056.134-.127.293-.221.48-1.551,3.1-.466,4.668.072,5.2a3.274,3.274,0,0,0,2.911.787c.026,2.3.412,6.24,2.694,7.017C65.753,163.485,67.133,162.086,67.875,161.335Zm-4.9-6.621,3.343-4.27,1.294,1.012-4.563,5.833A19.326,19.326,0,0,1,62.97,154.714Zm14.757-16.191-1.289-1.009,2.083-2.661,1.293,1ZM88.1,127.885c-.648,1.144-2.727,4.2-3.431,5.231a10.748,10.748,0,0,0-3.522,1.243l-1.637-1.269a4.176,4.176,0,0,0,.026-1.79l9.762-6.128a4.239,4.239,0,0,1,1.516.059A8.969,8.969,0,0,0,88.1,127.885Z" fill="#292929"/>
    </g>
    <g id="Group_2088" data-name="Group 2088" transform="translate(313.875 2037.065)">
      <path id="Path_15320" data-name="Path 15320" d="M283.569,81.134a1,1,0,0,0-1,1v3.289H279.3V70.9a1,1,0,0,0-.267-.733L255.97,50.1V43.786l11.419-4.362a1,1,0,0,0,0-1.868l-12.062-4.609a1,1,0,0,0-1.357.934V50.1h0L230.9,70.166a1.4,1.4,0,0,0-.267.733V85.423h-3.7V83.134a1,1,0,0,0-2,0v3.289a1,1,0,0,0,1,1h5.649c.016,0,.03.01.046.01H278.3c.016,0,.03-.009.046-.01h5.22a1,1,0,0,0,1-1V82.134A1,1,0,0,0,283.569,81.134Zm-27.6-45.8,8.26,3.156-8.26,3.155Zm-2,50.1h-9.579l9.579-18.485Zm0-23.082-.005.006L242.171,85.433h-9.535V71.3L253.97,52.966Zm2,23.082V66.8l9.474,18.629Zm21.333-.01H275.28c-.017,0-.031.009-.048.01h-7.567L255.97,62.2V52.966L277.3,71.3Z" fill="#292929"/>
      <path id="Path_15321" data-name="Path 15321" d="M236.785,77.19h6.765a1,1,0,0,0,1-1V71.433a1,1,0,0,0-1-1h-6.765a1,1,0,0,0-1,1V76.19A1,1,0,0,0,236.785,77.19Zm1-4.757h4.765V75.19h-4.765Z" fill="#292929"/>
      <path id="Path_15322" data-name="Path 15322" d="M266.285,77.19h6.766a1,1,0,0,0,1-1V71.433a1,1,0,0,0-1-1h-6.766a1,1,0,0,0-1,1V76.19A1,1,0,0,0,266.285,77.19Zm1-4.757h4.766V75.19h-4.766Z" fill="#292929"/>
    </g>
    <g id="Group_2104" data-name="Group 2104" transform="translate(-103.125 2000.065)">
      <path id="Path_15320-2" data-name="Path 15320" d="M283.569,81.134a1,1,0,0,0-1,1v3.289H279.3V70.9a1,1,0,0,0-.267-.733L255.97,50.1V43.786l11.419-4.362a1,1,0,0,0,0-1.868l-12.062-4.609a1,1,0,0,0-1.357.934V50.1h0L230.9,70.166a1.4,1.4,0,0,0-.267.733V85.423h-3.7V83.134a1,1,0,0,0-2,0v3.289a1,1,0,0,0,1,1h5.649c.016,0,.03.01.046.01H278.3c.016,0,.03-.009.046-.01h5.22a1,1,0,0,0,1-1V82.134A1,1,0,0,0,283.569,81.134Zm-27.6-45.8,8.26,3.156-8.26,3.155Zm-2,50.1h-9.579l9.579-18.485Zm0-23.082-.005.006L242.171,85.433h-9.535V71.3L253.97,52.966Zm2,23.082V66.8l9.474,18.629Zm21.333-.01H275.28c-.017,0-.031.009-.048.01h-7.567L255.97,62.2V52.966L277.3,71.3Z" fill="#292929"/>
      <path id="Path_15321-2" data-name="Path 15321" d="M236.785,77.19h6.765a1,1,0,0,0,1-1V71.433a1,1,0,0,0-1-1h-6.765a1,1,0,0,0-1,1V76.19A1,1,0,0,0,236.785,77.19Zm1-4.757h4.765V75.19h-4.765Z" fill="#292929"/>
      <path id="Path_15322-2" data-name="Path 15322" d="M266.285,77.19h6.766a1,1,0,0,0,1-1V71.433a1,1,0,0,0-1-1h-6.766a1,1,0,0,0-1,1V76.19A1,1,0,0,0,266.285,77.19Zm1-4.757h4.766V75.19h-4.766Z" fill="#292929"/>
    </g>
    <g id="Group_2110" data-name="Group 2110" transform="translate(290.875 2441.065)">
      <path id="Path_15320-3" data-name="Path 15320" d="M283.569,81.134a1,1,0,0,0-1,1v3.289H279.3V70.9a1,1,0,0,0-.267-.733L255.97,50.1V43.786l11.419-4.362a1,1,0,0,0,0-1.868l-12.062-4.609a1,1,0,0,0-1.357.934V50.1h0L230.9,70.166a1.4,1.4,0,0,0-.267.733V85.423h-3.7V83.134a1,1,0,0,0-2,0v3.289a1,1,0,0,0,1,1h5.649c.016,0,.03.01.046.01H278.3c.016,0,.03-.009.046-.01h5.22a1,1,0,0,0,1-1V82.134A1,1,0,0,0,283.569,81.134Zm-27.6-45.8,8.26,3.156-8.26,3.155Zm-2,50.1h-9.579l9.579-18.485Zm0-23.082-.005.006L242.171,85.433h-9.535V71.3L253.97,52.966Zm2,23.082V66.8l9.474,18.629Zm21.333-.01H275.28c-.017,0-.031.009-.048.01h-7.567L255.97,62.2V52.966L277.3,71.3Z" fill="#292929"/>
      <path id="Path_15321-3" data-name="Path 15321" d="M236.785,77.19h6.765a1,1,0,0,0,1-1V71.433a1,1,0,0,0-1-1h-6.765a1,1,0,0,0-1,1V76.19A1,1,0,0,0,236.785,77.19Zm1-4.757h4.765V75.19h-4.765Z" fill="#292929"/>
      <path id="Path_15322-3" data-name="Path 15322" d="M266.285,77.19h6.766a1,1,0,0,0,1-1V71.433a1,1,0,0,0-1-1h-6.766a1,1,0,0,0-1,1V76.19A1,1,0,0,0,266.285,77.19Zm1-4.757h4.766V75.19h-4.766Z" fill="#292929"/>
    </g>
    <g id="Group_2102" data-name="Group 2102" transform="translate(77.875 2323.065)">
      <path id="Path_15320-4" data-name="Path 15320" d="M283.569,81.134a1,1,0,0,0-1,1v3.289H279.3V70.9a1,1,0,0,0-.267-.733L255.97,50.1V43.786l11.419-4.362a1,1,0,0,0,0-1.868l-12.062-4.609a1,1,0,0,0-1.357.934V50.1h0L230.9,70.166a1.4,1.4,0,0,0-.267.733V85.423h-3.7V83.134a1,1,0,0,0-2,0v3.289a1,1,0,0,0,1,1h5.649c.016,0,.03.01.046.01H278.3c.016,0,.03-.009.046-.01h5.22a1,1,0,0,0,1-1V82.134A1,1,0,0,0,283.569,81.134Zm-27.6-45.8,8.26,3.156-8.26,3.155Zm-2,50.1h-9.579l9.579-18.485Zm0-23.082-.005.006L242.171,85.433h-9.535V71.3L253.97,52.966Zm2,23.082V66.8l9.474,18.629Zm21.333-.01H275.28c-.017,0-.031.009-.048.01h-7.567L255.97,62.2V52.966L277.3,71.3Z" fill="#292929"/>
      <path id="Path_15321-4" data-name="Path 15321" d="M236.785,77.19h6.765a1,1,0,0,0,1-1V71.433a1,1,0,0,0-1-1h-6.765a1,1,0,0,0-1,1V76.19A1,1,0,0,0,236.785,77.19Zm1-4.757h4.765V75.19h-4.765Z" fill="#292929"/>
      <path id="Path_15322-4" data-name="Path 15322" d="M266.285,77.19h6.766a1,1,0,0,0,1-1V71.433a1,1,0,0,0-1-1h-6.766a1,1,0,0,0-1,1V76.19A1,1,0,0,0,266.285,77.19Zm1-4.757h4.766V75.19h-4.766Z" fill="#292929"/>
    </g>
    <g id="Group_2089" data-name="Group 2089" transform="translate(199.875 2049.065)">
      <path id="Path_15323" data-name="Path 15323" d="M59.527,64.953a1,1,0,0,0,.914-1.4,13.744,13.744,0,0,1-.625-9.7c.772-1.914,3.009-7.212,4.48-10.685,1.457,5.008,5.182,6.044,5.371,6.094a1,1,0,0,0,1.081-.407A17.3,17.3,0,0,0,72.98,35.027c8.841,5.514,8.745,13.622,8.736,13.987a1,1,0,0,0,1.592.836c1.819-1.339,2.7-3.76,3.125-5.535a17.885,17.885,0,0,1,3.435,14.722,1,1,0,0,0,1.953.431,19.888,19.888,0,0,0-5.341-18.14,1,1,0,0,0-1.679.655A13.27,13.27,0,0,1,83.484,46.6c-.641-3.582-3.02-10.235-11.768-14.564a1,1,0,0,0-1.36,1.3c.033.074,3.058,7.2-.829,13.717-1.184-.627-3.567-2.506-3.792-7.527a1,1,0,0,0-1.919-.346c-.047.109-4.666,10.981-5.854,13.928a15.647,15.647,0,0,0,.649,11.25A1,1,0,0,0,59.527,64.953Z" fill="#292929"/>
      <path id="Path_15324" data-name="Path 15324" d="M83.519,61.16a1,1,0,0,0,1.188,1.609c4-2.954,2.682-11.382,2.624-11.74a1,1,0,0,0-1.852-.343,8.72,8.72,0,0,1-4.964,3.766c-.193-3.82-2.89-10.291-3.24-11.116a1,1,0,0,0-1.919.457c.179,2.705-2.3,7.368-4.446,9.288-.72.642-1.174.76-1.312.737-1.639-.3-3.3-2.482-3.807-3.3a1,1,0,0,0-.806-.475,1.011,1.011,0,0,0-.846.4c-4.417,5.909-.437,12.6-.266,12.879a1,1,0,0,0,1.709-1.038c-.13-.217-2.924-4.954-.588-9.457a7.846,7.846,0,0,0,4.248,2.958,3.677,3.677,0,0,0,3-1.213,18.463,18.463,0,0,0,4.472-7.15c1.108,3.12,2.092,6.658,1.755,8.085a1,1,0,0,0,1.1,1.221,11.507,11.507,0,0,0,6.008-2.954C85.661,56.371,85.334,59.819,83.519,61.16Z" fill="#292929"/>
      <path id="Path_15325" data-name="Path 15325" d="M55.664,71.983l-3.4-.309a1,1,0,1,0-.181,1.992l3.4.309c.031,0,.061,0,.092,0a1,1,0,0,0,.089-2Z" fill="#292929"/>
      <path id="Path_15326" data-name="Path 15326" d="M83.143,73.825l-15.131-1.2a1,1,0,1,0-.157,1.994l15.131,1.2c.027,0,.053,0,.08,0a1,1,0,0,0,.077-2Z" fill="#292929"/>
      <path id="Path_15327" data-name="Path 15327" d="M67.443,71.18a1,1,0,0,0-.91-1.082l-7.069-.609a.986.986,0,0,0-1.082.91,1,1,0,0,0,.91,1.082l7.069.61a.845.845,0,0,0,.087,0A1,1,0,0,0,67.443,71.18Z" fill="#292929"/>
      <path id="Path_15328" data-name="Path 15328" d="M98.986,58.867a1,1,0,0,0-1.03-.109L78.205,68.04l-3.981-.295,5.049-1.871a1,1,0,0,0,.645-1.052c-.072-.627-.394-2.733-1.484-3.544a1.692,1.692,0,0,0-1.338-.326c-5.848,1.038-16.711,4.914-18.366,5.511l-9.577-.606a.974.974,0,0,0-.594.151,7.326,7.326,0,0,0-3.17,4.652,6.9,6.9,0,0,0,2.024,5.583,1,1,0,0,0,.678.338l9.448.71-2.1.95a1,1,0,0,0-.535.591,8.09,8.09,0,0,0,.26,6.532,9.869,9.869,0,0,0,5.544,4.368.99.99,0,0,0,.264.037l.014,0a.988.988,0,0,0,.4-.094c.016-.007.033,0,.048-.012L82.18,79.342a1.009,1.009,0,0,0,.235-.183l6.186.464.075,0a1,1,0,0,0,.558-.17,7.789,7.789,0,0,0,3.219-4.968,5.354,5.354,0,0,0,.032-.758l9.586-4.4a1,1,0,0,0,.455-.421C102.555,68.853,105.333,63.692,98.986,58.867Zm-51.62,12.1a5.14,5.14,0,0,1,2.015-3.088l9.43.6a1,1,0,0,0,.4-.058c.12-.044,12.006-4.353,18.087-5.467a4.071,4.071,0,0,1,.495,1.341l-8.577,3.178A1,1,0,0,0,69.5,69.4l17.917,1.325a5.057,5.057,0,0,0-1.047,1.942A6.7,6.7,0,0,0,87.07,77.5L48.66,74.618A4.788,4.788,0,0,1,47.366,70.963Zm9.571,13.473a5.455,5.455,0,0,1-.532-3.243,5.429,5.429,0,0,1,3.639,2.067,5.166,5.166,0,0,1,.305,4.187A7.226,7.226,0,0,1,56.937,84.436ZM62.51,86.9a6.548,6.548,0,0,0-.78-4.714,6.869,6.869,0,0,0-4.048-2.762l3.846-1.74a.855.855,0,0,0,.115-.082l9.685.727L66.444,80.6a1,1,0,0,0,.843,1.814l7.76-3.606a.973.973,0,0,0,.244-.179l3.339.251Zm26.536-9.924a5.1,5.1,0,0,1-.763-3.738,3.212,3.212,0,0,1,1.324-1.816,4.137,4.137,0,0,1,.861,2.826A4.908,4.908,0,0,1,89.046,76.973ZM100.9,67.664l-8.835,4.06a8.327,8.327,0,0,0-1.651-2.512,1,1,0,0,0-.661-.318l-7.481-.553,15.976-7.509C101.932,63.9,101.232,66.787,100.9,67.664Z" fill="#292929"/>
      <path id="Path_15329" data-name="Path 15329" d="M96.373,64.34l-4.926,2.288a1,1,0,1,0,.842,1.814l4.927-2.289a1,1,0,0,0-.843-1.813Z" fill="#292929"/>
      <path id="Path_15330" data-name="Path 15330" d="M64.021,78.437,62.814,79a1,1,0,1,0,.842,1.815l1.207-.561a1,1,0,0,0-.842-1.814Z" fill="#292929"/>
    </g>
    <g id="Group_2108" data-name="Group 2108" transform="translate(394.875 2372.065)">
      <path id="Path_15323-2" data-name="Path 15323" d="M59.527,64.953a1,1,0,0,0,.914-1.4,13.744,13.744,0,0,1-.625-9.7c.772-1.914,3.009-7.212,4.48-10.685,1.457,5.008,5.182,6.044,5.371,6.094a1,1,0,0,0,1.081-.407A17.3,17.3,0,0,0,72.98,35.027c8.841,5.514,8.745,13.622,8.736,13.987a1,1,0,0,0,1.592.836c1.819-1.339,2.7-3.76,3.125-5.535a17.885,17.885,0,0,1,3.435,14.722,1,1,0,0,0,1.953.431,19.888,19.888,0,0,0-5.341-18.14,1,1,0,0,0-1.679.655A13.27,13.27,0,0,1,83.484,46.6c-.641-3.582-3.02-10.235-11.768-14.564a1,1,0,0,0-1.36,1.3c.033.074,3.058,7.2-.829,13.717-1.184-.627-3.567-2.506-3.792-7.527a1,1,0,0,0-1.919-.346c-.047.109-4.666,10.981-5.854,13.928a15.647,15.647,0,0,0,.649,11.25A1,1,0,0,0,59.527,64.953Z" fill="#292929"/>
      <path id="Path_15324-2" data-name="Path 15324" d="M83.519,61.16a1,1,0,0,0,1.188,1.609c4-2.954,2.682-11.382,2.624-11.74a1,1,0,0,0-1.852-.343,8.72,8.72,0,0,1-4.964,3.766c-.193-3.82-2.89-10.291-3.24-11.116a1,1,0,0,0-1.919.457c.179,2.705-2.3,7.368-4.446,9.288-.72.642-1.174.76-1.312.737-1.639-.3-3.3-2.482-3.807-3.3a1,1,0,0,0-.806-.475,1.011,1.011,0,0,0-.846.4c-4.417,5.909-.437,12.6-.266,12.879a1,1,0,0,0,1.709-1.038c-.13-.217-2.924-4.954-.588-9.457a7.846,7.846,0,0,0,4.248,2.958,3.677,3.677,0,0,0,3-1.213,18.463,18.463,0,0,0,4.472-7.15c1.108,3.12,2.092,6.658,1.755,8.085a1,1,0,0,0,1.1,1.221,11.507,11.507,0,0,0,6.008-2.954C85.661,56.371,85.334,59.819,83.519,61.16Z" fill="#292929"/>
      <path id="Path_15325-2" data-name="Path 15325" d="M55.664,71.983l-3.4-.309a1,1,0,1,0-.181,1.992l3.4.309c.031,0,.061,0,.092,0a1,1,0,0,0,.089-2Z" fill="#292929"/>
      <path id="Path_15326-2" data-name="Path 15326" d="M83.143,73.825l-15.131-1.2a1,1,0,1,0-.157,1.994l15.131,1.2c.027,0,.053,0,.08,0a1,1,0,0,0,.077-2Z" fill="#292929"/>
      <path id="Path_15327-2" data-name="Path 15327" d="M67.443,71.18a1,1,0,0,0-.91-1.082l-7.069-.609a.986.986,0,0,0-1.082.91,1,1,0,0,0,.91,1.082l7.069.61a.845.845,0,0,0,.087,0A1,1,0,0,0,67.443,71.18Z" fill="#292929"/>
      <path id="Path_15328-2" data-name="Path 15328" d="M98.986,58.867a1,1,0,0,0-1.03-.109L78.205,68.04l-3.981-.295,5.049-1.871a1,1,0,0,0,.645-1.052c-.072-.627-.394-2.733-1.484-3.544a1.692,1.692,0,0,0-1.338-.326c-5.848,1.038-16.711,4.914-18.366,5.511l-9.577-.606a.974.974,0,0,0-.594.151,7.326,7.326,0,0,0-3.17,4.652,6.9,6.9,0,0,0,2.024,5.583,1,1,0,0,0,.678.338l9.448.71-2.1.95a1,1,0,0,0-.535.591,8.09,8.09,0,0,0,.26,6.532,9.869,9.869,0,0,0,5.544,4.368.99.99,0,0,0,.264.037l.014,0a.988.988,0,0,0,.4-.094c.016-.007.033,0,.048-.012L82.18,79.342a1.009,1.009,0,0,0,.235-.183l6.186.464.075,0a1,1,0,0,0,.558-.17,7.789,7.789,0,0,0,3.219-4.968,5.354,5.354,0,0,0,.032-.758l9.586-4.4a1,1,0,0,0,.455-.421C102.555,68.853,105.333,63.692,98.986,58.867Zm-51.62,12.1a5.14,5.14,0,0,1,2.015-3.088l9.43.6a1,1,0,0,0,.4-.058c.12-.044,12.006-4.353,18.087-5.467a4.071,4.071,0,0,1,.495,1.341l-8.577,3.178A1,1,0,0,0,69.5,69.4l17.917,1.325a5.057,5.057,0,0,0-1.047,1.942A6.7,6.7,0,0,0,87.07,77.5L48.66,74.618A4.788,4.788,0,0,1,47.366,70.963Zm9.571,13.473a5.455,5.455,0,0,1-.532-3.243,5.429,5.429,0,0,1,3.639,2.067,5.166,5.166,0,0,1,.305,4.187A7.226,7.226,0,0,1,56.937,84.436ZM62.51,86.9a6.548,6.548,0,0,0-.78-4.714,6.869,6.869,0,0,0-4.048-2.762l3.846-1.74a.855.855,0,0,0,.115-.082l9.685.727L66.444,80.6a1,1,0,0,0,.843,1.814l7.76-3.606a.973.973,0,0,0,.244-.179l3.339.251Zm26.536-9.924a5.1,5.1,0,0,1-.763-3.738,3.212,3.212,0,0,1,1.324-1.816,4.137,4.137,0,0,1,.861,2.826A4.908,4.908,0,0,1,89.046,76.973ZM100.9,67.664l-8.835,4.06a8.327,8.327,0,0,0-1.651-2.512,1,1,0,0,0-.661-.318l-7.481-.553,15.976-7.509C101.932,63.9,101.232,66.787,100.9,67.664Z" fill="#292929"/>
      <path id="Path_15329-2" data-name="Path 15329" d="M96.373,64.34l-4.926,2.288a1,1,0,1,0,.842,1.814l4.927-2.289a1,1,0,0,0-.843-1.813Z" fill="#292929"/>
      <path id="Path_15330-2" data-name="Path 15330" d="M64.021,78.437,62.814,79a1,1,0,1,0,.842,1.815l1.207-.561a1,1,0,0,0-.842-1.814Z" fill="#292929"/>
    </g>
    <g id="Group_2100" data-name="Group 2100" transform="translate(159.875 2231.065)">
      <path id="Path_15323-3" data-name="Path 15323" d="M59.527,64.953a1,1,0,0,0,.914-1.4,13.744,13.744,0,0,1-.625-9.7c.772-1.914,3.009-7.212,4.48-10.685,1.457,5.008,5.182,6.044,5.371,6.094a1,1,0,0,0,1.081-.407A17.3,17.3,0,0,0,72.98,35.027c8.841,5.514,8.745,13.622,8.736,13.987a1,1,0,0,0,1.592.836c1.819-1.339,2.7-3.76,3.125-5.535a17.885,17.885,0,0,1,3.435,14.722,1,1,0,0,0,1.953.431,19.888,19.888,0,0,0-5.341-18.14,1,1,0,0,0-1.679.655A13.27,13.27,0,0,1,83.484,46.6c-.641-3.582-3.02-10.235-11.768-14.564a1,1,0,0,0-1.36,1.3c.033.074,3.058,7.2-.829,13.717-1.184-.627-3.567-2.506-3.792-7.527a1,1,0,0,0-1.919-.346c-.047.109-4.666,10.981-5.854,13.928a15.647,15.647,0,0,0,.649,11.25A1,1,0,0,0,59.527,64.953Z" fill="#292929"/>
      <path id="Path_15324-3" data-name="Path 15324" d="M83.519,61.16a1,1,0,0,0,1.188,1.609c4-2.954,2.682-11.382,2.624-11.74a1,1,0,0,0-1.852-.343,8.72,8.72,0,0,1-4.964,3.766c-.193-3.82-2.89-10.291-3.24-11.116a1,1,0,0,0-1.919.457c.179,2.705-2.3,7.368-4.446,9.288-.72.642-1.174.76-1.312.737-1.639-.3-3.3-2.482-3.807-3.3a1,1,0,0,0-.806-.475,1.011,1.011,0,0,0-.846.4c-4.417,5.909-.437,12.6-.266,12.879a1,1,0,0,0,1.709-1.038c-.13-.217-2.924-4.954-.588-9.457a7.846,7.846,0,0,0,4.248,2.958,3.677,3.677,0,0,0,3-1.213,18.463,18.463,0,0,0,4.472-7.15c1.108,3.12,2.092,6.658,1.755,8.085a1,1,0,0,0,1.1,1.221,11.507,11.507,0,0,0,6.008-2.954C85.661,56.371,85.334,59.819,83.519,61.16Z" fill="#292929"/>
      <path id="Path_15325-3" data-name="Path 15325" d="M55.664,71.983l-3.4-.309a1,1,0,1,0-.181,1.992l3.4.309c.031,0,.061,0,.092,0a1,1,0,0,0,.089-2Z" fill="#292929"/>
      <path id="Path_15326-3" data-name="Path 15326" d="M83.143,73.825l-15.131-1.2a1,1,0,1,0-.157,1.994l15.131,1.2c.027,0,.053,0,.08,0a1,1,0,0,0,.077-2Z" fill="#292929"/>
      <path id="Path_15327-3" data-name="Path 15327" d="M67.443,71.18a1,1,0,0,0-.91-1.082l-7.069-.609a.986.986,0,0,0-1.082.91,1,1,0,0,0,.91,1.082l7.069.61a.845.845,0,0,0,.087,0A1,1,0,0,0,67.443,71.18Z" fill="#292929"/>
      <path id="Path_15328-3" data-name="Path 15328" d="M98.986,58.867a1,1,0,0,0-1.03-.109L78.205,68.04l-3.981-.295,5.049-1.871a1,1,0,0,0,.645-1.052c-.072-.627-.394-2.733-1.484-3.544a1.692,1.692,0,0,0-1.338-.326c-5.848,1.038-16.711,4.914-18.366,5.511l-9.577-.606a.974.974,0,0,0-.594.151,7.326,7.326,0,0,0-3.17,4.652,6.9,6.9,0,0,0,2.024,5.583,1,1,0,0,0,.678.338l9.448.71-2.1.95a1,1,0,0,0-.535.591,8.09,8.09,0,0,0,.26,6.532,9.869,9.869,0,0,0,5.544,4.368.99.99,0,0,0,.264.037l.014,0a.988.988,0,0,0,.4-.094c.016-.007.033,0,.048-.012L82.18,79.342a1.009,1.009,0,0,0,.235-.183l6.186.464.075,0a1,1,0,0,0,.558-.17,7.789,7.789,0,0,0,3.219-4.968,5.354,5.354,0,0,0,.032-.758l9.586-4.4a1,1,0,0,0,.455-.421C102.555,68.853,105.333,63.692,98.986,58.867Zm-51.62,12.1a5.14,5.14,0,0,1,2.015-3.088l9.43.6a1,1,0,0,0,.4-.058c.12-.044,12.006-4.353,18.087-5.467a4.071,4.071,0,0,1,.495,1.341l-8.577,3.178A1,1,0,0,0,69.5,69.4l17.917,1.325a5.057,5.057,0,0,0-1.047,1.942A6.7,6.7,0,0,0,87.07,77.5L48.66,74.618A4.788,4.788,0,0,1,47.366,70.963Zm9.571,13.473a5.455,5.455,0,0,1-.532-3.243,5.429,5.429,0,0,1,3.639,2.067,5.166,5.166,0,0,1,.305,4.187A7.226,7.226,0,0,1,56.937,84.436ZM62.51,86.9a6.548,6.548,0,0,0-.78-4.714,6.869,6.869,0,0,0-4.048-2.762l3.846-1.74a.855.855,0,0,0,.115-.082l9.685.727L66.444,80.6a1,1,0,0,0,.843,1.814l7.76-3.606a.973.973,0,0,0,.244-.179l3.339.251Zm26.536-9.924a5.1,5.1,0,0,1-.763-3.738,3.212,3.212,0,0,1,1.324-1.816,4.137,4.137,0,0,1,.861,2.826A4.908,4.908,0,0,1,89.046,76.973ZM100.9,67.664l-8.835,4.06a8.327,8.327,0,0,0-1.651-2.512,1,1,0,0,0-.661-.318l-7.481-.553,15.976-7.509C101.932,63.9,101.232,66.787,100.9,67.664Z" fill="#292929"/>
      <path id="Path_15329-3" data-name="Path 15329" d="M96.373,64.34l-4.926,2.288a1,1,0,1,0,.842,1.814l4.927-2.289a1,1,0,0,0-.843-1.813Z" fill="#292929"/>
      <path id="Path_15330-3" data-name="Path 15330" d="M64.021,78.437,62.814,79a1,1,0,1,0,.842,1.815l1.207-.561a1,1,0,0,0-.842-1.814Z" fill="#292929"/>
    </g>
    <path id="Path_15331" data-name="Path 15331" d="M292.581,146.619a1,1,0,0,0,1-1v-2.252a1,1,0,0,0-2,0v2.252A1,1,0,0,0,292.581,146.619Z" transform="translate(221.875 2038.065)" fill="#292929"/>
    <path id="Path_15332" data-name="Path 15332" d="M284.782,141.2a.982.982,0,0,0,.327-.056l1.966-.681a1,1,0,1,0-.654-1.889l-1.966.68a1,1,0,0,0,.327,1.946Z" transform="translate(221.875 2038.065)" fill="#292929"/>
    <path id="Path_15333" data-name="Path 15333" d="M259.768,142.367a1,1,0,0,0-1,1v2.252a1,1,0,0,0,2,0v-2.252A1,1,0,0,0,259.768,142.367Z" transform="translate(221.875 2038.065)" fill="#292929"/>
    <path id="Path_15334" data-name="Path 15334" d="M267.895,139.253l-2.143-.741a1,1,0,0,0-.655,1.889l2.143.742a1,1,0,0,0,.655-1.89Z" transform="translate(221.875 2038.065)" fill="#292929"/>
    <path id="Path_15335" data-name="Path 15335" d="M306.731,168.883h-2.353V124.488c0-.009-.006-.017-.006-.027a4.273,4.273,0,0,0-.085-.38,1.073,1.073,0,0,0-.1-.142.974.974,0,0,0-.13-.174c-.007-.007-.01-.016-.017-.023a40.121,40.121,0,0,1-.314-.182,33.525,33.525,0,0,0-.352-.072H248.972a.855.855,0,0,0-.112.023.94.94,0,0,0-.2.041.922.922,0,0,0-.182.087,1.008,1.008,0,0,0-.1.05c-.019.015-.028.036-.046.052a.948.948,0,0,0-.136.153.976.976,0,0,0-.1.153,1.105,1.105,0,0,0-.06.173,1,1,0,0,0-.04.2c0,.024-.014.043-.014.067v44.395h-2.354a1,1,0,0,0-1,1v5.391a1,1,0,0,0,1,1h61.113a1,1,0,0,0,1-1v-5.391A1,1,0,0,0,306.731,168.883Zm-20.683-36.389v-5.73l6.241,5.73Zm-27.9,0,6.379-5.757v5.757Zm-8.176-5.016,3.778,5.016h-3.778Zm43.885,3.74-6.241-5.73h6.241Zm2-5.73h5.287l-5.287,5.923ZM274.3,130.955l-6.141-5.467H274.3Zm2-5.467h6.236l-6.236,5.884Zm-21.54,5.016-3.778-5.016h3.778Zm2-5.016h6.171l-6.171,5.569Zm9.772,1.23,6.487,5.776h-6.487Zm17.521.089v5.687h-6.027Zm18.33.3v5.384h-4.806Zm-52.406,7.384h5.3a.986.986,0,0,0,.221.045,1,1,0,0,0,.252-.045h4.043l-1.934,1.3a1,1,0,0,0-.389,1.151l1.352,3.985a1,1,0,0,0,1.55.477l3.408-2.573a1,1,0,0,0,.112-1.5l-2.727-2.783a.881.881,0,0,0-.088-.063h14.152a.643.643,0,0,0,.473,0h15.572a.881.881,0,0,0-.088.063l-2.727,2.783a1,1,0,0,0,.112,1.5l3.409,2.573a1,1,0,0,0,1.549-.477l1.352-3.985a1,1,0,0,0-.388-1.151l-1.935-1.3h2.486a1.012,1.012,0,0,0,.254.045,1.036,1.036,0,0,0,.22-.045h6.861v34.389h-25.1a1.015,1.015,0,0,0,.031-.157,1,1,0,0,0-1-1h-1.1l0-15.047a3.327,3.327,0,0,1,.158-.705.994.994,0,0,0,1.2.064l3.238-2.186a1,1,0,0,0,.269-1.388c-.148-.22-.622-.891-.765-1.1-.087-.129-.4-.564-.481-.685a1,1,0,0,0-1.388-.269l-3.238,2.186a1,1,0,0,0-.269,1.388.828.828,0,0,0,.134.124,5.673,5.673,0,0,0-.855,2.512v15.108h-1.1a1,1,0,0,0-1,1,.91.91,0,0,0,.032.157H249.972Zm10.346,2.057,1.349,1.376-1.4,1.053-.662-1.951Zm31.713,0,.709.479-.661,1.95-1.4-1.053Zm13.7,37.723H246.618v-3.391h59.113Z" transform="translate(221.875 2038.065)" fill="#292929"/>
    <path id="Path_15339" data-name="Path 15339" d="M306.731,168.883h-2.353V124.488c0-.009-.006-.017-.006-.027a4.273,4.273,0,0,0-.085-.38,1.073,1.073,0,0,0-.1-.142.974.974,0,0,0-.13-.174c-.007-.007-.01-.016-.017-.023a40.121,40.121,0,0,1-.314-.182,33.525,33.525,0,0,0-.352-.072H248.972a.855.855,0,0,0-.112.023.94.94,0,0,0-.2.041.922.922,0,0,0-.182.087,1.008,1.008,0,0,0-.1.05c-.019.015-.028.036-.046.052a.948.948,0,0,0-.136.153.976.976,0,0,0-.1.153,1.105,1.105,0,0,0-.06.173,1,1,0,0,0-.04.2c0,.024-.014.043-.014.067v44.395h-2.354a1,1,0,0,0-1,1v5.391a1,1,0,0,0,1,1h61.113a1,1,0,0,0,1-1v-5.391A1,1,0,0,0,306.731,168.883Zm-20.683-36.389v-5.73l6.241,5.73Zm-27.9,0,6.379-5.757v5.757Zm-8.176-5.016,3.778,5.016h-3.778Zm43.885,3.74-6.241-5.73h6.241Zm2-5.73h5.287l-5.287,5.923ZM274.3,130.955l-6.141-5.467H274.3Zm2-5.467h6.236l-6.236,5.884Zm-21.54,5.016-3.778-5.016h3.778Zm2-5.016h6.171l-6.171,5.569Zm9.772,1.23,6.487,5.776h-6.487Zm17.521.089v5.687h-6.027Zm18.33.3v5.384h-4.806Zm-52.406,7.384h5.3a.986.986,0,0,0,.221.045,1,1,0,0,0,.252-.045h4.043l-1.934,1.3a1,1,0,0,0-.389,1.151l1.352,3.985a1,1,0,0,0,1.55.477l3.408-2.573a1,1,0,0,0,.112-1.5l-2.727-2.783a.881.881,0,0,0-.088-.063h14.152a.643.643,0,0,0,.473,0h15.572a.881.881,0,0,0-.088.063l-2.727,2.783a1,1,0,0,0,.112,1.5l3.409,2.573a1,1,0,0,0,1.549-.477l1.352-3.985a1,1,0,0,0-.388-1.151l-1.935-1.3h2.486a1.012,1.012,0,0,0,.254.045,1.036,1.036,0,0,0,.22-.045h6.861v34.389h-25.1a1.015,1.015,0,0,0,.031-.157,1,1,0,0,0-1-1h-1.1l0-15.047a3.327,3.327,0,0,1,.158-.705.994.994,0,0,0,1.2.064l3.238-2.186a1,1,0,0,0,.269-1.388c-.148-.22-.622-.891-.765-1.1-.087-.129-.4-.564-.481-.685a1,1,0,0,0-1.388-.269l-3.238,2.186a1,1,0,0,0-.269,1.388.828.828,0,0,0,.134.124,5.673,5.673,0,0,0-.855,2.512v15.108h-1.1a1,1,0,0,0-1,1,.91.91,0,0,0,.032.157H249.972Zm10.346,2.057,1.349,1.376-1.4,1.053-.662-1.951Zm31.713,0,.709.479-.661,1.95-1.4-1.053Zm13.7,37.723H246.618v-3.391h59.113Z" transform="translate(138.875 1870.065)" fill="#292929"/>
    <path id="Path_15340" data-name="Path 15340" d="M306.731,168.883h-2.353V124.488c0-.009-.006-.017-.006-.027a4.273,4.273,0,0,0-.085-.38,1.073,1.073,0,0,0-.1-.142.974.974,0,0,0-.13-.174c-.007-.007-.01-.016-.017-.023a40.121,40.121,0,0,1-.314-.182,33.525,33.525,0,0,0-.352-.072H248.972a.855.855,0,0,0-.112.023.94.94,0,0,0-.2.041.922.922,0,0,0-.182.087,1.008,1.008,0,0,0-.1.05c-.019.015-.028.036-.046.052a.948.948,0,0,0-.136.153.976.976,0,0,0-.1.153,1.105,1.105,0,0,0-.06.173,1,1,0,0,0-.04.2c0,.024-.014.043-.014.067v44.395h-2.354a1,1,0,0,0-1,1v5.391a1,1,0,0,0,1,1h61.113a1,1,0,0,0,1-1v-5.391A1,1,0,0,0,306.731,168.883Zm-20.683-36.389v-5.73l6.241,5.73Zm-27.9,0,6.379-5.757v5.757Zm-8.176-5.016,3.778,5.016h-3.778Zm43.885,3.74-6.241-5.73h6.241Zm2-5.73h5.287l-5.287,5.923ZM274.3,130.955l-6.141-5.467H274.3Zm2-5.467h6.236l-6.236,5.884Zm-21.54,5.016-3.778-5.016h3.778Zm2-5.016h6.171l-6.171,5.569Zm9.772,1.23,6.487,5.776h-6.487Zm17.521.089v5.687h-6.027Zm18.33.3v5.384h-4.806Zm-52.406,7.384h5.3a.986.986,0,0,0,.221.045,1,1,0,0,0,.252-.045h4.043l-1.934,1.3a1,1,0,0,0-.389,1.151l1.352,3.985a1,1,0,0,0,1.55.477l3.408-2.573a1,1,0,0,0,.112-1.5l-2.727-2.783a.881.881,0,0,0-.088-.063h14.152a.643.643,0,0,0,.473,0h15.572a.881.881,0,0,0-.088.063l-2.727,2.783a1,1,0,0,0,.112,1.5l3.409,2.573a1,1,0,0,0,1.549-.477l1.352-3.985a1,1,0,0,0-.388-1.151l-1.935-1.3h2.486a1.012,1.012,0,0,0,.254.045,1.036,1.036,0,0,0,.22-.045h6.861v34.389h-25.1a1.015,1.015,0,0,0,.031-.157,1,1,0,0,0-1-1h-1.1l0-15.047a3.327,3.327,0,0,1,.158-.705.994.994,0,0,0,1.2.064l3.238-2.186a1,1,0,0,0,.269-1.388c-.148-.22-.622-.891-.765-1.1-.087-.129-.4-.564-.481-.685a1,1,0,0,0-1.388-.269l-3.238,2.186a1,1,0,0,0-.269,1.388.828.828,0,0,0,.134.124,5.673,5.673,0,0,0-.855,2.512v15.108h-1.1a1,1,0,0,0-1,1,.91.91,0,0,0,.032.157H249.972Zm10.346,2.057,1.349,1.376-1.4,1.053-.662-1.951Zm31.713,0,.709.479-.661,1.95-1.4-1.053Zm13.7,37.723H246.618v-3.391h59.113Z" transform="translate(-62.125 2338.065)" fill="#292929"/>
    <g id="Group_2091" data-name="Group 2091" transform="translate(235.875 2063.065)">
      <path id="Path_15336" data-name="Path 15336" d="M181.359,76.5l.445-.429a1.1,1.1,0,0,0,.089-1.493L165.629,54.656a9,9,0,0,0,.094-1.225,8.889,8.889,0,0,0-1.542-5.012c-.009-.013-.019-.024-.028-.037a8.929,8.929,0,1,0-12.9,12.05c.026.023.055.041.083.062a8.736,8.736,0,0,0,6.86,1.75l19.577,16.348a1.107,1.107,0,0,0,1.475-.053l.514-.5a4.441,4.441,0,0,1,.973,2.442,5.224,5.224,0,0,1-1.77,3.814,2.688,2.688,0,0,1-2.1.918c-3.112-.094-7.237-4.912-8.79-6.726l-.212-.247c-2.614-3.061-8.052-9.432-12.644-6.112-2.784,2.015-3.209,5.306-1.083,8.387a1.1,1.1,0,1,0,1.818-1.256c-1.465-2.122-1.266-4.02.561-5.342,2.934-2.125,7.654,3.4,9.668,5.758l.213.249c3.122,3.646,6.8,7.389,10.4,7.5l.159,0a4.872,4.872,0,0,0,3.6-1.594,7.291,7.291,0,0,0,2.385-5.492A6.728,6.728,0,0,0,181.359,76.5Zm-31.3-23.071a6.717,6.717,0,0,1,11.81-4.39c-4.9,7.023-8.432,8.9-9.612,9.349A6.7,6.7,0,0,1,150.062,53.431Zm4.451,6.322c1.919-1.11,4.89-3.5,8.588-8.62a6.708,6.708,0,0,1-8.588,8.62ZM178.427,76.26,160.7,61.454a8.98,8.98,0,0,0,4.172-4.235l14.67,17.97Z" fill="#2d2c2f"/>
      <path id="Path_15337" data-name="Path 15337" d="M171.006,39.229a13.782,13.782,0,0,1-.726-4.057,1,1,0,0,0-1.964-.194l-1.57,5.829a2.454,2.454,0,0,0-.279-.1,2.3,2.3,0,1,0,1.62,2.814l.994-3.688a2.951,2.951,0,0,0,.263.513,1,1,0,0,0,1.662-1.113Zm-5.212,3.978a.3.3,0,0,1,.076-.583.259.259,0,0,1,.077.01.3.3,0,0,1,.209.363A.3.3,0,0,1,165.794,43.207Z" fill="#2d2c2f"/>
      <path id="Path_15338" data-name="Path 15338" d="M144.043,47.1c-.012-.025-.029-.046-.042-.07,0-.006,0-.013-.006-.019l-3.1-5.239a1,1,0,0,0-.579-.451c-1-.3-2.75.628-5.2,2.738a1,1,0,0,0-.256,1.177l2.126,4.608c-.038.014-.077.022-.114.039a2.122,2.122,0,1,0,2.814,1.037v0l-2.687-5.823a15.141,15.141,0,0,1,2.531-1.713l1.616,2.732a2.11,2.11,0,0,0-.952,2.765,2.127,2.127,0,0,0,1.931,1.231,2.12,2.12,0,0,0,1.922-3.01Zm-6.176,4.659a.121.121,0,1,1-.22.1c-.024-.052.008-.137.152-.165a.116.116,0,0,1,.067.063h0Zm4.139-3.719c-.024-.052.007-.137.153-.164a.114.114,0,0,1,.054.05l.013.021a.134.134,0,0,1-.058.153A.122.122,0,0,1,142.006,48.038Z" fill="#2d2c2f"/>
    </g>
    <g id="Group_2105" data-name="Group 2105" transform="translate(11.875 2116.065)">
      <path id="Path_15336-2" data-name="Path 15336" d="M181.359,76.5l.445-.429a1.1,1.1,0,0,0,.089-1.493L165.629,54.656a9,9,0,0,0,.094-1.225,8.889,8.889,0,0,0-1.542-5.012c-.009-.013-.019-.024-.028-.037a8.929,8.929,0,1,0-12.9,12.05c.026.023.055.041.083.062a8.736,8.736,0,0,0,6.86,1.75l19.577,16.348a1.107,1.107,0,0,0,1.475-.053l.514-.5a4.441,4.441,0,0,1,.973,2.442,5.224,5.224,0,0,1-1.77,3.814,2.688,2.688,0,0,1-2.1.918c-3.112-.094-7.237-4.912-8.79-6.726l-.212-.247c-2.614-3.061-8.052-9.432-12.644-6.112-2.784,2.015-3.209,5.306-1.083,8.387a1.1,1.1,0,1,0,1.818-1.256c-1.465-2.122-1.266-4.02.561-5.342,2.934-2.125,7.654,3.4,9.668,5.758l.213.249c3.122,3.646,6.8,7.389,10.4,7.5l.159,0a4.872,4.872,0,0,0,3.6-1.594,7.291,7.291,0,0,0,2.385-5.492A6.728,6.728,0,0,0,181.359,76.5Zm-31.3-23.071a6.717,6.717,0,0,1,11.81-4.39c-4.9,7.023-8.432,8.9-9.612,9.349A6.7,6.7,0,0,1,150.062,53.431Zm4.451,6.322c1.919-1.11,4.89-3.5,8.588-8.62a6.708,6.708,0,0,1-8.588,8.62ZM178.427,76.26,160.7,61.454a8.98,8.98,0,0,0,4.172-4.235l14.67,17.97Z" fill="#2d2c2f"/>
      <path id="Path_15337-2" data-name="Path 15337" d="M171.006,39.229a13.782,13.782,0,0,1-.726-4.057,1,1,0,0,0-1.964-.194l-1.57,5.829a2.454,2.454,0,0,0-.279-.1,2.3,2.3,0,1,0,1.62,2.814l.994-3.688a2.951,2.951,0,0,0,.263.513,1,1,0,0,0,1.662-1.113Zm-5.212,3.978a.3.3,0,0,1,.076-.583.259.259,0,0,1,.077.01.3.3,0,0,1,.209.363A.3.3,0,0,1,165.794,43.207Z" fill="#2d2c2f"/>
      <path id="Path_15338-2" data-name="Path 15338" d="M144.043,47.1c-.012-.025-.029-.046-.042-.07,0-.006,0-.013-.006-.019l-3.1-5.239a1,1,0,0,0-.579-.451c-1-.3-2.75.628-5.2,2.738a1,1,0,0,0-.256,1.177l2.126,4.608c-.038.014-.077.022-.114.039a2.122,2.122,0,1,0,2.814,1.037v0l-2.687-5.823a15.141,15.141,0,0,1,2.531-1.713l1.616,2.732a2.11,2.11,0,0,0-.952,2.765,2.127,2.127,0,0,0,1.931,1.231,2.12,2.12,0,0,0,1.922-3.01Zm-6.176,4.659a.121.121,0,1,1-.22.1c-.024-.052.008-.137.152-.165a.116.116,0,0,1,.067.063h0Zm4.139-3.719c-.024-.052.007-.137.153-.164a.114.114,0,0,1,.054.05l.013.021a.134.134,0,0,1-.058.153A.122.122,0,0,1,142.006,48.038Z" fill="#2d2c2f"/>
    </g>
    <g id="Group_2101" data-name="Group 2101" transform="translate(379.875 2268.065)">
      <path id="Path_15336-3" data-name="Path 15336" d="M181.359,76.5l.445-.429a1.1,1.1,0,0,0,.089-1.493L165.629,54.656a9,9,0,0,0,.094-1.225,8.889,8.889,0,0,0-1.542-5.012c-.009-.013-.019-.024-.028-.037a8.929,8.929,0,1,0-12.9,12.05c.026.023.055.041.083.062a8.736,8.736,0,0,0,6.86,1.75l19.577,16.348a1.107,1.107,0,0,0,1.475-.053l.514-.5a4.441,4.441,0,0,1,.973,2.442,5.224,5.224,0,0,1-1.77,3.814,2.688,2.688,0,0,1-2.1.918c-3.112-.094-7.237-4.912-8.79-6.726l-.212-.247c-2.614-3.061-8.052-9.432-12.644-6.112-2.784,2.015-3.209,5.306-1.083,8.387a1.1,1.1,0,1,0,1.818-1.256c-1.465-2.122-1.266-4.02.561-5.342,2.934-2.125,7.654,3.4,9.668,5.758l.213.249c3.122,3.646,6.8,7.389,10.4,7.5l.159,0a4.872,4.872,0,0,0,3.6-1.594,7.291,7.291,0,0,0,2.385-5.492A6.728,6.728,0,0,0,181.359,76.5Zm-31.3-23.071a6.717,6.717,0,0,1,11.81-4.39c-4.9,7.023-8.432,8.9-9.612,9.349A6.7,6.7,0,0,1,150.062,53.431Zm4.451,6.322c1.919-1.11,4.89-3.5,8.588-8.62a6.708,6.708,0,0,1-8.588,8.62ZM178.427,76.26,160.7,61.454a8.98,8.98,0,0,0,4.172-4.235l14.67,17.97Z" fill="#2d2c2f"/>
      <path id="Path_15337-3" data-name="Path 15337" d="M171.006,39.229a13.782,13.782,0,0,1-.726-4.057,1,1,0,0,0-1.964-.194l-1.57,5.829a2.454,2.454,0,0,0-.279-.1,2.3,2.3,0,1,0,1.62,2.814l.994-3.688a2.951,2.951,0,0,0,.263.513,1,1,0,0,0,1.662-1.113Zm-5.212,3.978a.3.3,0,0,1,.076-.583.259.259,0,0,1,.077.01.3.3,0,0,1,.209.363A.3.3,0,0,1,165.794,43.207Z" fill="#2d2c2f"/>
      <path id="Path_15338-3" data-name="Path 15338" d="M144.043,47.1c-.012-.025-.029-.046-.042-.07,0-.006,0-.013-.006-.019l-3.1-5.239a1,1,0,0,0-.579-.451c-1-.3-2.75.628-5.2,2.738a1,1,0,0,0-.256,1.177l2.126,4.608c-.038.014-.077.022-.114.039a2.122,2.122,0,1,0,2.814,1.037v0l-2.687-5.823a15.141,15.141,0,0,1,2.531-1.713l1.616,2.732a2.11,2.11,0,0,0-.952,2.765,2.127,2.127,0,0,0,1.931,1.231,2.12,2.12,0,0,0,1.922-3.01Zm-6.176,4.659a.121.121,0,1,1-.22.1c-.024-.052.008-.137.152-.165a.116.116,0,0,1,.067.063h0Zm4.139-3.719c-.024-.052.007-.137.153-.164a.114.114,0,0,1,.054.05l.013.021a.134.134,0,0,1-.058.153A.122.122,0,0,1,142.006,48.038Z" fill="#2d2c2f"/>
    </g>
  </g>
</svg>
