<svg xmlns="http://www.w3.org/2000/svg" viewBox="0 0 75 58">
  <defs>
    <style>
      .cls-1{fill:#d93833}
    </style>
  </defs>
  <path class="cls-1" d="M39.53 29.42v17.15h1.94V28.8c-.66.2-1.28.4-1.94.62zM49.37 27.38L47.83 39h-.16l-1.46-11.26c-.65.1-1.24.21-1.89.35l2.42 18.51h2l2.55-19.28c-.57.01-1.29.03-1.92.06zM55.48 27.67l-2.42 18.9h2l.57-5.07h1.88l.61 5.06h2L57.71 28c-.59-.1-1.63-.24-2.23-.33zm.41 11.91l.7-5.1.68 5.1zM64.89 30.66c-.66-.34-1.25-.65-1.92-.93v16.85h5.08v-1.94h-3.16zM64.08 26.9c.69.29 1.29.61 1.92.93V15.71l4.73-4.3h-2.88L65 14l-2.83-2.6h-2.82l4.73 4.28zM56.47 24.74v-1.95c-.84-.12-2.6-.29-3.09-.3V11.41h-1.92v12.91a34.4 34.4 0 0 1 5.01.42zM41.61 25.57c.67-.17 1.28-.33 1.93-.46V13.34h4.7v-1.93H37.18v1.93h4.43zM30.56 27.3c-1.42.05-2.4-1.73-3-3.65l-1.32 1.66c.75 2.38 2 4.05 4.05 4 3-.06 4.39-2.21 4.4-5.1 0-2.12-1.65-3.37-3.49-4.23-.81-.37-3.11-1.5-3.2-3.14-.12-2.15.68-3.47 2.28-3.48s1.71 1.15 2.45 3l1.05-1.65a3.65 3.65 0 0 0-3.57-3.3c-2.34 0-4.42 1.4-4.14 5.37C26.32 20 29 21 29.91 21.46c1.06.61 2.67 1.41 2.78 2.8s-.69 2.99-2.13 3.04zM17.08 32.68l.75-6.55h1.85l.71 6 2-.41-2.62-20.34h-2.15l-2.51 21.49c.62-.04 1.28-.11 1.97-.19zm1.69-14.17l.68 5.71h-1.39zM7 32.37V18.09h4.27v-1.95H7v-2.79h7.6v-1.94H5.11v20.32a12.73 12.73 0 0 0 1.89.64zM10.62 37.92V36c-.81 0-1.62-.14-2.35-.26A22.55 22.55 0 0 1 5.39 35v11.57h1.92v-5.66h2.38v-1.93H7.3V37.4a18.52 18.52 0 0 0 3.32.52zM15.37 41.94h2.39V40h-2.39v-2.18a30.25 30.25 0 0 0 3.39-.35v-1.89a42.59 42.59 0 0 1-5.31.45v10.54h5.42v-1.94h-3.5zM25.79 39.38c-.72-.3-1.53-.78-1.53-1.59 0-.58.39-1.62 1.17-1.62s1.44 1 1.85 1.81l1.18-1.57c-.37-1.11-1.44-1.67-2.84-2l-1.91.45a4.8 4.8 0 0 0-1.14 3.07c0 2.09 1.36 2.74 2.51 3.35.74.4 1.69 1 1.69 1.75s-.3 1.8-1.1 1.86-1.67-1.34-2.08-2.52l-1.37 1.41c.63 1.67 1.64 2.93 3.32 2.93 2.26 0 3.09-1.93 3.09-3.89 0-2.16-1.63-2.96-2.84-3.44zM30.37 32.75v2s1.26-.34 2.14-.69v12.51h1.94v-13.2c.88-.32 1.75-.65 2.14-.81v-2.05q-3.23 1.26-6.22 2.24z"/>
</svg>
