<svg id="Layer_1" data-name="Layer 1" xmlns="http://www.w3.org/2000/svg" viewBox="0 0 140 140"><defs><style>.cls-1{fill:#231f20;}</style></defs><title>Logo copy</title><path class="cls-1" d="M88.41,91h0a1.5,1.5,0,0,0-2.56-1.41c-6,6.83-26.37,8-44.38,9a1.5,1.5,0,0,0-.31,3,146.94,146.94,0,0,0,24.6,4.34c.65,0,1.29.07,1.91.07C83.78,106,88.37,91.11,88.41,91Zm-5.63,4.37c-3,4.1-8.12,8.17-16.81,7.55A119.46,119.46,0,0,1,52,101C63.45,100.15,75.39,98.86,82.78,95.33Z"/><path class="cls-1" d="M50.27,93.18h0a1.51,1.51,0,0,0,1,1.23,1.56,1.56,0,0,0,.48.08,1.5,1.5,0,0,0,1.06-.44c11.41-11.38,12.34-15.25,13.54-37,.49-8.82,2.2-20,2.22-20.06A1.5,1.5,0,0,0,65.85,36,97.43,97.43,0,0,0,55.71,56.24C53,58.55,50,60.78,47.14,62.94,38.9,69.09,30.38,75.45,27.26,83.85a1.5,1.5,0,0,0,.63,1.8,1.53,1.53,0,0,0,1.88-.27c.07-.07,6.61-7,21.57-12.6C49.26,84.92,50.26,93.1,50.27,93.18ZM62.21,54.25c-1.34,4-3.55,9.35-6.59,12.56.73-3,1.61-5.91,2.63-8.8C59.76,56.7,61.07,55.45,62.21,54.25Zm1,5.91C62.16,77,61,81.2,53,89.54a83.79,83.79,0,0,1,1.58-18.12C57.84,69.6,60.72,65.82,63.18,60.16ZM54,61.52c-.77,2.57-1.43,5.2-2,7.82A80.81,80.81,0,0,0,34.3,78c3.85-4.56,9.32-8.64,14.63-12.61C50.73,64,52.38,62.76,54,61.52Zm7-10.36c1.1-2.5,2.32-4.95,3.64-7.34-.1.85-.21,1.76-.32,2.7A26.18,26.18,0,0,1,61,51.16Z"/><path class="cls-1" d="M112.36,59.82c-2.83-5.47-6.63-8.72-11-9.42l-.24,0H85.75c0-1.67.06-3.36.11-5.11a66.91,66.91,0,0,1,1.9-14.66c10.64.41,17.45.43,20.7-.61a8.39,8.39,0,0,0,6-7A9.44,9.44,0,0,0,110,14c-4.49-2.82-10.89-2.17-18,1.81a.84.84,0,0,0-.2.11c-.65.37-1.3.76-2,1.19C72.36,28.38,64.08,26.2,51.54,22.87c-2-.54-4.17-1.1-6.47-1.64C26.94,16.92,21.45,34.67,21.4,34.85a1.49,1.49,0,0,0,.68,1.72,1.53,1.53,0,0,0,1.83-.24c7.75-7.88,37-6.81,55-6.08A69.47,69.47,0,0,0,71.57,51.6a1.29,1.29,0,0,0,0,.21c-.48,2.64-.86,5.35-1.14,8a136.08,136.08,0,0,0,.29,29.46,1.5,1.5,0,0,0,.8,1.13,1.53,1.53,0,0,0,1.38,0C83.83,84.7,85.18,73,85.58,58.26a26.78,26.78,0,0,1,12.2,19.08c4.47,28.11-21.77,47.53-22,47.72a1.51,1.51,0,0,0,.89,2.72,1.59,1.59,0,0,0,.81-.24c14-9,28.41-19.24,36.7-36.2C118.1,83.22,117.32,69.38,112.36,59.82ZM100.75,76.87a30.14,30.14,0,0,0-15.09-22l0-1.54H101c4.22.72,7.07,4.65,8.72,7.83,4.49,8.66,5.27,21.59,1.74,28.83-4.66,9.53-11.6,17.59-22.27,25.77C96.44,106.58,103.33,93.12,100.75,76.87ZM84.16,27.47a38.79,38.79,0,0,1,2.41-3Q86,25.9,85.49,27.52Zm-1.3,17.72c0,1.77-.08,3.5-.12,5.19H74.89a63.81,63.81,0,0,1,7.34-20l2.45.1A71.33,71.33,0,0,0,82.86,45.19ZM82.16,30h0l0-.1Zm-6-2.86a46.06,46.06,0,0,0,6.36-2.5c-.66.87-1.3,1.76-1.9,2.68Zm6.44,29.42c-.32,14.09-1.24,24.57-9.24,30.07a132.91,132.91,0,0,1,.92-33A34,34,0,0,1,82.62,56.56Zm25.8-40.07a6.43,6.43,0,0,1,3.07,6.15,5.39,5.39,0,0,1-3.95,4.5c-3.05,1-11,.8-18.91.5,2-6,4.38-8.72,5-9.31C99.65,15,104.91,14.29,108.42,16.49ZM54.61,26.77C41.33,27,32.28,28.38,26.52,31c2.37-3.69,6.44-7.48,13.12-7.48a20.62,20.62,0,0,1,4.74.59c2.26.53,4.36,1.09,6.41,1.63C52.1,26.12,53.36,26.46,54.61,26.77Z"/></svg>